<svg viewBox="0 0 114 118" xmlns="http://www.w3.org/2000/svg">
<path d="M35.6211 11.4271V15.8979H40.8809V17.9361H35.6211V22.6042H41.5384V24.6423H33.1227V9.38889H41.5384V11.4271H35.6211ZM47.1141 14.32C47.4794 13.7063 47.9615 13.2315 48.5605 12.8954C49.1742 12.5448 49.8974 12.3694 50.7302 12.3694V14.9555H50.0947C49.1157 14.9555 48.3706 15.2039 47.8592 15.7007C47.3625 16.1974 47.1141 17.0594 47.1141 18.2867V24.6423H44.6157V12.5667H47.1141V14.32ZM55.5252 14.32C55.8904 13.7063 56.3726 13.2315 56.9716 12.8954C57.5853 12.5448 58.3085 12.3694 59.1413 12.3694V14.9555H58.5057C57.5268 14.9555 56.7817 15.2039 56.2703 15.7007C55.7735 16.1974 55.5252 17.0594 55.5252 18.2867V24.6423H53.0268V12.5667H55.5252V14.32ZM66.6757 24.8396C65.5361 24.8396 64.5061 24.5839 63.5856 24.0725C62.6651 23.5465 61.9419 22.816 61.4159 21.8809C60.8899 20.9312 60.6269 19.8355 60.6269 18.5936C60.6269 17.3663 60.8972 16.2778 61.4378 15.3281C61.9784 14.3784 62.7163 13.6479 63.6513 13.1365C64.5864 12.6251 65.6311 12.3694 66.7853 12.3694C67.9395 12.3694 68.9842 12.6251 69.9193 13.1365C70.8544 13.6479 71.5922 14.3784 72.1328 15.3281C72.6734 16.2778 72.9437 17.3663 72.9437 18.5936C72.9437 19.8208 72.6661 20.9093 72.1109 21.859C71.5557 22.8087 70.7959 23.5465 69.8316 24.0725C68.8819 24.5839 67.83 24.8396 66.6757 24.8396ZM66.6757 22.6699C67.3186 22.6699 67.9176 22.5165 68.4728 22.2097C69.0426 21.9028 69.5029 21.4426 69.8535 20.829C70.2042 20.2153 70.3795 19.4702 70.3795 18.5936C70.3795 17.7169 70.2115 16.9791 69.8754 16.38C69.5394 15.7664 69.0938 15.3062 68.5386 14.9993C67.9834 14.6925 67.3843 14.5391 66.7415 14.5391C66.0986 14.5391 65.4996 14.6925 64.9444 14.9993C64.4038 15.3062 63.9728 15.7664 63.6513 16.38C63.3299 16.9791 63.1692 17.7169 63.1692 18.5936C63.1692 19.8939 63.4979 20.902 64.1554 21.6179C64.8275 22.3193 65.6676 22.6699 66.6757 22.6699ZM77.9119 14.32C78.2772 13.7063 78.7593 13.2315 79.3583 12.8954C79.972 12.5448 80.6952 12.3694 81.528 12.3694V14.9555H80.8924C79.9135 14.9555 79.1684 15.2039 78.657 15.7007C78.1603 16.1974 77.9119 17.0594 77.9119 18.2867V24.6423H75.4135V12.5667H77.9119V14.32Z" fill="#1B5196"/>
<path d="M25.7831 95.6423H23.8971V89.0675H25.7831V95.6423ZM29.5552 95.6423H27.6691V89.0675H29.5552V95.6423ZM25.7831 77.7513H23.8971V70.2334H25.7831V77.7513ZM29.5552 77.7513H27.6691V70.2334H29.5552V77.7513ZM2.23405 80.5542V78.6681H32.4104V80.5542H2.23405ZM2.23405 84.3262V82.4402H32.4104V84.3262H2.23405ZM2.23405 88.0983V86.2122H32.4104V88.0983H2.23405ZM13.9431 52.29L16.1173 52.2639L4.38202 77.7251H2.18166L13.9431 52.29ZM18.239 52.29H20.3346L8.65176 77.7251H6.4514L18.239 52.29ZM22.4564 52.29H24.6044L13.0263 77.7251H10.8259L22.4564 52.29ZM26.7523 52.29L28.9265 52.2639L17.558 77.7251H15.3576L26.7523 52.29ZM38.278 86.2646C36.4618 82.6672 35.5538 78.5634 35.5538 73.9531C35.5538 69.3428 36.4618 65.239 38.278 61.6416C40.0942 58.0442 42.5914 55.2675 45.7697 53.3116C48.948 51.3558 52.5279 50.3778 56.5095 50.3778C60.4911 50.3778 64.0711 51.3558 67.2494 53.3116C70.4277 55.2675 72.9249 58.0442 74.7411 61.6416C76.5572 65.239 77.4653 69.3428 77.4653 73.9531C77.4653 78.5634 76.5572 82.6672 74.7411 86.2646C72.9249 89.862 70.4277 92.6387 67.2494 94.5945C64.0711 96.5504 60.4911 97.5284 56.5095 97.5284C52.5279 97.5284 48.948 96.5504 45.7697 94.5945C42.5914 92.6387 40.0942 89.862 38.278 86.2646ZM63.5297 64.9421C65.276 67.0901 66.1492 70.0937 66.1492 73.9531C66.1492 77.8125 65.276 80.8248 63.5297 82.9903C61.8009 85.1382 59.4608 86.2122 56.5095 86.2122C53.5583 86.2122 51.2095 85.1382 49.4632 82.9903C47.7343 80.8248 46.8699 77.8125 46.8699 73.9531C46.8699 70.0937 47.7343 67.0901 49.4632 64.9421C51.2095 62.7767 53.5583 61.694 56.5095 61.694C59.4608 61.694 61.8009 62.7767 63.5297 64.9421ZM66.2016 62.2702C68.6814 65.1691 69.9212 69.0634 69.9212 73.9531C69.9212 78.8428 68.6814 82.7371 66.2016 85.6359C63.7393 88.5348 60.5086 89.9843 56.5095 89.9843C52.5105 89.9843 49.2711 88.5348 46.7913 85.6359C44.329 82.7371 43.0978 78.8428 43.0978 73.9531C43.0978 69.0634 44.329 65.1691 46.7913 62.2702C49.2711 59.3714 52.5105 57.9219 56.5095 57.9219C60.5086 57.9219 63.7393 59.3714 66.2016 62.2702ZM71.4667 63.5538C72.9511 66.5574 73.6933 70.0239 73.6933 73.9531C73.6933 77.8823 72.9511 81.3575 71.4667 84.3786C69.9998 87.3823 67.9654 89.6961 65.3634 91.3202C62.7614 92.9443 59.8101 93.7563 56.5095 93.7563C53.209 93.7563 50.2577 92.9443 47.6557 91.3202C45.0537 89.6961 43.0105 87.3823 41.5262 84.3786C40.0592 81.3575 39.3258 77.8823 39.3258 73.9531C39.3258 70.0239 40.0592 66.5574 41.5262 63.5538C43.0105 60.5327 45.0537 58.2101 47.6557 56.586C50.2577 54.9619 53.209 54.1499 56.5095 54.1499C59.8101 54.1499 62.7614 54.9619 65.3634 56.586C67.9654 58.2101 69.9998 60.5327 71.4667 63.5538ZM50.7991 66.2518C49.437 68.0331 48.7559 70.6002 48.7559 73.9531C48.7559 77.306 49.437 79.8731 50.7991 81.6543C52.1787 83.4356 54.0822 84.3262 56.5095 84.3262C58.9369 84.3262 60.8317 83.4356 62.1938 81.6543C63.5734 79.8731 64.2632 77.306 64.2632 73.9531C64.2632 70.6002 63.5734 68.0331 62.1938 66.2518C60.8317 64.4706 58.9369 63.58 56.5095 63.58C54.0822 63.58 52.1787 64.4706 50.7991 66.2518ZM48.1272 63.6062C46.0316 66.1209 44.9839 69.5698 44.9839 73.9531C44.9839 78.3363 46.0316 81.7941 48.1272 84.3262C50.2403 86.8409 53.0344 88.0983 56.5095 88.0983C59.9847 88.0983 62.7701 86.8409 64.8657 84.3262C66.9787 81.7941 68.0352 78.3363 68.0352 73.9531C68.0352 69.5698 66.9787 66.1209 64.8657 63.6062C62.7701 61.074 59.9847 59.8079 56.5095 59.8079C53.0344 59.8079 50.2403 61.074 48.1272 63.6062ZM45.4554 60.9343C42.6263 64.1999 41.2118 68.5395 41.2118 73.9531C41.2118 79.3667 42.6263 83.7063 45.4554 86.9719C48.3019 90.2375 51.9866 91.8703 56.5095 91.8703C61.0325 91.8703 64.7085 90.2375 67.5375 86.9719C70.384 83.7063 71.8073 79.3667 71.8073 73.9531C71.8073 68.5395 70.384 64.1999 67.5375 60.9343C64.7085 57.6687 61.0325 56.0359 56.5095 56.0359C51.9866 56.0359 48.3019 57.6687 45.4554 60.9343ZM38.8805 65.0993C37.92 67.8061 37.4398 70.7573 37.4398 73.9531C37.4398 77.1489 37.92 80.1089 38.8805 82.8331C39.841 85.5399 41.1594 87.8276 42.8359 89.6961C44.5298 91.5647 46.5468 93.0229 48.8869 94.0706C51.2444 95.1184 53.7853 95.6423 56.5095 95.6423C59.2338 95.6423 61.766 95.1184 64.106 94.0706C66.4635 93.0229 68.4805 91.5647 70.157 89.6961C71.8509 87.8276 73.1781 85.5399 74.1386 82.8331C75.0991 80.1089 75.5793 77.1489 75.5793 73.9531C75.5793 70.7573 75.0991 67.8061 74.1386 65.0993C73.1781 62.375 71.8509 60.0786 70.157 58.2101C68.4805 56.3415 66.4635 54.8833 64.106 53.8355C61.766 52.7877 59.2338 52.2639 56.5095 52.2639C53.7853 52.2639 51.2444 52.7877 48.8869 53.8355C46.5468 54.8833 44.5298 56.3415 42.8359 58.2101C41.1594 60.0786 39.841 62.375 38.8805 65.0993ZM104.42 95.6423H102.534V89.0675H104.42V95.6423ZM108.192 95.6423H106.306V89.0675H108.192V95.6423ZM104.42 77.7513H102.534V70.2334H104.42V77.7513ZM108.192 77.7513H106.306V70.2334H108.192V77.7513ZM80.8706 80.5542V78.6681H111.047V80.5542H80.8706ZM80.8706 84.3262V82.4402H111.047V84.3262H80.8706ZM80.8706 88.0983V86.2122H111.047V88.0983H80.8706ZM92.5797 52.29L94.7539 52.2639L83.0186 77.7251H80.8183L92.5797 52.29ZM96.8756 52.29H98.9712L87.2884 77.7251H85.088L96.8756 52.29ZM101.093 52.29H103.241L91.6629 77.7251H89.4625L101.093 52.29ZM105.389 52.29L107.563 52.2639L96.1946 77.7251H93.9942L105.389 52.29Z" fill="#1B5196"/>
</svg>
