<svg viewBox="0 0 124 112" xmlns="http://www.w3.org/2000/svg">
<path d="M41.2044 11.0693V15.3465H46.2364V17.2964H41.2044V21.7623H46.8654V23.7122H38.8142V9.11941H46.8654V11.0693H41.2044ZM52.1996 13.8369C52.549 13.2498 53.0103 12.7956 53.5834 12.4741C54.1704 12.1386 54.8623 11.9709 55.659 11.9709V14.4449H55.051C54.1145 14.4449 53.4016 14.6825 52.9124 15.1578C52.4372 15.633 52.1996 16.4577 52.1996 17.6318V23.7122H49.8094V12.1596H52.1996V13.8369ZM60.2463 13.8369C60.5958 13.2498 61.057 12.7956 61.6301 12.4741C62.2172 12.1386 62.9091 11.9709 63.7058 11.9709V14.4449H63.0978C62.1613 14.4449 61.4484 14.6825 60.9592 15.1578C60.4839 15.633 60.2463 16.4577 60.2463 17.6318V23.7122H57.8561V12.1596H60.2463V13.8369ZM70.9139 23.9009C69.8236 23.9009 68.8382 23.6562 67.9576 23.167C67.077 22.6638 66.3851 21.9649 65.8819 21.0704C65.3787 20.1618 65.1271 19.1135 65.1271 17.9254C65.1271 16.7512 65.3857 15.7099 65.9029 14.8014C66.42 13.8928 67.1259 13.1939 68.0205 12.7047C68.9151 12.2155 69.9145 11.9709 71.0187 11.9709C72.123 11.9709 73.1224 12.2155 74.0169 12.7047C74.9115 13.1939 75.6174 13.8928 76.1346 14.8014C76.6517 15.7099 76.9103 16.7512 76.9103 17.9254C76.9103 19.0995 76.6448 20.1408 76.1136 21.0494C75.5824 21.958 74.8556 22.6638 73.9331 23.167C73.0245 23.6562 72.0181 23.9009 70.9139 23.9009ZM70.9139 21.8252C71.5289 21.8252 72.102 21.6784 72.6331 21.3849C73.1783 21.0913 73.6186 20.651 73.954 20.064C74.2895 19.4769 74.4572 18.764 74.4572 17.9254C74.4572 17.0867 74.2965 16.3808 73.975 15.8078C73.6535 15.2207 73.2272 14.7804 72.696 14.4869C72.1649 14.1933 71.5918 14.0466 70.9768 14.0466C70.3618 14.0466 69.7887 14.1933 69.2575 14.4869C68.7403 14.7804 68.328 15.2207 68.0205 15.8078C67.713 16.3808 67.5592 17.0867 67.5592 17.9254C67.5592 19.1694 67.8737 20.1339 68.5027 20.8188C69.1457 21.4897 69.9494 21.8252 70.9139 21.8252ZM81.6634 13.8369C82.0128 13.2498 82.4741 12.7956 83.0472 12.4741C83.6342 12.1386 84.3261 11.9709 85.1228 11.9709V14.4449H84.5148C83.5783 14.4449 82.8654 14.6825 82.3762 15.1578C81.901 15.633 81.6634 16.4577 81.6634 17.6318V23.7122H79.2732V12.1596H81.6634V13.8369Z" fill="#1B5196"/>
<path d="M30.4893 56.4299V58.2343H12.0701V75.7262H10.2657V58.2343H8.46142V75.7262H6.65709V58.2343H4.85276V75.7262H3.04843V56.4299H30.4893ZM30.4893 52.8213V54.6256H3.04843V52.8213H30.4893ZM30.4893 49.2126V51.0169H3.04843V49.2126H30.4893ZM16.7814 79.8611C20.0893 79.8611 21.7433 79.126 21.7433 77.6558C21.7433 76.8038 21.359 76.1856 20.5905 75.8014C19.822 75.4171 18.8447 75.225 17.6585 75.225C15.8207 75.225 14.3589 75.4422 13.273 75.8766V74.0722C14.7264 73.7214 16.1966 73.546 17.6835 73.546C18.7528 73.546 19.7051 73.6713 20.5404 73.9219C21.3924 74.1725 22.1025 74.6152 22.6705 75.2501C23.2552 75.8849 23.5476 76.6868 23.5476 77.6558C23.5476 78.9924 22.9127 79.9948 21.643 80.6631C20.39 81.3313 18.7695 81.6655 16.7814 81.6655C13.6906 81.6655 11.335 81.1643 9.71442 80.1619L11.1679 79.0592C12.2538 79.5938 14.125 79.8611 16.7814 79.8611ZM16.7814 83.4698C19.254 83.4698 21.3005 82.9602 22.9211 81.9411C24.5417 80.922 25.3519 79.4936 25.3519 77.6558C25.3519 75.7847 24.6502 74.3479 23.2469 73.3455C21.8435 72.3264 20.1394 71.8168 18.1346 71.8168C16.5976 71.8168 14.977 72.009 13.273 72.3932V70.4886C15.3279 70.238 16.9568 70.1127 18.1597 70.1127C20.6657 70.1127 22.7874 70.7894 24.5249 72.1426C26.2792 73.4792 27.1563 75.3169 27.1563 77.6558C27.1563 80.0115 26.1706 81.8743 24.1992 83.2442C22.2278 84.5975 19.7552 85.2741 16.7814 85.2741C12.5379 85.2741 9.24663 84.3218 6.90769 82.4173L8.33612 81.3146C10.3242 82.7514 13.1393 83.4698 16.7814 83.4698ZM16.7814 87.0784C20.2397 87.0784 23.1299 86.2264 25.4522 84.5223C27.7911 82.8015 28.9606 80.5127 28.9606 77.6558C28.9606 75.7179 28.4594 74.0305 27.457 72.5937C26.4713 71.1569 25.2016 70.096 23.6478 69.4111C22.0941 68.7261 20.3817 68.3836 18.5105 68.3836C16.6561 68.3836 14.9102 68.5256 13.273 68.8096V66.9802C15.2109 66.763 16.9735 66.6544 18.5606 66.6544C20.7826 66.6544 22.8209 67.1222 24.6753 68.0578C26.5465 68.9934 28.025 70.3049 29.1109 71.9923C30.2136 73.6796 30.7649 75.5675 30.7649 77.6558C30.7649 79.8778 30.1301 81.8576 28.8603 83.5951C27.6073 85.3159 25.92 86.6274 23.7982 87.5295C21.6932 88.4317 19.3542 88.8828 16.7814 88.8828C14.2085 88.8828 11.8195 88.5152 9.61418 87.7801C7.40889 87.045 5.5628 86.0092 4.0759 84.6727L5.47926 83.545C6.8158 84.681 8.46142 85.5581 10.4161 86.1763C12.3875 86.7777 14.5093 87.0784 16.7814 87.0784ZM16.7814 90.6871C18.9365 90.6871 20.9748 90.378 22.896 89.7599C24.834 89.125 26.5131 88.2479 27.9331 87.1286C29.3532 86.0092 30.4809 84.6309 31.3162 82.9936C32.1516 81.3564 32.5692 79.5771 32.5692 77.6558C32.5692 75.7513 32.185 73.9804 31.4165 72.3431C30.648 70.7058 29.6289 69.3526 28.3591 68.2834C27.0894 67.1974 25.6443 66.3537 24.0237 65.7523C22.4199 65.1508 20.7659 64.8501 19.0618 64.8501C18.1931 64.8501 17.4664 64.8752 16.8816 64.9253C16.2969 64.9587 15.637 65.0339 14.9019 65.1508C14.1668 65.2511 13.6238 65.3179 13.273 65.3513V63.4969C14.9102 63.263 16.8733 63.146 19.1621 63.146C21.1502 63.146 23.0631 63.4969 24.9009 64.1986C26.7386 64.8835 28.3591 65.8442 29.7625 67.0805C31.1659 68.3001 32.2852 69.8287 33.1206 71.6665C33.9559 73.5042 34.3736 75.5007 34.3736 77.6558C34.3736 79.8277 33.9058 81.8492 32.9702 83.7204C32.0513 85.5748 30.7983 87.1453 29.2112 88.4317C27.624 89.7014 25.7529 90.6955 23.5977 91.4138C21.4593 92.1322 19.1871 92.4914 16.7814 92.4914C13.6572 92.4914 10.7419 91.9986 8.03539 91.0129C5.34561 90.0439 3.0902 88.6823 1.26916 86.9281L2.72265 85.8505C4.37662 87.3875 6.42319 88.582 8.86238 89.4341C11.3183 90.2694 13.9579 90.6871 16.7814 90.6871ZM40.0121 81.7406C38.2746 78.299 37.4058 74.373 37.4058 69.9624C37.4058 65.5518 38.2746 61.6257 40.0121 58.1841C41.7496 54.7425 44.1387 52.0862 47.1793 50.215C50.2199 48.3439 53.6448 47.4083 57.4539 47.4083C61.2631 47.4083 64.688 48.3439 67.7286 50.215C70.7692 52.0862 73.1583 54.7425 74.8958 58.1841C76.6333 61.6257 77.502 65.5518 77.502 69.9624C77.502 74.373 76.6333 78.299 74.8958 81.7406C73.1583 85.1822 70.7692 87.8386 67.7286 89.7098C64.688 91.5809 61.2631 92.5165 57.4539 92.5165C53.6448 92.5165 50.2199 91.5809 47.1793 89.7098C44.1387 87.8386 41.7496 85.1822 40.0121 81.7406ZM64.17 61.3417C65.8407 63.3966 66.6761 66.2702 66.6761 69.9624C66.6761 73.6546 65.8407 76.5365 64.17 78.6081C62.5161 80.6631 60.2774 81.6905 57.4539 81.6905C54.6305 81.6905 52.3834 80.6631 50.7128 78.6081C49.0588 76.5365 48.2318 73.6546 48.2318 69.9624C48.2318 66.2702 49.0588 63.3966 50.7128 61.3417C52.3834 59.2701 54.6305 58.2343 57.4539 58.2343C60.2774 58.2343 62.5161 59.2701 64.17 61.3417ZM66.7262 58.7856C69.0985 61.5589 70.2847 65.2845 70.2847 69.9624C70.2847 74.6403 69.0985 78.3659 66.7262 81.1392C64.3705 83.9125 61.2798 85.2992 57.4539 85.2992C53.6281 85.2992 50.529 83.9125 48.1566 81.1392C45.801 78.3659 44.6232 74.6403 44.6232 69.9624C44.6232 65.2845 45.801 61.5589 48.1566 58.7856C50.529 56.0123 53.6281 54.6256 57.4539 54.6256C61.2798 54.6256 64.3705 56.0123 66.7262 58.7856ZM71.7633 60.0135C73.1833 62.8871 73.8934 66.2034 73.8934 69.9624C73.8934 73.7214 73.1833 77.046 71.7633 79.9363C70.3599 82.8099 68.4136 85.0235 65.9243 86.5772C63.435 88.131 60.6115 88.9078 57.4539 88.9078C54.2964 88.9078 51.4729 88.131 48.9836 86.5772C46.4943 85.0235 44.5396 82.8099 43.1196 79.9363C41.7162 77.046 41.0145 73.7214 41.0145 69.9624C41.0145 66.2034 41.7162 62.8871 43.1196 60.0135C44.5396 57.1233 46.4943 54.9013 48.9836 53.3475C51.4729 51.7938 54.2964 51.0169 57.4539 51.0169C60.6115 51.0169 63.435 51.7938 65.9243 53.3475C68.4136 54.9013 70.3599 57.1233 71.7633 60.0135ZM51.9908 62.5947C50.6877 64.2988 50.0361 66.7547 50.0361 69.9624C50.0361 73.1701 50.6877 75.626 51.9908 77.3301C53.3107 79.0341 55.1317 79.8862 57.4539 79.8862C59.7762 79.8862 61.5889 79.0341 62.892 77.3301C64.2118 75.626 64.8717 73.1701 64.8717 69.9624C64.8717 66.7547 64.2118 64.2988 62.892 62.5947C61.5889 60.8906 59.7762 60.0386 57.4539 60.0386C55.1317 60.0386 53.3107 60.8906 51.9908 62.5947ZM49.4347 60.0636C47.4299 62.4694 46.4275 65.769 46.4275 69.9624C46.4275 74.1558 47.4299 77.4637 49.4347 79.8862C51.4562 82.292 54.1293 83.4948 57.4539 83.4948C60.7786 83.4948 63.4433 82.292 65.4481 79.8862C67.4696 77.4637 68.4804 74.1558 68.4804 69.9624C68.4804 65.769 67.4696 62.4694 65.4481 60.0636C63.4433 57.6412 60.7786 56.4299 57.4539 56.4299C54.1293 56.4299 51.4562 57.6412 49.4347 60.0636ZM46.8786 57.5075C44.1721 60.6317 42.8188 64.7833 42.8188 69.9624C42.8188 75.1415 44.1721 79.2931 46.8786 82.4173C49.6018 85.5414 53.1269 87.1035 57.4539 87.1035C61.781 87.1035 65.2978 85.5414 68.0042 82.4173C70.7274 79.2931 72.089 75.1415 72.089 69.9624C72.089 64.7833 70.7274 60.6317 68.0042 57.5075C65.2978 54.3833 61.781 52.8213 57.4539 52.8213C53.1269 52.8213 49.6018 54.3833 46.8786 57.5075ZM40.5885 61.4921C39.6696 64.0816 39.2102 66.9051 39.2102 69.9624C39.2102 73.0197 39.6696 75.8515 40.5885 78.4578C41.5074 81.0473 42.7687 83.2359 44.3726 85.0235C45.9931 86.8111 47.9227 88.2061 50.1614 89.2086C52.4169 90.211 54.8477 90.7122 57.4539 90.7122C60.0602 90.7122 62.4827 90.211 64.7214 89.2086C66.9768 88.2061 68.9064 86.8111 70.5103 85.0235C72.1308 83.2359 73.4005 81.0473 74.3194 78.4578C75.2383 75.8515 75.6977 73.0197 75.6977 69.9624C75.6977 66.9051 75.2383 64.0816 74.3194 61.4921C73.4005 58.8858 72.1308 56.6889 70.5103 54.9013C68.9064 53.1136 66.9768 51.7186 64.7214 50.7162C62.4827 49.7138 60.0602 49.2126 57.4539 49.2126C54.8477 49.2126 52.4169 49.7138 50.1614 50.7162C47.9227 51.7186 45.9931 53.1136 44.3726 54.9013C42.7687 56.6889 41.5074 58.8858 40.5885 61.4921ZM83.316 81.7406C81.5785 78.299 80.7097 74.373 80.7097 69.9624C80.7097 65.5518 81.5785 61.6257 83.316 58.1841C85.0535 54.7425 87.4425 52.0862 90.4832 50.215C93.5238 48.3439 96.9487 47.4083 100.758 47.4083C104.567 47.4083 107.992 48.3439 111.032 50.215C114.073 52.0862 116.462 54.7425 118.2 58.1841C119.937 61.6257 120.806 65.5518 120.806 69.9624C120.806 74.373 119.937 78.299 118.2 81.7406C116.462 85.1822 114.073 87.8386 111.032 89.7098C107.992 91.5809 104.567 92.5165 100.758 92.5165C96.9487 92.5165 93.5238 91.5809 90.4832 89.7098C87.4425 87.8386 85.0535 85.1822 83.316 81.7406ZM107.474 61.3417C109.145 63.3966 109.98 66.2702 109.98 69.9624C109.98 73.6546 109.145 76.5365 107.474 78.6081C105.82 80.6631 103.581 81.6905 100.758 81.6905C97.9344 81.6905 95.6873 80.6631 94.0166 78.6081C92.3627 76.5365 91.5357 73.6546 91.5357 69.9624C91.5357 66.2702 92.3627 63.3966 94.0166 61.3417C95.6873 59.2701 97.9344 58.2343 100.758 58.2343C103.581 58.2343 105.82 59.2701 107.474 61.3417ZM110.03 58.7856C112.402 61.5589 113.589 65.2845 113.589 69.9624C113.589 74.6403 112.402 78.3659 110.03 81.1392C107.674 83.9125 104.584 85.2992 100.758 85.2992C96.932 85.2992 93.8329 83.9125 91.4605 81.1392C89.1049 78.3659 87.927 74.6403 87.927 69.9624C87.927 65.2845 89.1049 61.5589 91.4605 58.7856C93.8329 56.0123 96.932 54.6256 100.758 54.6256C104.584 54.6256 107.674 56.0123 110.03 58.7856ZM115.067 60.0135C116.487 62.8871 117.197 66.2034 117.197 69.9624C117.197 73.7214 116.487 77.046 115.067 79.9363C113.664 82.8099 111.717 85.0235 109.228 86.5772C106.739 88.131 103.915 88.9078 100.758 88.9078C97.6002 88.9078 94.7768 88.131 92.2875 86.5772C89.7982 85.0235 87.8435 82.8099 86.4234 79.9363C85.0201 77.046 84.3184 73.7214 84.3184 69.9624C84.3184 66.2034 85.0201 62.8871 86.4234 60.0135C87.8435 57.1233 89.7982 54.9013 92.2875 53.3475C94.7768 51.7938 97.6002 51.0169 100.758 51.0169C103.915 51.0169 106.739 51.7938 109.228 53.3475C111.717 54.9013 113.664 57.1233 115.067 60.0135ZM95.2947 62.5947C93.9916 64.2988 93.34 66.7547 93.34 69.9624C93.34 73.1701 93.9916 75.626 95.2947 77.3301C96.6145 79.0341 98.4356 79.8862 100.758 79.8862C103.08 79.8862 104.893 79.0341 106.196 77.3301C107.516 75.626 108.176 73.1701 108.176 69.9624C108.176 66.7547 107.516 64.2988 106.196 62.5947C104.893 60.8906 103.08 60.0386 100.758 60.0386C98.4356 60.0386 96.6145 60.8906 95.2947 62.5947ZM92.7386 60.0636C90.7338 62.4694 89.7314 65.769 89.7314 69.9624C89.7314 74.1558 90.7338 77.4637 92.7386 79.8862C94.7601 82.292 97.4332 83.4948 100.758 83.4948C104.082 83.4948 106.747 82.292 108.752 79.8862C110.774 77.4637 111.784 74.1558 111.784 69.9624C111.784 65.769 110.774 62.4694 108.752 60.0636C106.747 57.6412 104.082 56.4299 100.758 56.4299C97.4332 56.4299 94.7601 57.6412 92.7386 60.0636ZM90.1824 57.5075C87.4759 60.6317 86.1227 64.7833 86.1227 69.9624C86.1227 75.1415 87.4759 79.2931 90.1824 82.4173C92.9056 85.5414 96.4308 87.1035 100.758 87.1035C105.085 87.1035 108.602 85.5414 111.308 82.4173C114.031 79.2931 115.393 75.1415 115.393 69.9624C115.393 64.7833 114.031 60.6317 111.308 57.5075C108.602 54.3833 105.085 52.8213 100.758 52.8213C96.4308 52.8213 92.9056 54.3833 90.1824 57.5075ZM83.8924 61.4921C82.9735 64.0816 82.514 66.9051 82.514 69.9624C82.514 73.0197 82.9735 75.8515 83.8924 78.4578C84.8112 81.0473 86.0726 83.2359 87.6764 85.0235C89.297 86.8111 91.2266 88.2061 93.4653 89.2086C95.7207 90.211 98.1516 90.7122 100.758 90.7122C103.364 90.7122 105.787 90.211 108.025 89.2086C110.281 88.2061 112.21 86.8111 113.814 85.0235C115.435 83.2359 116.704 81.0473 117.623 78.4578C118.542 75.8515 119.002 73.0197 119.002 69.9624C119.002 66.9051 118.542 64.0816 117.623 61.4921C116.704 58.8858 115.435 56.6889 113.814 54.9013C112.21 53.1136 110.281 51.7186 108.025 50.7162C105.787 49.7138 103.364 49.2126 100.758 49.2126C98.1516 49.2126 95.7207 49.7138 93.4653 50.7162C91.2266 51.7186 89.297 53.1136 87.6764 54.9013C86.0726 56.6889 84.8112 58.8858 83.8924 61.4921Z" fill="#1B5196"/>
</svg>
