<svg width="68" height="68" viewBox="0 0 68 68" fill="none" xmlns="http://www.w3.org/2000/svg">
<g filter="url(#filter0_d_832_959)">
<rect x="4" width="60" height="60" rx="8" fill="#7BB6B2" shape-rendering="crispEdges"/>
<path d="M38.5 15H25C24.2044 15 23.4413 15.3161 22.8787 15.8787C22.3161 16.4413 22 17.2044 22 18V42C22 42.7956 22.3161 43.5587 22.8787 44.1213C23.4413 44.6839 24.2044 45 25 45H43C43.7956 45 44.5587 44.6839 45.1213 44.1213C45.6839 43.5587 46 42.7956 46 42V22.5L38.5 15Z" stroke="#222121" stroke-width="3" stroke-linecap="round" stroke-linejoin="round"/>
<path d="M37 15V21C37 21.7956 37.3161 22.5587 37.8787 23.1213C38.4413 23.6839 39.2044 24 40 24H46M31 25.5H28M40 31.5H28M40 37.5H28" stroke="#222121" stroke-width="3" stroke-linecap="round" stroke-linejoin="round"/>
</g>
<defs>
<filter id="filter0_d_832_959" x="0" y="0" width="68" height="68" filterUnits="userSpaceOnUse" color-interpolation-filters="sRGB">
<feFlood flood-opacity="0" result="BackgroundImageFix"/>
<feColorMatrix in="SourceAlpha" type="matrix" values="0 0 0 0 0 0 0 0 0 0 0 0 0 0 0 0 0 0 127 0" result="hardAlpha"/>
<feOffset dy="4"/>
<feGaussianBlur stdDeviation="2"/>
<feComposite in2="hardAlpha" operator="out"/>
<feColorMatrix type="matrix" values="0 0 0 0 0 0 0 0 0 0 0 0 0 0 0 0 0 0 0.25 0"/>
<feBlend mode="normal" in2="BackgroundImageFix" result="effect1_dropShadow_832_959"/>
<feBlend mode="normal" in="SourceGraphic" in2="effect1_dropShadow_832_959" result="shape"/>
</filter>
</defs>
</svg>
