<svg  viewBox="0 0 40 41"  xmlns="http://www.w3.org/2000/svg">
<path d="M37.5 10.2644C37.5 8.93833 36.9732 7.66656 36.0355 6.72888C35.0979 5.7912 33.8261 5.26441 32.5 5.26441H31.25V4.04957C31.25 3.37691 30.7328 2.79957 30.0602 2.76597C29.8911 2.75783 29.7222 2.78409 29.5637 2.84315C29.4051 2.90221 29.2602 2.99286 29.1377 3.10959C29.0152 3.22631 28.9177 3.3667 28.851 3.52223C28.7844 3.67776 28.75 3.8452 28.75 4.01441V5.26441H11.25V4.04957C11.25 3.37691 10.7328 2.79957 10.0602 2.76597C9.89114 2.75783 9.72224 2.78409 9.56367 2.84315C9.40511 2.90221 9.26019 2.99286 9.13769 3.10959C9.01519 3.22631 8.91767 3.3667 8.85103 3.52223C8.78438 3.67776 8.75002 3.8452 8.75 4.01441V5.26441H7.5C6.17392 5.26441 4.90215 5.7912 3.96447 6.72888C3.02678 7.66656 2.5 8.93833 2.5 10.2644V11.2019C2.5 11.2848 2.53292 11.3643 2.59153 11.4229C2.65013 11.4815 2.72962 11.5144 2.8125 11.5144H37.1875C37.2704 11.5144 37.3499 11.4815 37.4085 11.4229C37.4671 11.3643 37.5 11.2848 37.5 11.2019V10.2644ZM2.5 32.7644C2.5 34.0905 3.02678 35.3623 3.96447 36.2999C4.90215 37.2376 6.17392 37.7644 7.5 37.7644H32.5C33.8261 37.7644 35.0979 37.2376 36.0355 36.2999C36.9732 35.3623 37.5 34.0905 37.5 32.7644V14.2488C37.5 14.1866 37.4753 14.127 37.4314 14.0831C37.3874 14.0391 37.3278 14.0144 37.2656 14.0144H2.73438C2.67221 14.0144 2.6126 14.0391 2.56865 14.0831C2.52469 14.127 2.5 14.1866 2.5 14.2488V32.7644ZM29.375 16.5144C29.7458 16.5144 30.1084 16.6244 30.4167 16.8304C30.725 17.0364 30.9654 17.3293 31.1073 17.6719C31.2492 18.0145 31.2863 18.3915 31.214 18.7552C31.1416 19.1189 30.963 19.453 30.7008 19.7152C30.4386 19.9775 30.1045 20.156 29.7408 20.2284C29.3771 20.3007 29.0001 20.2636 28.6575 20.1217C28.3149 19.9798 28.022 19.7394 27.816 19.4311C27.61 19.1228 27.5 18.7603 27.5 18.3894C27.5 17.8921 27.6975 17.4152 28.0492 17.0636C28.4008 16.712 28.8777 16.5144 29.375 16.5144ZM29.375 22.7644C29.7458 22.7644 30.1084 22.8744 30.4167 23.0804C30.725 23.2864 30.9654 23.5793 31.1073 23.9219C31.2492 24.2645 31.2863 24.6415 31.214 25.0052C31.1416 25.3689 30.963 25.703 30.7008 25.9652C30.4386 26.2275 30.1045 26.406 29.7408 26.4784C29.3771 26.5507 29.0001 26.5136 28.6575 26.3717C28.3149 26.2298 28.022 25.9894 27.816 25.6811C27.61 25.3728 27.5 25.0103 27.5 24.6394C27.5 24.1421 27.6975 23.6652 28.0492 23.3136C28.4008 22.962 28.8777 22.7644 29.375 22.7644ZM23.125 16.5144C23.4958 16.5144 23.8584 16.6244 24.1667 16.8304C24.475 17.0364 24.7154 17.3293 24.8573 17.6719C24.9992 18.0145 25.0363 18.3915 24.964 18.7552C24.8916 19.1189 24.713 19.453 24.4508 19.7152C24.1886 19.9775 23.8545 20.156 23.4908 20.2284C23.1271 20.3007 22.7501 20.2636 22.4075 20.1217C22.0649 19.9798 21.772 19.7394 21.566 19.4311C21.36 19.1228 21.25 18.7603 21.25 18.3894C21.25 17.8921 21.4475 17.4152 21.7992 17.0636C22.1508 16.712 22.6277 16.5144 23.125 16.5144ZM23.125 22.7644C23.4958 22.7644 23.8584 22.8744 24.1667 23.0804C24.475 23.2864 24.7154 23.5793 24.8573 23.9219C24.9992 24.2645 25.0363 24.6415 24.964 25.0052C24.8916 25.3689 24.713 25.703 24.4508 25.9652C24.1886 26.2275 23.8545 26.406 23.4908 26.4784C23.1271 26.5507 22.7501 26.5136 22.4075 26.3717C22.0649 26.2298 21.772 25.9894 21.566 25.6811C21.36 25.3728 21.25 25.0103 21.25 24.6394C21.25 24.1421 21.4475 23.6652 21.7992 23.3136C22.1508 22.962 22.6277 22.7644 23.125 22.7644ZM23.125 29.0144C23.4958 29.0144 23.8584 29.1244 24.1667 29.3304C24.475 29.5364 24.7154 29.8293 24.8573 30.1719C24.9992 30.5145 25.0363 30.8915 24.964 31.2552C24.8916 31.6189 24.713 31.953 24.4508 32.2152C24.1886 32.4775 23.8545 32.656 23.4908 32.7284C23.1271 32.8007 22.7501 32.7636 22.4075 32.6217C22.0649 32.4798 21.772 32.2394 21.566 31.9311C21.36 31.6228 21.25 31.2603 21.25 30.8894C21.25 30.3921 21.4475 29.9152 21.7992 29.5636C22.1508 29.212 22.6277 29.0144 23.125 29.0144ZM16.875 22.7644C17.2458 22.7644 17.6084 22.8744 17.9167 23.0804C18.225 23.2864 18.4654 23.5793 18.6073 23.9219C18.7492 24.2645 18.7863 24.6415 18.714 25.0052C18.6416 25.3689 18.463 25.703 18.2008 25.9652C17.9386 26.2275 17.6045 26.406 17.2408 26.4784C16.8771 26.5507 16.5001 26.5136 16.1575 26.3717C15.8149 26.2298 15.522 25.9894 15.316 25.6811C15.11 25.3728 15 25.0103 15 24.6394C15 24.1421 15.1975 23.6652 15.5492 23.3136C15.9008 22.962 16.3777 22.7644 16.875 22.7644ZM16.875 29.0144C17.2458 29.0144 17.6084 29.1244 17.9167 29.3304C18.225 29.5364 18.4654 29.8293 18.6073 30.1719C18.7492 30.5145 18.7863 30.8915 18.714 31.2552C18.6416 31.6189 18.463 31.953 18.2008 32.2152C17.9386 32.4775 17.6045 32.656 17.2408 32.7284C16.8771 32.8007 16.5001 32.7636 16.1575 32.6217C15.8149 32.4798 15.522 32.2394 15.316 31.9311C15.11 31.6228 15 31.2603 15 30.8894C15 30.3921 15.1975 29.9152 15.5492 29.5636C15.9008 29.212 16.3777 29.0144 16.875 29.0144ZM10.625 22.7644C10.9958 22.7644 11.3584 22.8744 11.6667 23.0804C11.975 23.2864 12.2154 23.5793 12.3573 23.9219C12.4992 24.2645 12.5363 24.6415 12.464 25.0052C12.3916 25.3689 12.213 25.703 11.9508 25.9652C11.6886 26.2275 11.3545 26.406 10.9908 26.4784C10.6271 26.5507 10.2501 26.5136 9.90747 26.3717C9.56486 26.2298 9.27202 25.9894 9.06599 25.6811C8.85997 25.3728 8.75 25.0103 8.75 24.6394C8.75 24.1421 8.94754 23.6652 9.29917 23.3136C9.65081 22.962 10.1277 22.7644 10.625 22.7644ZM10.625 29.0144C10.9958 29.0144 11.3584 29.1244 11.6667 29.3304C11.975 29.5364 12.2154 29.8293 12.3573 30.1719C12.4992 30.5145 12.5363 30.8915 12.464 31.2552C12.3916 31.6189 12.213 31.953 11.9508 32.2152C11.6886 32.4775 11.3545 32.656 10.9908 32.7284C10.6271 32.8007 10.2501 32.7636 9.90747 32.6217C9.56486 32.4798 9.27202 32.2394 9.06599 31.9311C8.85997 31.6228 8.75 31.2603 8.75 30.8894C8.75 30.3921 8.94754 29.9152 9.29917 29.5636C9.65081 29.212 10.1277 29.0144 10.625 29.0144Z" fill="#F9F9F9"/>
</svg>
