<svg  viewBox="0 0 40 41" xmlns="http://www.w3.org/2000/svg">
<path d="M4 20.7606C4.00083 17.1432 5.19045 13.6262 7.38577 10.7511C9.5811 7.8759 12.6605 5.80186 16.1499 4.84816C19.6394 3.89445 23.3456 4.11393 26.6981 5.47281C30.0507 6.8317 32.8637 9.25467 34.7044 12.3688C36.545 15.483 37.3112 19.1158 36.8851 22.708C36.459 26.3003 34.8641 29.653 32.346 32.2501C29.8279 34.8472 26.526 36.5448 22.9486 37.0817C19.3712 37.6185 15.7165 36.9648 12.547 35.2212L6.1318 37.1748C5.84566 37.262 5.54121 37.2697 5.25101 37.1972C4.96081 37.1247 4.69578 36.9747 4.48427 36.7631C4.27276 36.5516 4.12272 36.2866 4.05021 35.9964C3.9777 35.7062 3.98544 35.4018 4.0726 35.1156L6.0262 28.6905C4.69552 26.2593 3.99869 23.5321 4 20.7606ZM13.9 19.1106C13.9 19.5482 14.0738 19.9679 14.3833 20.2773C14.6927 20.5868 15.1124 20.7606 15.55 20.7606H25.45C25.8876 20.7606 26.3073 20.5868 26.6167 20.2773C26.9261 19.9679 27.1 19.5482 27.1 19.1106C27.1 18.673 26.9261 18.2533 26.6167 17.9439C26.3073 17.6345 25.8876 17.4606 25.45 17.4606H15.55C15.1124 17.4606 14.6927 17.6345 14.3833 17.9439C14.0738 18.2533 13.9 18.673 13.9 19.1106ZM15.55 24.0606C15.1124 24.0606 14.6927 24.2345 14.3833 24.5439C14.0738 24.8533 13.9 25.273 13.9 25.7106C13.9 26.1482 14.0738 26.5679 14.3833 26.8773C14.6927 27.1868 15.1124 27.3606 15.55 27.3606H22.15C22.5876 27.3606 23.0073 27.1868 23.3167 26.8773C23.6261 26.5679 23.8 26.1482 23.8 25.7106C23.8 25.273 23.6261 24.8533 23.3167 24.5439C23.0073 24.2345 22.5876 24.0606 22.15 24.0606H15.55Z" fill="#FAFAFA"/>
</svg>
