<svg  viewBox="0 0 24 24"  xmlns="http://www.w3.org/2000/svg">
<path d="M1.35205e-06 11.9973C0.000603217 9.36637 0.86578 6.80859 2.46238 4.71757C4.05898 2.62654 6.29851 1.11815 8.83632 0.424549C11.3741 -0.269056 14.0695 -0.109436 16.5077 0.878843C18.9459 1.86712 20.9918 3.62929 22.3304 5.89414C23.6691 8.15899 24.2263 10.801 23.9164 13.4136C23.6065 16.0261 22.4466 18.4644 20.6153 20.3533C18.7839 22.2421 16.3826 23.4767 13.7808 23.8671C11.1791 24.2575 8.5211 23.7821 6.216 22.514L1.5504 23.9348C1.3423 23.9982 1.12088 24.0039 0.909824 23.9511C0.69877 23.8984 0.506021 23.7893 0.352195 23.6354C0.198369 23.4816 0.0892524 23.2889 0.0365166 23.0778C-0.0162193 22.8668 -0.0105904 22.6453 0.0528012 22.4372L1.4736 17.7644C0.505835 15.9963 -0.000955364 14.0129 1.35205e-06 11.9973ZM7.2 10.7973C7.2 11.1155 7.32642 11.4207 7.55147 11.6458C7.77651 11.8708 8.08174 11.9973 8.4 11.9973H15.6C15.9183 11.9973 16.2235 11.8708 16.4485 11.6458C16.6736 11.4207 16.8 11.1155 16.8 10.7973C16.8 10.479 16.6736 10.1738 16.4485 9.94872C16.2235 9.72368 15.9183 9.59725 15.6 9.59725H8.4C8.08174 9.59725 7.77651 9.72368 7.55147 9.94872C7.32642 10.1738 7.2 10.479 7.2 10.7973ZM8.4 14.3972C8.08174 14.3972 7.77651 14.5237 7.55147 14.7487C7.32642 14.9738 7.2 15.279 7.2 15.5972C7.2 15.9155 7.32642 16.2207 7.55147 16.4458C7.77651 16.6708 8.08174 16.7972 8.4 16.7972H13.2C13.5183 16.7972 13.8235 16.6708 14.0485 16.4458C14.2736 16.2207 14.4 15.9155 14.4 15.5972C14.4 15.279 14.2736 14.9738 14.0485 14.7487C13.8235 14.5237 13.5183 14.3972 13.2 14.3972H8.4Z" fill="#222121"/>
</svg>
