<svg  viewBox="0 0 24 24" xmlns="http://www.w3.org/2000/svg">
<path d="M1.50345 17.8359L0 24L6.16413 22.4966L19.9958 8.66485L15.3351 4.00417L1.50345 17.8359ZM2.25517 22.4966L1.65379 21.7448L2.25517 18.7379L5.26206 21.7448L2.25517 22.4966ZM16.3876 6.56003L4.20965 18.5876L3.30758 17.6855L15.4855 5.65796L16.3876 6.56003ZM23.0027 0.997276C21.3489 -0.656514 19.0938 0.245553 19.0938 0.245553L16.8386 2.50072L21.4993 7.16141L23.7544 4.90624C23.7544 4.75589 24.6565 2.65107 23.0027 0.997276ZM20.1462 2.35038L19.3945 1.59865C20.2965 0.696587 21.0482 1.44831 21.0482 1.44831L20.1462 2.35038Z" fill="#222121"/>
</svg>
