<svg  viewBox="0 0 40 41" xmlns="http://www.w3.org/2000/svg">
<g clip-path="url(#clip0_1027_738)">
<path d="M36.6666 21.3755C36.5204 21.3763 36.3754 21.3483 36.2401 21.293C36.1047 21.2377 35.9816 21.1562 35.8777 21.0533L20 5.16437L4.12217 21.0533C3.90961 21.2353 3.6362 21.3304 3.35656 21.3196C3.07692 21.3088 2.81165 21.1929 2.61377 20.995C2.41588 20.7971 2.29996 20.5319 2.28916 20.2522C2.27836 19.9726 2.37348 19.6992 2.5555 19.4866L19.2222 2.81993C19.4304 2.61298 19.712 2.49683 20.0055 2.49683C20.299 2.49683 20.5807 2.61298 20.7888 2.81993L37.4555 19.4866C37.6084 19.6426 37.7119 19.8402 37.7532 20.0547C37.7944 20.2692 37.7715 20.491 37.6873 20.6926C37.6031 20.8941 37.4614 21.0664 37.2799 21.1879C37.0983 21.3093 36.885 21.3746 36.6666 21.3755Z" fill="#FAFAFA"/>
<path d="M20.0001 8.91992L6.66675 22.2977V35.8199C6.66675 36.4093 6.90087 36.9745 7.31762 37.3913C7.73437 37.808 8.2996 38.0421 8.88897 38.0421H16.6667V26.931H23.3334V38.0421H31.1112C31.7006 38.0421 32.2658 37.808 32.6825 37.3913C33.0993 36.9745 33.3334 36.4093 33.3334 35.8199V22.2199L20.0001 8.91992Z" fill="#FAFAFA"/>
</g>
<defs>
<clipPath id="clip0_1027_738">
<rect width="40" height="40" fill="white" transform="translate(0 0.264404)"/>
</clipPath>
</defs>
</svg>
