<svg width="60" height="61" viewBox="0 0 60 61" fill="none" xmlns="http://www.w3.org/2000/svg">
<path d="M31.502 5.50132C31.3336 5.4925 31.1658 5.52808 31.0155 5.60451C30.8652 5.68094 30.7376 5.79553 30.6455 5.9368C28.1673 9.68287 28.0952 13.1258 28.0952 13.1763C28.0963 13.4627 28.1613 13.7453 28.2855 14.0034C28.4098 14.2615 28.59 14.4886 28.8132 14.6682C29.0363 14.8478 29.2967 14.9753 29.5754 15.0415C29.8541 15.1076 30.1441 15.1107 30.4241 15.0506C30.8612 14.9459 31.2498 14.6957 31.5261 14.3412C31.8023 13.9867 31.95 13.5488 31.9447 13.0993C31.9539 12.8361 32.017 12.5775 32.1302 12.3396C32.2434 12.1017 32.4042 11.8896 32.6027 11.7164C32.8011 11.5432 33.0331 11.4125 33.2841 11.3326C33.5351 11.2526 33.7998 11.225 34.0619 11.2516C34.545 11.3076 34.9899 11.5414 35.3101 11.9074C35.6303 12.2734 35.8028 12.7454 35.7942 13.2317C35.7856 14.7631 35.169 16.2284 34.08 17.3052C32.991 18.382 31.5189 18.9821 29.9874 18.9735C28.456 18.9648 26.9907 18.3482 25.9139 17.2592C24.8371 16.1703 24.237 14.6981 24.2456 13.1667C24.2456 13.0151 24.2673 10.5731 25.5545 7.3924C25.6197 7.22964 25.6391 7.05216 25.6108 6.87913C25.5825 6.7061 25.5075 6.5441 25.3938 6.41061C25.2801 6.27712 25.1321 6.17723 24.9658 6.12171C24.7995 6.06619 24.6212 6.05716 24.4501 6.09559C18.779 7.39828 13.7379 10.6339 10.1917 15.2473C6.64545 19.8607 4.81518 25.5643 5.01483 31.3798C5.47917 44.627 16.3613 55.2805 29.6157 55.4971C36.1541 55.5972 42.472 53.1338 47.2168 48.6341C51.9617 44.1344 54.7565 37.956 55.0031 31.4214C55.2496 24.8869 52.9283 18.5155 48.536 13.671C44.1436 8.8266 38.0294 5.89412 31.502 5.50132ZM18.4713 30.4775C18.4713 29.9065 18.6407 29.3483 18.9579 28.8735C19.2751 28.3987 19.7261 28.0287 20.2536 27.8102C20.7812 27.5916 21.3617 27.5345 21.9217 27.6459C22.4818 27.7573 22.9962 28.0322 23.4 28.436C23.8038 28.8398 24.0787 29.3542 24.1901 29.9143C24.3015 30.4743 24.2444 31.0548 24.0259 31.5824C23.8073 32.11 23.4373 32.5609 22.9625 32.8781C22.4877 33.1954 21.9295 33.3647 21.3585 33.3647C20.5928 33.3647 19.8584 33.0605 19.317 32.5191C18.7755 31.9776 18.4713 31.2433 18.4713 30.4775ZM37.7839 43.6549C35.4546 45.107 32.7648 45.8768 30.0199 45.8768C27.2751 45.8768 24.5852 45.107 22.2559 43.6549C21.8239 43.3825 21.5178 42.9496 21.405 42.4514C21.2922 41.9533 21.3819 41.4308 21.6544 40.9988C21.9269 40.5668 22.3598 40.2607 22.8579 40.1479C23.3561 40.0351 23.8786 40.1248 24.3106 40.3973C26.0249 41.4612 28.0023 42.025 30.0199 42.025C32.0375 42.025 34.015 41.4612 35.7292 40.3973C35.9431 40.2624 36.1815 40.1709 36.4308 40.1281C36.68 40.0853 36.9353 40.0921 37.1819 40.1479C37.4286 40.2038 37.6618 40.3077 37.8683 40.4537C38.0748 40.5996 38.2505 40.7849 38.3854 40.9988C38.5203 41.2127 38.6118 41.4511 38.6546 41.7003C38.6974 41.9496 38.6906 42.2048 38.6348 42.4514C38.5789 42.6981 38.4751 42.9313 38.3291 43.1378C38.1831 43.3443 37.9978 43.52 37.7839 43.6549ZM38.6814 33.3647C38.1103 33.3647 37.5521 33.1954 37.0773 32.8781C36.6026 32.5609 36.2325 32.11 36.014 31.5824C35.7955 31.0548 35.7383 30.4743 35.8497 29.9143C35.9611 29.3542 36.2361 28.8398 36.6398 28.436C37.0436 28.0322 37.5581 27.7573 38.1181 27.6459C38.6782 27.5345 39.2587 27.5916 39.7862 27.8102C40.3138 28.0287 40.7647 28.3987 41.0819 28.8735C41.3992 29.3483 41.5685 29.9065 41.5685 30.4775C41.5685 31.2433 41.2643 31.9776 40.7229 32.5191C40.1814 33.0605 39.4471 33.3647 38.6814 33.3647Z" fill="#FAFAFA"/>
</svg>
