<svg width="60" height="61" viewBox="0 0 60 61" fill="none" xmlns="http://www.w3.org/2000/svg">
<path fill-rule="evenodd" clip-rule="evenodd" d="M26.3392 9.24787C26.015 9.06722 25.7489 9.03174 25.4198 9.14464C25.3599 9.16483 25.3012 9.18853 25.244 9.21561L25.2392 9.22045L25.2166 9.23335L25.1214 9.28658L25.1005 9.29787C24.8795 9.44949 24.7682 9.66562 24.6924 10.0011C24.5601 10.5995 24.6134 11.4092 24.7634 12.356C24.9295 13.4076 25.4892 14.9012 26.286 15.8964C26.6747 16.3851 27.0344 16.6448 27.3215 16.7513C27.5521 16.8384 27.8263 16.8642 28.2376 16.6738C28.8118 16.4029 29.2183 15.7432 29.0505 14.2448C28.8892 12.7834 28.2038 11.235 27.5892 10.4398C27.1473 9.86563 26.7247 9.46239 26.3392 9.24626M23.2811 6.23813C23.58 6.04995 23.9171 5.89081 24.2924 5.7607C27.2182 4.75584 29.3167 6.88653 30.3586 8.23495C31.3829 9.56078 32.3119 11.735 32.5474 13.8415C32.7055 15.2625 32.5619 17.0077 31.5974 18.3642C34.3878 18.2997 36.6459 18.5803 38.7991 18.8545L38.8749 18.8642C41.2185 19.161 43.4444 19.4432 46.2961 19.3368C47.6138 19.2884 48.7348 19.0239 49.9639 18.7368C50.2994 18.6551 50.6462 18.5755 51.0042 18.4981C52.6075 18.1464 54.4237 17.8642 56.4592 18.4626C57.1479 18.6658 57.7705 19.0319 58.2431 19.5965C58.7108 20.1594 58.9383 20.8062 59.0238 21.4191C59.1834 22.5707 58.8625 23.7708 58.5076 24.7159C57.7753 26.6644 56.4914 28.5773 56.0237 29.2338C54.414 31.5032 52.522 32.7935 50.4768 33.4597C48.4897 34.1097 46.4509 34.1387 44.6154 34.0758C44.0958 34.0563 43.5765 34.0326 43.0573 34.0048C41.7782 33.9403 40.6218 33.8823 39.4669 33.9661C38.968 33.9995 38.4932 34.0645 38.0427 34.1613C38.1749 34.1968 38.3077 34.235 38.4411 34.2758C41.5169 35.2275 44.217 37.5743 46.7445 40.6534C47.1283 41.0437 47.43 41.4647 47.6574 41.9566C47.888 42.4566 48.0058 42.9566 48.0897 43.4179C48.3316 44.7228 47.9606 46.0261 47.4251 47.0874C46.8524 48.1977 46.0797 49.1928 45.146 50.0229C44.2331 50.8423 43.1234 51.5439 41.9363 51.8778C40.7314 52.2165 39.3201 52.2036 38.0685 51.3617C37.4039 50.9149 37.0039 50.2068 36.8265 49.8681C36.7581 49.7386 36.694 49.6068 36.6346 49.4729C35.7346 48.5681 35.162 48.1261 34.6894 47.9084C34.3668 47.7632 34.0216 47.689 33.4797 47.76L33.1522 48.0745C32.7038 48.5019 32.0716 49.0858 31.3328 49.7229C29.8893 50.9633 27.907 52.5133 26.0521 53.3811C22.3069 55.1327 18.51 55.9134 14.8841 55.2843C11.2227 54.6504 7.92913 52.6149 5.17746 49.0987C-1.72591 40.2759 0.783816 27.6305 6.50329 19.6029C8.9598 16.1545 13.305 12.7576 16.8696 10.2931C18.952 8.85673 21.0909 7.50402 23.2811 6.23813ZM31.3893 44.8406L31.749 44.476L32.2458 44.3615C33.6168 44.047 34.8684 44.076 36.1329 44.6535C36.3179 44.7373 36.4996 44.8314 36.6781 44.9357C36.9797 44.2615 37.4298 43.618 37.8975 43.0647C38.5524 42.2905 39.3766 41.5357 40.2605 40.9276C40.6395 40.6663 41.0508 40.4179 41.4831 40.205C40.0814 38.9308 38.7378 38.1017 37.4168 37.692C35.4039 37.071 33.1587 37.3436 30.3715 39.1275L30.3522 39.1404L22.3681 43.9793L22.1536 44.0438L22.1456 44.047L22.123 44.0534L22.0456 44.076L21.7746 44.1502C21.5488 44.2099 21.2359 44.2873 20.8746 44.3615C20.2036 44.5002 19.1907 44.6647 18.2906 44.5809C17.1713 44.476 16.1132 44.2518 15.118 43.7567C14.1083 43.2534 13.268 42.5276 12.505 41.5647C10.955 39.6082 10.7792 37.8114 10.7453 35.7646C10.7114 33.8129 11.126 32.2322 11.9147 30.7838C12.6728 29.3967 13.7454 28.187 14.8857 26.9644C17.1567 24.5272 20.7213 21.8191 23.5004 19.8465C23.5972 19.7712 23.6983 19.6997 23.8037 19.632C24.0434 19.4621 24.2779 19.2981 24.5069 19.14C24.1577 18.8393 23.838 18.5061 23.552 18.1448C22.3004 16.5787 21.5343 14.4722 21.2891 12.9189C21.2326 12.5608 21.1762 12.1528 21.1391 11.7157C20.4246 12.177 19.652 12.6899 18.8519 13.2431C15.3132 15.6899 11.4228 18.7916 9.35497 21.6949C4.14034 29.0128 2.39353 39.7985 7.93397 46.8777C10.2211 49.7987 12.7808 51.2971 15.4761 51.7649C18.2068 52.2375 21.2713 51.6843 24.5779 50.1374C25.9763 49.4842 27.6537 48.2052 29.057 46.9971C29.8016 46.3563 30.5251 45.6914 31.2264 45.0035L31.3522 44.8793L31.3829 44.8486L31.3893 44.8406ZM39.8379 47.9906C39.8637 48.053 39.8959 48.1202 39.9346 48.1922C39.9884 48.2922 40.0341 48.3686 40.0717 48.4213C40.2492 48.5164 40.5266 48.5681 40.9943 48.4374C41.5347 48.2842 42.1847 47.9132 42.817 47.3471C43.4428 46.7858 43.9638 46.1116 44.2912 45.4632C44.6299 44.7873 44.6751 44.3147 44.6299 44.076C44.6009 43.8686 44.5467 43.6655 44.4686 43.4712C44.4064 43.3465 44.3216 43.2344 44.2186 43.1405C44.2057 43.1276 44.2025 43.1244 44.1751 43.1179C44.0626 43.0977 43.9472 43.1015 43.8363 43.1292C43.4331 43.2018 42.8718 43.4454 42.2347 43.8825C41.6153 44.3099 41.025 44.8502 40.5685 45.3906C40.083 45.9648 39.8717 46.3906 39.8233 46.568C39.7846 46.7132 39.7653 47.0551 39.7911 47.5035C39.804 47.6938 39.8234 47.8664 39.8379 47.9906Z" fill="#FAFAFA"/>
</svg>
