<svg viewBox="0 0 40 40"  xmlns="http://www.w3.org/2000/svg">
<path d="M4 20.4962C4.00083 16.8788 5.19045 13.3618 7.38577 10.4867C9.5811 7.61149 12.6605 5.53746 16.1499 4.58375C19.6394 3.63005 23.3456 3.84953 26.6981 5.20841C30.0507 6.56729 32.8637 8.99027 34.7044 12.1044C36.545 15.2186 37.3112 18.8514 36.8851 22.4436C36.459 26.0359 34.8641 29.3886 32.346 31.9857C29.8279 34.5828 26.526 36.2804 22.9486 36.8173C19.3712 37.3541 15.7165 36.7004 12.547 34.9568L6.1318 36.9104C5.84566 36.9976 5.54121 37.0053 5.25101 36.9328C4.96081 36.8603 4.69578 36.7103 4.48427 36.4987C4.27276 36.2872 4.12272 36.0222 4.05021 35.732C3.9777 35.4418 3.98544 35.1373 4.0726 34.8512L6.0262 28.4261C4.69552 25.9949 3.99869 23.2677 4 20.4962ZM13.9 18.8462C13.9 19.2838 14.0738 19.7035 14.3833 20.0129C14.6927 20.3224 15.1124 20.4962 15.55 20.4962H25.45C25.8876 20.4962 26.3073 20.3224 26.6167 20.0129C26.9261 19.7035 27.1 19.2838 27.1 18.8462C27.1 18.4086 26.9261 17.9889 26.6167 17.6795C26.3073 17.3701 25.8876 17.1962 25.45 17.1962H15.55C15.1124 17.1962 14.6927 17.3701 14.3833 17.6795C14.0738 17.9889 13.9 18.4086 13.9 18.8462ZM15.55 23.7962C15.1124 23.7962 14.6927 23.9701 14.3833 24.2795C14.0738 24.5889 13.9 25.0086 13.9 25.4462C13.9 25.8838 14.0738 26.3035 14.3833 26.6129C14.6927 26.9224 15.1124 27.0962 15.55 27.0962H22.15C22.5876 27.0962 23.0073 26.9224 23.3167 26.6129C23.6261 26.3035 23.8 25.8838 23.8 25.4462C23.8 25.0086 23.6261 24.5889 23.3167 24.2795C23.0073 23.9701 22.5876 23.7962 22.15 23.7962H15.55Z" fill="#FAFAFA"/>
</svg>
