<svg width="60" height="61" viewBox="0 0 60 61" fill="none" xmlns="http://www.w3.org/2000/svg">
<path d="M40.838 21.7162C39.5907 29.8243 36.7839 37.2568 30.7029 37.2568C24.6218 37.2568 22.5947 30.5 20.5677 21.7162C18.5407 12.9324 20.5677 5.5 30.7029 5.5C40.838 5.5 42.0853 13.6081 40.838 21.7162Z" fill="#FAFAFA" stroke="#FAFAFA" stroke-width="3.6036"/>
<path d="M41.5136 14.2837C43.8785 12.0783 46.288 11.3513 50.0812 11.5864C55.7731 11.9405 57.0542 15.8351 57.0542 21.6567M57.0542 21.6567C57.0542 27.4797 54.8231 32.7743 50.3771 31.5756C45.9312 30.3783 46.5528 25.6486 48.6326 23.431C50.7109 21.2135 54.3488 20.3094 57.0542 21.6567ZM19.892 13.6081C17.5001 11.5216 14.6758 11.3513 11.2258 11.5878C6.05012 11.9418 3.00012 15.8945 3.00012 21.7162M3.00012 21.7162C3.00012 27.5378 6.91499 32.7729 10.9569 31.5756C15.0001 30.377 14.4353 25.6472 12.5447 23.4297C10.6528 21.2135 5.46093 20.3675 3.00012 21.7162Z" stroke="#FAFAFA" stroke-width="3.6036" stroke-linecap="round"/>
<path d="M24.6218 33.8784V55.5M36.7839 33.8784V55.5" stroke="#FAFAFA" stroke-width="3.6036" stroke-linecap="round" stroke-linejoin="round"/>
</svg>
