<svg  viewBox="0 0 60 60" xmlns="http://www.w3.org/2000/svg">
<path d="M40.838 21.2162C39.5907 29.3243 36.7839 36.7568 30.7028 36.7568C24.6217 36.7568 22.5947 30 20.5677 21.2162C18.5407 12.4324 20.5677 5 30.7028 5C40.838 5 42.0853 13.1081 40.838 21.2162Z" fill="#FAFAFA" stroke="#FAFAFA" stroke-width="3.6036"/>
<path d="M41.5135 13.784C43.8784 11.5786 46.2878 10.8515 50.0811 11.0867C55.773 11.4407 57.0541 15.3353 57.0541 21.1569M57.0541 21.1569C57.0541 26.9799 54.823 32.2745 50.377 31.0759C45.9311 29.8786 46.5527 25.1488 48.6324 22.9313C50.7108 20.7137 54.3486 19.8097 57.0541 21.1569ZM19.8919 13.1083C17.5 11.0218 14.6757 10.8515 11.2257 11.088C6.05 11.4421 3 15.3948 3 21.2164M3 21.2164C3 27.038 6.91486 32.2732 10.9568 31.0759C15 29.8772 14.4351 25.1475 12.5446 22.9299C10.6527 20.7137 5.46081 19.8678 3 21.2164Z" stroke="#FAFAFA" stroke-width="3.6036" stroke-linecap="round"/>
<path d="M24.6221 33.3779V54.9996M36.7842 33.3779V54.9996" stroke="#FAFAFA" stroke-width="3.6036" stroke-linecap="round" stroke-linejoin="round"/>
</svg>
