<svg  viewBox="0 0 61 60"  xmlns="http://www.w3.org/2000/svg">
<path fill-rule="evenodd" clip-rule="evenodd" d="M27.0832 8.74787C26.759 8.56722 26.4929 8.53174 26.1638 8.64464C26.1039 8.66483 26.0452 8.68853 25.988 8.71561L25.9832 8.72045L25.9606 8.73335L25.8654 8.78658L25.8445 8.79787C25.6235 8.94949 25.5122 9.16562 25.4364 9.50111C25.3041 10.0995 25.3574 10.9092 25.5074 11.856C25.6735 12.9076 26.2332 14.4012 27.03 15.3964C27.4187 15.8851 27.7784 16.1448 28.0655 16.2513C28.2961 16.3384 28.5703 16.3642 28.9816 16.1738C29.5558 15.9029 29.9623 15.2432 29.7946 13.7448C29.6333 12.2834 28.9478 10.735 28.3332 9.93983C27.8913 9.36563 27.4687 8.96239 27.0832 8.74626M24.0251 5.73813C24.324 5.54995 24.6611 5.39081 25.0364 5.2607C27.9623 4.25584 30.0607 6.38653 31.1027 7.73495C32.1269 9.06078 33.0559 11.235 33.2914 13.3415C33.4495 14.7625 33.3059 16.5077 32.3414 17.8642C35.1318 17.7997 37.3899 18.0803 39.5432 18.3545L39.619 18.3642C41.9626 18.661 44.1884 18.9432 47.0401 18.8368C48.3579 18.7884 49.4788 18.5239 50.7079 18.2368C51.0434 18.1551 51.3902 18.0755 51.7482 17.9981C53.3515 17.6464 55.1677 17.3642 57.2032 17.9626C57.8919 18.1658 58.5145 18.5319 58.9871 19.0965C59.4549 19.6594 59.6823 20.3062 59.7678 20.9191C59.9275 22.0707 59.6065 23.2708 59.2516 24.2159C58.5194 26.1644 57.2355 28.0773 56.7677 28.7338C55.158 31.0032 53.266 32.2935 51.2208 32.9597C49.2337 33.6097 47.1949 33.6387 45.3594 33.5758C44.8399 33.5563 44.3205 33.5326 43.8013 33.5048C42.5223 33.4403 41.3658 33.3823 40.2109 33.4661C39.712 33.4995 39.2372 33.5645 38.7867 33.6613C38.9189 33.6968 39.0517 33.735 39.1851 33.7758C42.261 34.7275 44.961 37.0743 47.4885 40.1534C47.8724 40.5437 48.174 40.9647 48.4014 41.4566C48.6321 41.9566 48.7498 42.4566 48.8337 42.9179C49.0756 44.2228 48.7046 45.5261 48.1691 46.5874C47.5964 47.6977 46.8238 48.6928 45.8901 49.5229C44.9771 50.3423 43.8674 51.0439 42.6803 51.3778C41.4755 51.7165 40.0641 51.7036 38.8125 50.8617C38.148 50.4149 37.748 49.7068 37.5705 49.3681C37.5021 49.2386 37.4381 49.1068 37.3786 48.9729C36.4786 48.0681 35.906 47.6261 35.4334 47.4084C35.1108 47.2632 34.7656 47.189 34.2237 47.26L33.8963 47.5745C33.4479 48.0019 32.8156 48.5858 32.0769 49.2229C30.6333 50.4633 28.651 52.0133 26.7961 52.8811C23.0509 54.6327 19.254 55.4134 15.6281 54.7843C11.9668 54.1504 8.67315 52.1149 5.92148 48.5987C-0.981895 39.7759 1.52784 27.1305 7.24731 19.1029C9.70381 15.6545 14.0491 12.2576 17.6137 9.79305C19.6961 8.35673 21.8349 7.00402 24.0251 5.73813ZM32.1333 44.3406L32.493 43.976L32.9898 43.8615C34.3608 43.547 35.6124 43.576 36.877 44.1535C37.0619 44.2373 37.2436 44.3314 37.4221 44.4357C37.7238 43.7615 38.1738 43.118 38.6415 42.5647C39.2964 41.7905 40.1206 41.0357 41.0045 40.4276C41.3835 40.1663 41.7948 39.9179 42.2271 39.705C40.8254 38.4308 39.4819 37.6017 38.1609 37.192C36.1479 36.571 33.9027 36.8436 31.1156 38.6275L31.0962 38.6404L23.1122 43.4793L22.8976 43.5438L22.8896 43.547L22.867 43.5534L22.7896 43.576L22.5186 43.6502C22.2928 43.7099 21.9799 43.7873 21.6186 43.8615C20.9476 44.0002 19.9347 44.1647 19.0347 44.0809C17.9153 43.976 16.8572 43.7518 15.862 43.2567C14.8523 42.7534 14.012 42.0276 13.2491 41.0647C11.699 39.1082 11.5232 37.3114 11.4893 35.2646C11.4555 33.3129 11.87 31.7322 12.6587 30.2838C13.4168 28.8967 14.4894 27.687 15.6297 26.4644C17.9008 24.0272 21.4654 21.3191 24.2444 19.3465C24.3412 19.2712 24.4423 19.1997 24.5477 19.132C24.7875 18.9621 25.0219 18.7981 25.2509 18.64C24.9018 18.3393 24.582 18.0061 24.2961 17.6448C23.0444 16.0787 22.2783 13.9722 22.0331 12.4189C21.9767 12.0608 21.9202 11.6528 21.8831 11.2157C21.1686 11.677 20.396 12.1899 19.596 12.7431C16.0572 15.1899 12.1668 18.2916 10.099 21.1949C4.88436 28.5128 3.13755 39.2985 8.67799 46.3777C10.9651 49.2987 13.5249 50.7971 16.2201 51.2649C18.9508 51.7375 22.0154 51.1843 25.3219 49.6374C26.7203 48.9842 28.3978 47.7052 29.801 46.4971C30.5456 45.8563 31.2692 45.1914 31.9704 44.5035L32.0962 44.3793L32.1269 44.3486L32.1333 44.3406ZM40.5819 47.4906C40.6077 47.553 40.64 47.6202 40.6787 47.6922C40.7324 47.7922 40.7781 47.8686 40.8158 47.9213C40.9932 48.0164 41.2706 48.0681 41.7384 47.9374C42.2787 47.7842 42.9287 47.4132 43.561 46.8471C44.1868 46.2858 44.7078 45.6116 45.0352 44.9632C45.3739 44.2873 45.4191 43.8147 45.3739 43.576C45.3449 43.3686 45.2907 43.1655 45.2126 42.9712C45.1504 42.8465 45.0656 42.7344 44.9626 42.6405C44.9497 42.6276 44.9465 42.6244 44.9191 42.6179C44.8066 42.5977 44.6912 42.6015 44.5804 42.6292C44.1771 42.7018 43.6158 42.9454 42.9787 43.3825C42.3593 43.8099 41.769 44.3502 41.3125 44.8906C40.8271 45.4648 40.6158 45.8906 40.5674 46.068C40.5287 46.2132 40.5093 46.5551 40.5351 47.0035C40.548 47.1938 40.5674 47.3664 40.5819 47.4906Z" fill="#FAFAFA"/>
</svg>
