<svg  viewBox="0 0 41 60"  xmlns="http://www.w3.org/2000/svg">
<path d="M36.2931 33.4667C36.2282 33.296 36.151 33.1296 36.062 32.9688L36.0731 32.9917C35.7487 32.2812 33.1398 27.5562 32.7042 26.9125L20.5909 5L8.16868 27.45C7.74646 28.0958 5.43091 32.2833 5.11091 32.9917L4.98424 33.2542C4.15807 35.1419 3.73671 37.1637 3.74424 39.2042C3.74424 43.3935 5.51939 47.4112 8.67917 50.3735C11.8389 53.3358 16.1245 55 20.5931 55C25.0617 55 29.3473 53.3358 32.5071 50.3735C35.6669 47.4112 37.442 43.3935 37.442 39.2042V39.1917L37.4442 38.9812C37.4442 36.9917 37.022 35.0938 36.2554 33.3646L36.2931 33.4625V33.4667ZM20.5998 50.8729C18.4444 50.8733 16.3261 50.3475 14.4533 49.3473C12.5805 48.347 11.0179 46.9067 9.91929 45.1682C8.82066 43.4298 8.2239 41.453 8.18775 39.4326C8.1516 37.4123 8.67731 35.4179 9.71313 33.6458L9.6798 33.7062C9.51702 34.5175 9.43519 35.3412 9.43535 36.1667V36.1687C9.43771 39.8678 11.0062 43.4148 13.7962 46.0304C16.5862 48.6461 20.3697 50.1165 24.3154 50.1187C24.5665 50.1187 24.8354 50.1187 25.0842 50.1062C23.664 50.6179 22.1547 50.8779 20.6331 50.8729H20.582H20.5998Z" fill="#FAFAFA"/>
</svg>
