<svg  viewBox="0 0 48 48"  xmlns="http://www.w3.org/2000/svg">
<path d="M14 16.27L15.28 15L32 31.72L30.73 33L27.65 29.92C26.5 30.3 25.28 30.5 24 30.5C19 30.5 14.73 27.39 13 23C13.69 21.24 14.79 19.69 16.19 18.46L14 16.27ZM24 20C24.7956 20 25.5587 20.3161 26.1213 20.8787C26.6839 21.4413 27 22.2044 27 23C27.0005 23.3406 26.943 23.6787 26.83 24L23 20.17C23.3213 20.057 23.6594 19.9995 24 20ZM24 15.5C29 15.5 33.27 18.61 35 23C34.1834 25.0729 32.7966 26.8723 31 28.19L29.58 26.76C30.9629 25.8034 32.0783 24.5091 32.82 23C32.0117 21.3499 30.7565 19.9596 29.1974 18.9874C27.6382 18.0151 25.8375 17.4998 24 17.5C22.91 17.5 21.84 17.68 20.84 18L19.3 16.47C20.74 15.85 22.33 15.5 24 15.5ZM15.18 23C15.9883 24.6501 17.2435 26.0404 18.8026 27.0126C20.3618 27.9849 22.1625 28.5002 24 28.5C24.69 28.5 25.37 28.43 26 28.29L23.72 26C23.0242 25.9254 22.3748 25.6149 21.88 25.12C21.3851 24.6252 21.0746 23.9758 21 23.28L17.6 19.87C16.61 20.72 15.78 21.78 15.18 23Z" fill="#222121"/>
</svg>
