<svg viewBox="0 0 48 48"  xmlns="http://www.w3.org/2000/svg">
<path d="M23.5 11C20.1078 11 19.6812 11.0156 18.3484 11.075C17.0156 11.1375 16.1078 11.3469 15.3125 11.6562C14.4779 11.9693 13.7221 12.4616 13.0984 13.0984C12.4616 13.7221 11.9693 14.4779 11.6562 15.3125C11.3469 16.1062 11.1359 17.0156 11.075 18.3437C11.0156 19.6797 11 20.1047 11 23.5016C11 26.8953 11.0156 27.3203 11.075 28.6531C11.1375 29.9844 11.3469 30.8922 11.6562 31.6875C11.9766 32.5094 12.4031 33.2062 13.0984 33.9016C13.7922 34.5969 14.4891 35.025 15.3109 35.3438C16.1078 35.6531 17.0141 35.8641 18.3453 35.925C19.6797 35.9844 20.1047 36 23.5 36C26.8953 36 27.3188 35.9844 28.6531 35.925C29.9828 35.8625 30.8938 35.6531 31.6891 35.3438C32.5231 35.0305 33.2784 34.5382 33.9016 33.9016C34.5969 33.2062 35.0234 32.5094 35.3438 31.6875C35.6516 30.8922 35.8625 29.9844 35.925 28.6531C35.9844 27.3203 36 26.8953 36 23.5C36 20.1047 35.9844 19.6797 35.925 18.3453C35.8625 17.0156 35.6516 16.1062 35.3438 15.3125C35.0307 14.4779 34.5384 13.7221 33.9016 13.0984C33.2779 12.4616 32.5221 11.9693 31.6875 11.6562C30.8906 11.3469 29.9813 11.1359 28.6516 11.075C27.3172 11.0156 26.8938 11 23.4969 11H23.5ZM22.3797 13.2531H23.5016C26.8391 13.2531 27.2344 13.2641 28.5516 13.325C29.7703 13.3797 30.4328 13.5844 30.8734 13.7547C31.4562 13.9813 31.8734 14.2531 32.3109 14.6906C32.7484 15.1281 33.0188 15.5438 33.2453 16.1281C33.4172 16.5672 33.6203 17.2297 33.675 18.4484C33.7359 19.7656 33.7484 20.1609 33.7484 23.4969C33.7484 26.8328 33.7359 27.2297 33.675 28.5469C33.6203 29.7656 33.4156 30.4266 33.2453 30.8672C33.0435 31.4092 32.7238 31.8997 32.3094 32.3031C31.8719 32.7406 31.4563 33.0109 30.8719 33.2375C30.4344 33.4094 29.7719 33.6125 28.5516 33.6688C27.2344 33.7281 26.8391 33.7422 23.5016 33.7422C20.1641 33.7422 19.7672 33.7281 18.45 33.6688C17.2313 33.6125 16.5703 33.4094 16.1297 33.2375C15.5872 33.0363 15.0962 32.7172 14.6922 32.3031C14.277 31.8994 13.9568 31.4084 13.7547 30.8656C13.5844 30.4266 13.3797 29.7641 13.325 28.5453C13.2656 27.2281 13.2531 26.8328 13.2531 23.4937C13.2531 20.1547 13.2656 19.7625 13.325 18.4453C13.3813 17.2266 13.5844 16.5641 13.7563 16.1234C13.9828 15.5406 14.2547 15.1234 14.6922 14.6859C15.1297 14.2484 15.5453 13.9781 16.1297 13.7516C16.5703 13.5797 17.2313 13.3766 18.45 13.3203C19.6031 13.2672 20.05 13.2516 22.3797 13.25V13.2531ZM30.1734 15.3281C29.9765 15.3281 29.7814 15.3669 29.5994 15.4423C29.4174 15.5177 29.2521 15.6282 29.1128 15.7675C28.9735 15.9068 28.863 16.0721 28.7876 16.2541C28.7122 16.4361 28.6734 16.6311 28.6734 16.8281C28.6734 17.0251 28.7122 17.2202 28.7876 17.4021C28.863 17.5841 28.9735 17.7495 29.1128 17.8888C29.2521 18.0281 29.4174 18.1386 29.5994 18.2139C29.7814 18.2893 29.9765 18.3281 30.1734 18.3281C30.5713 18.3281 30.9528 18.1701 31.2341 17.8888C31.5154 17.6075 31.6734 17.2259 31.6734 16.8281C31.6734 16.4303 31.5154 16.0488 31.2341 15.7675C30.9528 15.4862 30.5713 15.3281 30.1734 15.3281ZM23.5016 17.0812C22.6501 17.068 21.8045 17.2242 21.014 17.5408C20.2235 17.8575 19.5039 18.3282 18.8971 18.9257C18.2903 19.5231 17.8084 20.2353 17.4794 21.0207C17.1505 21.8062 16.9811 22.6492 16.9811 23.5008C16.9811 24.3523 17.1505 25.1954 17.4794 25.9808C17.8084 26.7663 18.2903 27.4785 18.8971 28.0759C19.5039 28.6733 20.2235 29.1441 21.014 29.4607C21.8045 29.7774 22.6501 29.9336 23.5016 29.9203C25.1868 29.894 26.7941 29.2061 27.9765 28.0051C29.159 26.804 29.8217 25.1862 29.8217 23.5008C29.8217 21.8154 29.159 20.1975 27.9765 18.9965C26.7941 17.7954 25.1868 17.1075 23.5016 17.0812ZM23.5016 19.3328C24.0488 19.3328 24.5907 19.4406 25.0963 19.65C25.6019 19.8594 26.0613 20.1664 26.4482 20.5534C26.8352 20.9403 27.1421 21.3997 27.3515 21.9053C27.561 22.4109 27.6688 22.9528 27.6688 23.5C27.6688 24.0472 27.561 24.5891 27.3515 25.0947C27.1421 25.6003 26.8352 26.0597 26.4482 26.4466C26.0613 26.8336 25.6019 27.1406 25.0963 27.35C24.5907 27.5594 24.0488 27.6672 23.5016 27.6672C22.3964 27.6672 21.3364 27.2281 20.5549 26.4466C19.7734 25.6651 19.3344 24.6052 19.3344 23.5C19.3344 22.3948 19.7734 21.3349 20.5549 20.5534C21.3364 19.7719 22.3964 19.3328 23.5016 19.3328Z" fill="#F9F9F4"/>
</svg>
