<svg  viewBox="0 0 60 60"  xmlns="http://www.w3.org/2000/svg">
<path d="M39.6917 5H20.4613C16.9015 4.99996 13.4867 6.40995 10.9639 8.92145C8.44114 11.433 7.01589 14.8415 7 18.4012C7 28.6702 8.92304 36.5259 10.5336 41.3046C12.6297 47.5064 15.4902 52.2395 18.3796 54.2852C19.0184 54.7469 19.786 54.9966 20.5743 54.9991C21.5486 54.9963 22.486 54.6259 23.1991 53.9618C23.9121 53.2978 24.3483 52.3891 24.4204 51.4174C24.6247 48.6482 25.6223 39.6124 30.0765 39.6124C34.5308 39.6124 35.5283 48.6482 35.7327 51.4174C35.7833 52.1001 36.0143 52.7571 36.402 53.3214C36.7897 53.8856 37.3202 54.3368 37.9393 54.6289C38.55 54.9219 39.2282 55.045 39.9029 54.9853C40.5775 54.9257 41.2236 54.6855 41.7734 54.29C44.658 52.2395 47.5233 47.5064 49.6194 41.3094C51.23 36.5259 53.153 28.6702 53.153 18.4012C53.1371 14.8415 51.7119 11.433 49.1891 8.92145C46.6663 6.40995 43.2515 4.99996 39.6917 5ZM40.4129 18.5983C40.6472 18.693 40.8607 18.833 41.041 19.0101C41.2213 19.1873 41.3649 19.3983 41.4637 19.631C41.5625 19.8637 41.6144 20.1136 41.6166 20.3664C41.6188 20.6191 41.5712 20.8699 41.4765 21.1043C41.3818 21.3387 41.2419 21.5521 41.0647 21.7324C40.8875 21.9127 40.6766 22.0563 40.4439 22.1551C40.2112 22.2539 39.9613 22.3059 39.7085 22.3081C39.4557 22.3103 39.205 22.2627 38.9706 22.168L30.0765 18.6079L21.1824 22.168C20.948 22.2627 20.6973 22.3103 20.4445 22.3081C20.1917 22.3059 19.9419 22.2539 19.7092 22.1551C19.4765 22.0563 19.2655 21.9127 19.0883 21.7324C18.9111 21.5521 18.7712 21.3387 18.6765 21.1043C18.5818 20.8699 18.5342 20.6191 18.5364 20.3664C18.5386 20.1136 18.5905 19.8637 18.6893 19.631C18.7881 19.3983 18.9317 19.1873 19.112 19.0101C19.2923 18.833 19.5058 18.693 19.7402 18.5983L24.8987 16.5383L19.7402 14.4758C19.5058 14.3811 19.2923 14.2411 19.112 14.064C18.9317 13.8868 18.7881 13.6758 18.6893 13.4431C18.5905 13.2104 18.5386 12.9605 18.5364 12.7077C18.5342 12.455 18.5818 12.2042 18.6765 11.9698C18.7712 11.7354 18.9111 11.522 19.0883 11.3417C19.2655 11.1614 19.4765 11.0178 19.7092 10.919C19.9419 10.8202 20.1917 10.7682 20.4445 10.766C20.6973 10.7638 20.948 10.8114 21.1824 10.9061L30.0765 14.4662L38.9706 10.9061C39.205 10.8114 39.4557 10.7638 39.7085 10.766C39.9613 10.7682 40.2112 10.8202 40.4439 10.919C40.6766 11.0178 40.8875 11.1614 41.0647 11.3417C41.2419 11.522 41.3818 11.7354 41.4765 11.9698C41.5712 12.2042 41.6188 12.455 41.6166 12.7077C41.6144 12.9605 41.5625 13.2104 41.4637 13.4431C41.3649 13.6758 41.2213 13.8868 41.041 14.064C40.8607 14.2411 40.6472 14.3811 40.4129 14.4758L35.2543 16.5383L40.4129 18.5983Z" fill="#FAFAFA"/>
</svg>
