<svg width="60" height="61" viewBox="0 0 60 61" fill="none" xmlns="http://www.w3.org/2000/svg">
<path d="M39.6917 5.5H20.4613C16.9015 5.49996 13.4867 6.90995 10.9639 9.42145C8.44114 11.933 7.01589 15.3415 7 18.9012C7 29.1702 8.92304 37.0259 10.5336 41.8046C12.6297 48.0064 15.4902 52.7395 18.3796 54.7852C19.0184 55.2469 19.786 55.4966 20.5743 55.4991C21.5486 55.4963 22.486 55.1259 23.1991 54.4618C23.9121 53.7978 24.3483 52.8891 24.4204 51.9174C24.6247 49.1482 25.6223 40.1124 30.0765 40.1124C34.5308 40.1124 35.5283 49.1482 35.7327 51.9174C35.7833 52.6001 36.0143 53.2571 36.402 53.8214C36.7897 54.3856 37.3202 54.8368 37.9393 55.1289C38.55 55.4219 39.2282 55.545 39.9029 55.4853C40.5775 55.4257 41.2236 55.1855 41.7734 54.79C44.658 52.7395 47.5233 48.0064 49.6194 41.8094C51.23 37.0259 53.153 29.1702 53.153 18.9012C53.1371 15.3415 51.7119 11.933 49.1891 9.42145C46.6663 6.90995 43.2515 5.49996 39.6917 5.5ZM40.4129 19.0983C40.6472 19.193 40.8607 19.333 41.041 19.5101C41.2213 19.6873 41.3649 19.8983 41.4637 20.131C41.5625 20.3637 41.6144 20.6136 41.6166 20.8664C41.6188 21.1191 41.5712 21.3699 41.4765 21.6043C41.3818 21.8387 41.2419 22.0521 41.0647 22.2324C40.8875 22.4127 40.6766 22.5563 40.4439 22.6551C40.2112 22.7539 39.9613 22.8059 39.7085 22.8081C39.4557 22.8103 39.205 22.7627 38.9706 22.668L30.0765 19.1079L21.1824 22.668C20.948 22.7627 20.6973 22.8103 20.4445 22.8081C20.1917 22.8059 19.9419 22.7539 19.7092 22.6551C19.4765 22.5563 19.2655 22.4127 19.0883 22.2324C18.9111 22.0521 18.7712 21.8387 18.6765 21.6043C18.5818 21.3699 18.5342 21.1191 18.5364 20.8664C18.5386 20.6136 18.5905 20.3637 18.6893 20.131C18.7881 19.8983 18.9317 19.6873 19.112 19.5101C19.2923 19.333 19.5058 19.193 19.7402 19.0983L24.8987 17.0383L19.7402 14.9758C19.5058 14.8811 19.2923 14.7411 19.112 14.564C18.9317 14.3868 18.7881 14.1758 18.6893 13.9431C18.5905 13.7104 18.5386 13.4605 18.5364 13.2077C18.5342 12.955 18.5818 12.7042 18.6765 12.4698C18.7712 12.2354 18.9111 12.022 19.0883 11.8417C19.2655 11.6614 19.4765 11.5178 19.7092 11.419C19.9419 11.3202 20.1917 11.2682 20.4445 11.266C20.6973 11.2638 20.948 11.3114 21.1824 11.4061L30.0765 14.9662L38.9706 11.4061C39.205 11.3114 39.4557 11.2638 39.7085 11.266C39.9613 11.2682 40.2112 11.3202 40.4439 11.419C40.6766 11.5178 40.8875 11.6614 41.0647 11.8417C41.2419 12.022 41.3818 12.2354 41.4765 12.4698C41.5712 12.7042 41.6188 12.955 41.6166 13.2077C41.6144 13.4605 41.5625 13.7104 41.4637 13.9431C41.3649 14.1758 41.2213 14.3868 41.041 14.564C40.8607 14.7411 40.6472 14.8811 40.4129 14.9758L35.2543 17.0383L40.4129 19.0983Z" fill="#FAFAFA"/>
</svg>
