<svg width="62" height="60" viewBox="0 0 62 60" fill="none" xmlns="http://www.w3.org/2000/svg">
<path d="M53.2435 9.66213L53.3031 9.44116C54.0794 6.54966 52.3654 3.58256 49.4754 2.80626C48.0333 2.42247 46.5679 2.65362 45.3656 3.34415C44.1619 4.03467 43.2243 5.18604 42.8405 6.63543L41.6557 11.001C41.2632 12.4344 40.3255 13.6527 39.0375 14.3955L27.5602 21.029C27.518 21.0551 27.4918 21.0886 27.4846 21.1307C27.2796 21.9928 27.0833 22.913 26.9976 23.3143C26.9728 23.416 27.0572 23.5192 27.1676 23.5192L28.6345 23.4596C28.7886 23.4509 28.8656 23.6384 28.7624 23.7402L27.2956 25.1983C27.1938 25.3015 27.2621 25.4716 27.4075 25.4803L30.2976 25.6679C30.4168 25.6766 30.4938 25.8045 30.4342 25.915L29.3003 28.004C29.232 28.1233 29.3337 28.2686 29.4704 28.2512L31.4664 27.9779C31.4911 27.9779 31.5085 27.9706 31.526 27.9619L43.0367 21.3183C44.3248 20.5769 45.8512 20.3719 47.2919 20.7469L51.6662 21.8983C54.5577 22.6746 57.5248 20.9606 58.3011 18.0706C58.6834 16.6285 58.4537 15.1631 57.7632 13.9594C57.0727 12.7572 55.9213 11.8195 54.4719 11.4357L54.2495 11.3761C53.8831 11.2743 53.5851 11.0359 53.4063 10.7277C53.2013 10.4123 53.1417 10.0285 53.2435 9.66213Z" fill="#FAFAFA"/>
<path d="M27.3122 27.9021L24.7202 29.1887C24.5923 29.2483 24.4469 29.1378 24.4905 28.9924L25.027 26.9979C25.0706 26.8525 24.9077 26.7333 24.7798 26.8104L23.5441 27.5939C23.4496 27.655 23.3304 27.6114 23.297 27.5096C23.1851 27.1593 22.9466 26.4266 22.717 25.6764C22.6733 25.5398 22.4858 25.5136 22.4102 25.6416L15.3072 37.9461C14.5643 39.2341 13.3446 40.1718 11.9127 40.5643L7.52966 41.7578C4.63961 42.5341 2.92565 45.5012 3.70195 48.3912C4.08574 49.8334 5.0234 50.9847 6.22565 51.684C7.4279 52.3832 8.88601 52.6129 10.3354 52.2204L10.5564 52.1608C10.9242 52.059 11.3079 52.1186 11.6147 52.2974C11.9214 52.4763 12.1598 52.7656 12.2631 53.1421L12.3227 53.363C13.0975 56.2531 16.0661 57.9671 18.9561 57.1922C20.3968 56.8084 21.5481 55.8708 22.2474 54.6671C22.9379 53.4648 23.1763 51.9994 22.7853 50.5573L21.6252 46.1917C21.2501 44.7598 21.4551 43.2246 22.1965 41.9366L29.0698 30.0333C29.1629 29.872 28.9666 29.7091 28.8212 29.8196L27.8748 30.5538C27.7644 30.6381 27.6117 30.5625 27.6117 30.4258L27.5507 28.0548C27.5434 27.9268 27.4155 27.8498 27.3122 27.9021Z" fill="#FAFAFA"/>
<path d="M22.4699 21.2847L18.709 15.9887C18.6581 15.9219 18.5549 15.9131 18.4953 15.9727L16.9602 17.5079C16.9006 17.5675 16.9093 17.6693 16.9776 17.7201L22.2736 21.481C22.4015 21.5668 22.5542 21.4127 22.4699 21.2847Z" fill="#FAFAFA"/>
<path d="M24.3189 19.5533L25.402 13.1495C25.4194 13.0652 25.3511 12.9882 25.2653 12.9882H23.1007C23.0149 12.9882 22.9466 13.0652 22.964 13.1495L24.0471 19.5533C24.0718 19.7074 24.2942 19.7074 24.3189 19.5533Z" fill="#FAFAFA"/>
<path d="M14.1386 24.4221L20.5424 23.3405C20.6964 23.3144 20.6964 23.0919 20.5424 23.0672L14.1386 21.9842C14.0528 21.9667 13.9772 22.0351 13.9772 22.1208V24.2869C13.9772 24.3712 14.0528 24.4308 14.1386 24.4221Z" fill="#FAFAFA"/>
</svg>
