<svg width="60" height="61" viewBox="0 0 60 61" fill="none" xmlns="http://www.w3.org/2000/svg">
<path d="M30.0628 5.5C30.542 5.5 31.0017 5.69039 31.3406 6.02929C31.6795 6.36819 31.8699 6.82784 31.8699 7.30712V26.2566L33.677 27.5468V18.945C33.677 15.5114 36.46 12.7285 39.8935 12.7285C41.7874 12.7285 43.5909 13.7043 45.1088 14.8681C46.6666 16.068 48.1701 17.6619 49.5037 19.31C52.1638 22.5917 54.3721 26.3433 55.2142 28.2733C55.8503 29.7371 56.6346 32.4658 57.2238 35.5415C57.8201 38.6389 58.2466 42.2532 58.0912 45.5132C57.9466 48.6467 57.2527 51.9827 55.0661 53.9344C52.6445 56.1029 49.2038 55.9439 45.1594 53.9199L38.6719 50.6779C37.171 49.9275 35.9088 48.774 35.0266 47.3467C34.1444 45.9193 33.6771 44.2745 33.677 42.5965V31.9887L30.0628 29.4045L26.4485 31.9887V27.9589C26.0871 27.9589 25.7185 28.0673 25.4004 28.295L16.3648 34.75C16.1633 34.8842 15.9907 35.0575 15.8575 35.2597C15.7242 35.4618 15.633 35.6887 15.5891 35.9269C15.5452 36.165 15.5497 36.4095 15.6022 36.6459C15.6546 36.8823 15.7541 37.1057 15.8946 37.3029C16.0351 37.5001 16.2138 37.667 16.4201 37.7938C16.6264 37.9206 16.856 38.0046 17.0954 38.0409C17.3348 38.0772 17.5791 38.065 17.8137 38.0051C18.0483 37.9452 18.2684 37.8387 18.4611 37.692L26.4485 31.9887V42.5965C26.4485 44.2745 25.9812 45.9193 25.099 47.3467C24.2168 48.774 22.9545 49.9275 21.4537 50.6779L14.9661 53.9199C10.9182 55.9439 7.48465 56.0993 5.0595 53.9344C2.87288 51.9827 2.17534 48.6467 2.03077 45.5132C1.87897 42.2532 2.30545 38.6389 2.89818 35.5415C3.49092 32.4622 4.27159 29.7371 4.91493 28.2697C5.75343 26.3433 7.96173 22.5917 10.6218 19.31C11.9591 17.6619 13.459 16.068 15.0167 14.8681C16.5347 13.7043 18.3382 12.7285 20.2321 12.7285C23.6656 12.7285 26.4485 15.5114 26.4485 18.945V27.5468L28.2557 26.2566V7.30712C28.2557 6.82784 28.446 6.36819 28.7849 6.02929C29.1238 5.69039 29.5835 5.5 30.0628 5.5ZM41.6645 37.692C41.8571 37.8387 42.0773 37.9452 42.3119 38.0051C42.5465 38.065 42.7907 38.0772 43.0301 38.0409C43.2695 38.0046 43.4992 37.9206 43.7055 37.7938C43.9117 37.667 44.0905 37.5001 44.231 37.3029C44.3715 37.1057 44.4709 36.8823 44.5234 36.6459C44.5759 36.4095 44.5803 36.165 44.5364 35.9269C44.4926 35.6887 44.4013 35.4618 44.2681 35.2597C44.1348 35.0575 43.9623 34.8842 43.7607 34.75L34.7251 28.295C34.4192 28.0767 34.0528 27.9592 33.677 27.9589V31.9887L41.6645 37.692Z" fill="#FAFAFA"/>
</svg>
