<svg width="36" height="61" viewBox="0 0 36 61" fill="none" xmlns="http://www.w3.org/2000/svg">
<g clip-path="url(#clip0_1027_1012)">
<path d="M18.3164 40.7495C22.2411 40.745 26.0038 39.1839 28.779 36.4088C31.5542 33.6336 33.1153 29.8709 33.1198 25.9462V13.2024H3.51306V25.9462C3.51832 29.8702 5.07926 33.632 7.85367 36.4069C10.6281 39.1819 14.3924 40.7435 18.3164 40.7495ZM5.3823 14.8955H10.6094V16.0489H5.3823V14.8955ZM5.3823 19.0857H10.6094V20.239H5.3823V19.0857ZM5.3823 23.256H10.6094V24.4093H5.3823V23.256ZM5.3823 27.4461H10.6094V28.5995H5.3823V27.4461Z" fill="#FAFAFA"/>
<path d="M34.9376 -3.58932H-1.93018V25.9549C-1.92426 30.6352 -0.300419 35.1695 2.66618 38.7894C5.63277 42.4094 9.75967 44.8924 14.3476 45.8177L14.4782 45.8404V46.6074C14.4782 47.204 15.1231 47.6727 15.927 47.6727H17.1486V51.8089H16.6912C16.4835 51.8097 16.2845 51.8925 16.1376 52.0394C15.9907 52.1863 15.9079 52.3853 15.9072 52.593V58.7064C15.9072 59.1382 16.2566 59.4847 16.6855 59.4847H17.1457V64.5897H19.5036V59.4933H19.9638C20.1715 59.4925 20.3705 59.4097 20.5174 59.2628C20.6643 59.1159 20.7471 58.9169 20.7479 58.7092V52.5873C20.7471 52.3796 20.6643 52.1806 20.5174 52.0337C20.3705 51.8868 20.1715 51.804 19.9638 51.8033H19.5036V47.6671H20.7251C21.5376 47.6671 22.1768 47.1955 22.1768 46.6018V45.8348C31.5826 43.957 38.5738 35.7727 38.5852 25.9521V-3.59216L34.9376 -3.58932ZM34.9376 25.9549C34.8586 30.3093 33.0737 34.4587 29.967 37.5106C26.8602 40.5626 22.6796 42.2733 18.3246 42.2748C13.9695 42.2763 9.78779 40.5685 6.67891 37.5186C3.57003 34.4688 1.78235 30.3206 1.70036 25.9663V0.04689H34.9376V25.9549Z" fill="#FAFAFA"/>
<path d="M5.38501 2.34778H10.6035V3.50114H5.38501V2.34778ZM5.38501 6.5351H10.6035V7.68847H5.38501V6.5351ZM5.38501 10.7253H10.6035V11.8786H5.38501V10.7253Z" fill="#FAFAFA"/>
</g>
<defs>
<clipPath id="clip0_1027_1012">
<rect width="35.01" height="60" fill="white" transform="translate(0.494995 0.5)"/>
</clipPath>
</defs>
</svg>
