<svg width="60" height="61" viewBox="0 0 60 61" fill="none" xmlns="http://www.w3.org/2000/svg">
<path d="M30.5 22.75C28.5109 22.75 26.6032 23.5402 25.1967 24.9467C23.7902 26.3532 23 28.2609 23 30.25C23 32.2391 23.7902 34.1468 25.1967 35.5533C26.6032 36.9598 28.5109 37.75 30.5 37.75C32.4891 37.75 34.3968 36.9598 35.8033 35.5533C37.2098 34.1468 38 32.2391 38 30.25C38 28.2609 37.2098 26.3532 35.8033 24.9467C34.3968 23.5402 32.4891 22.75 30.5 22.75ZM30.5 42.75C27.1848 42.75 24.0054 41.433 21.6612 39.0888C19.317 36.7446 18 33.5652 18 30.25C18 26.9348 19.317 23.7554 21.6612 21.4112C24.0054 19.067 27.1848 17.75 30.5 17.75C33.8152 17.75 36.9946 19.067 39.3388 21.4112C41.683 23.7554 43 26.9348 43 30.25C43 33.5652 41.683 36.7446 39.3388 39.0888C36.9946 41.433 33.8152 42.75 30.5 42.75ZM30.5 11.5C18 11.5 7.325 19.275 3 30.25C7.325 41.225 18 49 30.5 49C43 49 53.675 41.225 58 30.25C53.675 19.275 43 11.5 30.5 11.5Z" fill="#FAFAFA"/>
</svg>
