<svg width="46" height="60" viewBox="0 0 46 60" fill="none" xmlns="http://www.w3.org/2000/svg">
<path d="M24.74 5.00165C24.5036 5.00548 24.2635 5.01637 24.0217 5.03158C16.7644 5.4871 12.0104 9.33338 9.22901 15.0615C6.49203 20.6982 5.824 28.1957 7.17885 35.7092L7.38835 35.9187L7.22003 36.6032C6.8094 38.3036 7.07996 40.35 7.73242 42.1066C8.38488 43.8629 9.47072 45.3091 10.1979 45.7915L10.8001 46.1919L10.7553 46.9102C10.5931 49.5401 11.5798 51.5744 12.9626 52.9784C14.3454 54.3822 16.1575 55.0671 17.3435 54.9948C18.5706 54.9202 19.2116 54.5404 19.8875 53.7976C20.5636 53.0552 21.1917 51.8757 21.9303 50.412C23.4076 47.4847 25.3943 43.4857 30.0824 39.9854C37.6668 34.3221 39.9941 25.2617 38.4626 17.7591C37.6967 14.0079 35.9644 10.6795 33.5054 8.38366C31.3541 6.37481 28.6712 5.12687 25.4396 5.00919C25.2088 5.00081 24.9763 4.99782 24.74 5.00165ZM23.9169 11.4851C24.0702 11.4818 24.2236 11.4818 24.377 11.4851C27.5276 11.5425 30.5658 12.949 32.6751 15.7275C32.7606 15.8403 32.823 15.9688 32.8589 16.1056C32.8947 16.2425 32.9032 16.3852 32.8839 16.5253C32.8646 16.6655 32.8179 16.8006 32.7465 16.9227C32.675 17.0448 32.5802 17.1517 32.4674 17.2372C32.3547 17.3227 32.2262 17.3851 32.0893 17.421C31.9524 17.4568 31.8098 17.4653 31.6696 17.446C31.5294 17.4268 31.3944 17.38 31.2722 17.3086C31.1501 17.2371 31.0432 17.1423 30.9577 17.0295C27.887 12.9843 22.6894 12.5104 18.4659 15.5406C16.2781 17.1101 14.3644 19.6651 13.2807 23.2436C14.8287 21.6038 16.6223 20.0046 18.6082 18.9898C19.794 18.384 21.0762 17.9894 22.3979 17.9836C22.8385 17.9817 23.283 18.0233 23.7298 18.1145C25.5169 18.4792 27.2423 19.6357 28.7804 21.6685C28.8657 21.7815 28.9278 21.9101 28.9633 22.0472C28.9988 22.1842 29.007 22.3269 28.9874 22.467C28.9678 22.6072 28.9207 22.7421 28.8489 22.8641C28.7772 22.9861 28.6821 23.0928 28.5691 23.178C28.4561 23.2633 28.3274 23.3254 28.1904 23.3609C28.0534 23.3965 27.9107 23.4046 27.7705 23.385C27.6303 23.3654 27.4954 23.3183 27.3734 23.2466C27.2514 23.1748 27.1447 23.0797 27.0595 22.9667C25.7442 21.2284 24.4924 20.4679 23.2995 20.2244C22.1069 19.9809 20.8786 20.2496 19.5883 20.9092C17.0096 22.2268 14.3949 25.1233 12.4651 27.4561C12.246 29.6979 12.3041 32.2201 12.7196 35.0282C14.2553 35.0883 15.5111 35.4793 16.4273 36.1919C17.5363 37.0543 18.0865 38.3228 18.1668 39.5739C18.3275 42.0756 16.8954 44.6739 14.5004 45.6867C14.2372 45.7969 13.9411 45.7985 13.6768 45.6909C13.4125 45.5833 13.2016 45.3754 13.0903 45.1126C12.979 44.8499 12.9763 44.5538 13.0829 44.2891C13.1894 44.0244 13.3965 43.8127 13.6588 43.7003C15.0291 43.1206 16.1122 41.2138 16.0158 39.7122C15.9675 38.9615 15.6993 38.3577 15.1029 37.8939C14.5065 37.4302 13.4968 37.0774 11.8442 37.1682C11.58 37.1829 11.3196 37.1 11.1126 36.935C10.9056 36.7701 10.7666 36.5347 10.722 36.2739C8.79934 25.0534 12.185 17.3942 17.209 13.7897C19.2698 12.3112 21.6131 11.5388 23.9168 11.4852L23.9169 11.4851Z" fill="#FAFAFA"/>
</svg>
