<svg viewBox="0 0 60 60"  xmlns="http://www.w3.org/2000/svg">
<path d="M29.0869 45.2287C28.8135 44.9556 28.4428 44.8022 28.0563 44.8022C27.6699 44.8022 27.2992 44.9556 27.0258 45.2287L20.1624 52.0871L19.3084 51.2331L28.5115 42.0424C28.7851 41.7691 28.9388 41.3983 28.939 41.0116C28.9391 40.6249 28.7857 40.254 28.5123 39.9805C28.239 39.7069 27.8682 39.5532 27.4815 39.553C27.0948 39.5528 26.7239 39.7063 26.4504 39.9796L17.2498 49.1719L16.3975 48.3196L27.1012 37.625C27.3565 37.3484 27.4949 36.9837 27.4876 36.6074C27.4802 36.2311 27.3276 35.8721 27.0617 35.6057C26.7958 35.3393 26.4372 35.186 26.0609 35.1778C25.6846 35.1697 25.3197 35.3074 25.0425 35.5622L14.3371 46.256L13.4848 45.402L21.8853 37.0081C22.1404 36.7313 22.2785 36.3666 22.2708 35.9902C22.2632 35.6139 22.1103 35.2551 21.8442 34.9889C21.5781 34.7227 21.2193 34.5696 20.843 34.5618C20.4667 34.554 20.1019 34.692 19.825 34.947L9.01759 45.7336C9.00786 44.1937 9.00261 42.6538 9.00184 41.1139C9.00184 38.7575 6.02452 38.4085 5.87611 38.5726C5.73102 38.7434 4.24609 55.1067 4.24609 55.1067H21.2859L22.2352 54.1573L22.2227 54.1466L29.0886 47.2865C29.362 47.0133 29.5157 46.6427 29.5158 46.2561C29.516 45.8696 29.3626 45.4988 29.0894 45.2254L29.0869 45.2287Z" fill="#FAFAFA"/>
<path d="M36.7531 5.10825C28.1371 5.10825 20.1984 11.572 18.5435 18.6898C18.1729 20.2767 17.7583 24.409 17.7583 24.409L13.7994 34.3864C13.701 34.6191 13.6618 34.8725 13.6853 35.124C13.7089 35.3755 13.7943 35.6173 13.9341 35.8277C14.0739 36.0381 14.2636 36.2106 14.4864 36.3298C14.7091 36.449 14.9579 36.5111 15.2105 36.5106H16.5619L18.9755 34.0987C19.3148 33.7589 19.7401 33.5175 20.2058 33.4004C20.6716 33.2832 21.1605 33.2947 21.6202 33.4336C22.08 33.5725 22.4934 33.8336 22.8164 34.189C23.1394 34.5445 23.3599 34.9809 23.4543 35.4518L24.193 34.7139C24.6879 34.2329 25.3507 33.9636 26.0409 33.9632C26.731 33.9628 27.3942 34.2314 27.8895 34.7119C28.3849 35.1924 28.6736 35.847 28.6943 36.5369C28.715 37.2267 28.466 37.8974 28.0003 38.4068C28.4714 38.5013 28.908 38.7219 29.2636 39.0449C29.6193 39.368 29.8807 39.7814 30.0199 40.2413C30.1592 40.7011 30.1712 41.1901 30.0545 41.6562C29.9379 42.1223 29.697 42.548 29.3575 42.8881L28.5865 43.6575C29.0806 43.7578 29.5515 43.9974 29.9338 44.3796C30.4319 44.8779 30.7118 45.5537 30.7118 46.2584C30.7118 46.963 30.4319 47.6388 29.9338 48.1371L28.2217 49.8467V55.1074H48.4908V39.0004C52.9033 35.5306 55.7463 30.1364 55.7463 24.0848C55.7463 13.6016 47.2471 5.10742 36.7531 5.10742V5.10825ZM22.4353 28.1988C22.1571 28.1991 21.8816 28.1446 21.6245 28.0384C21.3674 27.9322 21.1337 27.7764 20.9368 27.5798C20.5392 27.183 20.3154 26.6444 20.3149 26.0825C20.3143 25.5207 20.537 24.9817 20.9339 24.584C21.3308 24.1864 21.8694 23.9626 22.4312 23.9621C22.993 23.9615 23.532 24.1842 23.9297 24.5811C24.3274 24.978 24.5511 25.5166 24.5516 26.0784C24.5522 26.6402 24.3295 27.1792 23.9326 27.5769C23.5357 27.9746 22.9972 28.1983 22.4353 28.1988ZM32.3481 33.1345C32.8771 33.1345 33.3148 33.5681 33.3148 34.0954C33.3148 34.6294 32.8771 35.0597 32.3481 35.0597C32.2183 35.0651 32.0888 35.0441 31.9673 34.9982C31.8458 34.9522 31.7349 34.8822 31.6412 34.7923C31.5475 34.7024 31.4729 34.5944 31.4219 34.475C31.371 34.3555 31.3447 34.227 31.3447 34.0971C31.3447 33.9672 31.371 33.8386 31.4219 33.7192C31.4729 33.5997 31.5475 33.4918 31.6412 33.4018C31.7349 33.3119 31.8458 33.2419 31.9673 33.1959C32.0888 33.15 32.2183 33.1291 32.3481 33.1345ZM31.7727 39.1612C31.646 39.161 31.5205 39.1358 31.4035 39.0871C31.2865 39.0384 31.1802 38.9672 31.0908 38.8774C31.0013 38.7876 30.9304 38.6811 30.8821 38.564C30.8338 38.4468 30.8091 38.3212 30.8093 38.1945C30.8095 38.0678 30.8347 37.9423 30.8834 37.8253C30.9321 37.7083 31.0034 37.602 31.0931 37.5126C31.1829 37.4231 31.2894 37.3522 31.4066 37.3039C31.5237 37.2556 31.6493 37.2309 31.776 37.2311C32.032 37.2315 32.2773 37.3336 32.4579 37.5149C32.6386 37.6962 32.7399 37.9419 32.7394 38.1978C32.739 38.4538 32.6369 38.6991 32.4556 38.8798C32.2743 39.0604 32.0287 39.1617 31.7727 39.1612ZM33.8322 43.3117C33.449 43.2797 33.0942 43.0968 32.8458 42.8033C32.5974 42.5097 32.4756 42.1296 32.5073 41.7464C32.5417 41.3645 32.7257 41.0118 33.0194 40.7652C33.313 40.5187 33.6923 40.3984 34.0743 40.4306C34.8678 40.4986 35.4589 41.2 35.3876 41.9918C35.3723 42.1806 35.32 42.3646 35.2335 42.5332C35.147 42.7017 35.0281 42.8516 34.8836 42.9741C34.7391 43.0966 34.5719 43.1895 34.3915 43.2473C34.211 43.3051 34.021 43.3275 33.8322 43.3117ZM35.2218 37.5304C35.0323 37.5304 34.8447 37.4931 34.6697 37.4206C34.4947 37.3481 34.3356 37.2418 34.2017 37.1079C34.0677 36.9739 33.9615 36.8149 33.889 36.6398C33.8165 36.4648 33.7791 36.2772 33.7791 36.0878C33.7791 35.8983 33.8165 35.7107 33.889 35.5357C33.9615 35.3607 34.0677 35.2016 34.2017 35.0677C34.3356 34.9337 34.4947 34.8274 34.6697 34.7549C34.8447 34.6824 35.0323 34.6451 35.2218 34.6451C36.0136 34.6451 36.6586 35.2902 36.6586 36.0869C36.6586 36.8837 36.0136 37.5304 35.2218 37.5304ZM37.2722 40.5558C36.7366 40.5558 36.3021 40.1263 36.3021 39.5899C36.3124 39.3404 36.4188 39.1046 36.599 38.9318C36.7791 38.7589 37.0192 38.6624 37.2688 38.6624C37.5185 38.6624 37.7585 38.7589 37.9387 38.9318C38.1189 39.1046 38.2252 39.3404 38.2356 39.5899C38.2356 40.1255 37.8053 40.5558 37.2722 40.5558ZM39.4278 34.9502H39.0904V33.2282L39.4237 33.2249C40.4578 33.2214 41.4488 32.8096 42.1809 32.0792C42.913 31.3488 43.327 30.3589 43.3329 29.3247C43.3272 28.2908 42.9135 27.301 42.1817 26.5706C41.4499 25.8402 40.4593 25.4283 39.4253 25.4246L39.0904 25.423V23.7026H39.4278C42.5328 23.7026 45.0566 26.2231 45.0566 29.3247C45.0566 32.4264 42.5328 34.9502 39.4278 34.9502Z" fill="#FAFAFA"/>
</svg>
