<svg width="60" height="60" viewBox="0 0 60 60" fill="none" xmlns="http://www.w3.org/2000/svg">
<path d="M47.8056 50.4346H35.9357C36.1639 49.9781 36.1639 49.5216 36.1639 49.065C43.012 46.3258 47.5773 39.706 47.5773 32.1732C47.5773 27.6078 45.7512 23.2707 42.7837 19.8467L44.1533 18.4771C44.3816 18.2488 44.6099 18.0205 44.6099 17.564L46.2077 12.7704C46.436 11.8573 46.2077 10.9442 45.7512 10.4877L40.9576 5.69405C40.2728 5.00925 39.3597 4.78098 38.6749 5.23752L34.1095 6.60713C33.8812 6.60713 33.4247 6.8354 33.1964 7.06366L18.5873 21.6728C17.6742 22.5859 17.6742 23.9555 18.5873 24.8686L15.3915 28.0643C14.4784 28.9774 14.4784 30.347 15.3915 31.2601L20.1851 36.0537C21.0982 36.9668 22.4678 36.9668 23.3809 36.0537L26.5767 32.858C27.4897 33.7711 28.8593 33.7711 29.7724 32.858L39.8162 23.0424C42.0989 25.5534 43.2402 28.7491 43.2402 32.1732C43.2402 37.4233 40.0445 42.217 35.2509 44.4997C33.1964 41.3039 29.0876 40.1626 25.8919 42.217C24.9788 42.9018 24.0657 43.5866 23.6092 44.7279C22.6961 44.2714 21.783 44.0431 21.0982 43.3583C22.0113 43.1301 22.6961 42.217 22.6961 41.3039C22.6961 39.9343 21.783 39.0212 20.4134 39.0212H11.2827C9.91307 39.0212 9 39.9343 9 41.3039C9 42.6735 9.91307 43.5866 11.2827 43.5866H14.2502C16.5329 46.0975 19.5003 48.152 22.6961 49.2933C22.6961 49.7498 22.9244 50.2064 22.9244 50.4346H11.2827C9.91307 50.4346 9 51.3477 9 52.7173C9 54.0869 9.91307 55 11.2827 55H47.8056C49.1752 55 50.0883 54.0869 50.0883 52.7173C50.0883 51.576 49.1752 50.4346 47.8056 50.4346ZM21.783 31.2601L20.1851 29.6622L21.783 28.0643L23.3809 29.6622L21.783 31.2601ZM29.5441 50.4346C28.1745 50.4346 27.2615 49.5216 27.2615 48.152C27.2615 46.7823 28.1745 45.8693 29.5441 45.8693C30.9138 45.8693 31.8268 46.7823 31.8268 48.152C31.8268 49.5216 30.9138 50.4346 29.5441 50.4346Z" fill="#FAFAFA"/>
</svg>
