<svg width="60" height="61" viewBox="0 0 60 61" fill="none" xmlns="http://www.w3.org/2000/svg">
<path d="M47.8265 35.5008C48.2984 36.1801 48.9751 36.6909 49.7578 36.9586C50.5404 37.2262 51.3882 37.2368 52.1772 36.9886C52.9663 36.7405 53.6555 36.2467 54.1441 35.5792C54.6327 34.9118 54.8952 34.1057 54.8934 33.2785C54.8952 32.4513 54.6327 31.6452 54.1441 30.9777C53.6555 30.3103 52.9663 29.8165 52.1772 29.5683C51.3882 29.3202 50.5404 29.3307 49.7578 29.5984C48.9751 29.8661 48.2984 30.3768 47.8265 31.0562H46.0043C46.0043 27.5672 44.8931 24.3894 42.8931 21.7449L45.8709 18.767C47.1154 18.9892 48.3821 18.6337 49.3377 17.7225C50.8266 16.1892 50.8266 13.7224 49.3377 12.1668C47.8043 10.6779 45.3376 10.6779 43.782 12.1668C42.8708 13.1224 42.5153 14.3891 42.7375 15.6336L39.7597 18.6115C37.7152 17.0781 35.3151 16.0558 32.6706 15.678V12.5669C33.35 12.095 33.8607 11.4183 34.1284 10.6356C34.3961 9.85295 34.4066 9.00522 34.1585 8.21614C33.9103 7.42705 33.4165 6.73792 32.7491 6.2493C32.0816 5.76068 31.2755 5.49815 30.4483 5.50001C29.6211 5.49815 28.815 5.76068 28.1476 6.2493C27.4801 6.73792 26.9863 7.42705 26.7382 8.21614C26.49 9.00522 26.5006 9.85295 26.7682 10.6356C27.0359 11.4183 27.5467 12.095 28.226 12.5669V15.678C26.226 15.9669 24.3593 16.6114 22.6703 17.5892L20.2036 14.0558C20.6258 12.9002 20.5147 11.5668 19.7592 10.5001C19.4662 10.0809 19.0935 9.72356 18.6623 9.44857C18.2311 9.17358 17.7499 8.98635 17.2462 8.89759C16.7425 8.80883 16.2263 8.82028 15.7271 8.9313C15.2278 9.04231 14.7554 9.25071 14.3368 9.54456C12.5812 10.7668 12.1367 13.1891 13.3812 14.9447C14.1368 16.0336 15.3368 16.6114 16.5591 16.6114L19.1814 20.3448C18.2258 21.3004 17.4702 22.3671 16.8257 23.5449C16.1252 23.2712 15.3606 23.2053 14.6235 23.3551C13.8865 23.5048 13.2082 23.864 12.6701 24.3894C11.1812 25.945 11.1812 28.3895 12.6701 29.9451C13.3145 30.5451 14.0923 30.9007 14.8924 31.0562C14.8924 32.2562 15.0479 33.4118 15.2924 34.523L12.3812 35.3008C11.4478 34.523 10.1589 34.1896 8.86999 34.523C7.87393 34.7941 7.02636 35.4498 6.51375 36.3458C6.00114 37.2418 5.86547 38.3048 6.13659 39.3009C6.4077 40.2969 7.0634 41.1445 7.95943 41.6571C8.85546 42.1697 9.91842 42.3054 10.9145 42.0343C12.1812 41.6787 13.1368 40.7453 13.5368 39.5898L16.8924 38.6786C17.8924 40.4342 19.2258 41.9898 20.7814 43.2787L18.3369 47.7233C17.1146 47.9011 16.0035 48.59 15.359 49.7678C15.1168 50.2172 14.9655 50.7099 14.9137 51.2178C14.8619 51.7258 14.9106 52.2389 15.0572 52.728C15.2037 53.217 15.4451 53.6725 15.7676 54.0682C16.0901 54.464 16.4874 54.7924 16.9369 55.0346C17.3863 55.2768 17.879 55.4281 18.3869 55.4799C18.8948 55.5317 19.408 55.483 19.897 55.3365C20.3861 55.19 20.8415 54.9485 21.2373 54.626C21.6331 54.3035 21.9614 53.9062 22.2037 53.4568C22.8259 52.3012 22.8037 50.9678 22.2481 49.8789L24.6259 45.501C26.426 46.2121 28.3816 46.6122 30.4483 46.6122H30.8483C30.5594 47.1899 30.4483 47.8566 30.4483 48.5678C30.6261 50.7234 32.4928 52.3234 34.6262 52.1679C36.7596 52.0123 38.3818 50.1234 38.2263 47.99C38.1374 46.8788 37.5818 45.901 36.7818 45.2566C37.8263 44.7899 38.8263 44.1899 39.7597 43.501L44.9598 48.7011C44.7376 49.9456 45.0931 51.2123 46.0043 52.1679C47.5599 53.6568 50.0044 53.6568 51.56 52.1679C53.1156 50.6789 53.0489 48.1677 51.56 46.6122C50.6044 45.701 49.3377 45.3455 48.0932 45.5677L42.8931 40.3676C43.982 38.9231 44.8265 37.2786 45.3598 35.5008H47.8265ZM27.1149 31.0562C25.2704 31.0562 23.7815 29.5673 23.7815 27.7228C23.7815 25.8783 25.2704 24.3894 27.1149 24.3894C28.9594 24.3894 30.4483 25.8783 30.4483 27.7228C30.4483 29.5673 28.9594 31.0562 27.1149 31.0562ZM34.8929 37.723C33.6706 37.723 32.6706 36.723 32.6706 35.5008C32.6706 34.2785 33.6706 33.2785 34.8929 33.2785C36.1151 33.2785 37.1151 34.2785 37.1151 35.5008C37.1151 36.723 36.1151 37.723 34.8929 37.723Z" fill="#FAFAFA"/>
</svg>
