<svg width="40" height="61" viewBox="0 0 40 61" fill="none" xmlns="http://www.w3.org/2000/svg">
<path d="M35.5489 33.9667C35.4839 33.796 35.4067 33.6296 35.3178 33.4688L35.3289 33.4917C35.0044 32.7812 32.3955 28.0562 31.96 27.4125L19.8466 5.5L7.42442 27.95C7.0022 28.5958 4.68664 32.7833 4.36664 33.4917L4.23998 33.7542C3.41381 35.6419 2.99245 37.6637 2.99998 39.7042C2.99998 43.8935 4.77512 47.9112 7.9349 50.8735C11.0947 53.8358 15.3803 55.5 19.8489 55.5C24.3175 55.5 28.6031 53.8358 31.7628 50.8735C34.9226 47.9112 36.6978 43.8935 36.6978 39.7042V39.6917L36.7 39.4812C36.7 37.4917 36.2778 35.5938 35.5111 33.8646L35.5489 33.9625V33.9667ZM19.8555 51.3729C17.7002 51.3733 15.5818 50.8475 13.709 49.8473C11.8363 48.847 10.2737 47.4067 9.17503 45.6682C8.0764 43.9298 7.47963 41.953 7.44348 39.9326C7.40734 37.9123 7.93305 35.9179 8.96887 34.1458L8.93553 34.2062C8.77276 35.0175 8.69092 35.8412 8.69109 36.6667V36.6687C8.69344 40.3678 10.2619 43.9148 13.0519 46.5304C15.842 49.1461 19.6254 50.6165 23.5711 50.6187C23.8222 50.6187 24.0911 50.6187 24.34 50.6062C22.9197 51.1179 21.4104 51.3779 19.8889 51.3729H19.8378H19.8555Z" fill="#FAFAFA"/>
</svg>
