<svg width="60" height="61" viewBox="0 0 60 61" fill="none" xmlns="http://www.w3.org/2000/svg">
<path d="M22.9688 5.5C25.9863 5.5 28.4375 7.95117 28.4375 10.9688V50.0312C28.4375 53.0488 25.9863 55.5 22.9688 55.5C20.1465 55.5 17.8223 53.3613 17.5293 50.6074C17.0215 50.7441 16.4844 50.8125 15.9375 50.8125C12.4902 50.8125 9.6875 48.0098 9.6875 44.5625C9.6875 43.8398 9.81445 43.1367 10.0391 42.4922C7.08984 41.3789 5 38.5273 5 35.1875C5 32.0723 6.82617 29.377 9.47266 28.127C8.62305 27.0625 8.125 25.7148 8.125 24.25C8.125 21.252 10.2344 18.752 13.0469 18.1367C12.8906 17.5996 12.8125 17.0234 12.8125 16.4375C12.8125 13.5176 14.8242 11.0566 17.5293 10.373C17.8223 7.63867 20.1465 5.5 22.9688 5.5ZM37.0312 5.5C39.8535 5.5 42.168 7.63867 42.4707 10.373C45.1855 11.0566 47.1875 13.5078 47.1875 16.4375C47.1875 17.0234 47.1094 17.5996 46.9531 18.1367C49.7656 18.7422 51.875 21.252 51.875 24.25C51.875 25.7148 51.377 27.0625 50.5273 28.127C53.1738 29.377 55 32.0723 55 35.1875C55 38.5273 52.9102 41.3789 49.9609 42.4922C50.1855 43.1367 50.3125 43.8398 50.3125 44.5625C50.3125 48.0098 47.5098 50.8125 44.0625 50.8125C43.5156 50.8125 42.9785 50.7441 42.4707 50.6074C42.1777 53.3613 39.8535 55.5 37.0312 55.5C34.0137 55.5 31.5625 53.0488 31.5625 50.0312V10.9688C31.5625 7.95117 34.0137 5.5 37.0312 5.5Z" fill="#FAFAFA"/>
</svg>
