<svg  viewBox="0 0 40 40"  xmlns="http://www.w3.org/2000/svg">
<path d="M26.6663 16.6667C26.6663 18.4348 25.964 20.1305 24.7137 21.3807C23.4635 22.631 21.7678 23.3333 19.9997 23.3333C18.2316 23.3333 16.5359 22.631 15.2856 21.3807C14.0354 20.1305 13.333 18.4348 13.333 16.6667C13.333 14.8986 14.0354 13.2029 15.2856 11.9526C16.5359 10.7024 18.2316 10 19.9997 10C21.7678 10 23.4635 10.7024 24.7137 11.9526C25.964 13.2029 26.6663 14.8986 26.6663 16.6667Z" fill="#FAFAFA"/>
<path fill-rule="evenodd" clip-rule="evenodd" d="M19.3197 36.653C10.4305 36.2963 3.33301 28.9763 3.33301 19.9997C3.33301 10.7947 10.7947 3.33301 19.9997 3.33301C29.2047 3.33301 36.6663 10.7947 36.6663 19.9997C36.6663 29.2047 29.2047 36.6663 19.9997 36.6663H19.7713C19.6202 36.6663 19.4697 36.6619 19.3197 36.653ZM9.30467 30.5163C9.18006 30.1585 9.13765 29.7772 9.18058 29.4007C9.22351 29.0242 9.35068 28.6622 9.55266 28.3416C9.75463 28.0209 10.0262 27.7499 10.3473 27.5486C10.6683 27.3474 11.0306 27.221 11.4072 27.1788C17.9038 26.4597 22.1355 26.5247 28.6005 27.1938C28.9776 27.2331 29.3408 27.3579 29.6623 27.5587C29.9839 27.7596 30.2554 28.0311 30.4561 28.3528C30.6569 28.6744 30.7816 29.0376 30.8208 29.4147C30.8599 29.7918 30.8125 30.1728 30.6822 30.5288C33.4531 27.7255 35.0048 23.9413 34.9997 19.9997C34.9997 11.7155 28.2838 4.99967 19.9997 4.99967C11.7155 4.99967 4.99967 11.7155 4.99967 19.9997C4.99967 24.0963 6.64217 27.8097 9.30467 30.5163Z" fill="#FAFAFA"/>
</svg>
