<svg  viewBox="0 0 36 60"  xmlns="http://www.w3.org/2000/svg">
<g clip-path="url(#clip0_168_2620)">
<path d="M18.5651 40.2493C22.4898 40.2448 26.2525 38.6837 29.0277 35.9085C31.8028 33.1333 33.3639 29.3706 33.3684 25.4459V12.7021H3.76172V25.4459C3.76698 29.3699 5.32791 33.1317 8.10233 35.9067C10.8767 38.6816 14.6411 40.2433 18.5651 40.2493ZM5.63096 14.3953H10.858V15.5486H5.63096V14.3953ZM5.63096 18.5854H10.858V19.7388H5.63096V18.5854ZM5.63096 22.7557H10.858V23.9091H5.63096V22.7557ZM5.63096 26.9459H10.858V28.0992H5.63096V26.9459Z" fill="#FAFAFA"/>
<path d="M35.1871 -4.08896H-1.68066V25.4553C-1.67475 30.1355 -0.0509075 34.6698 2.91569 38.2898C5.88229 41.9098 10.0092 44.3928 14.5971 45.3181L14.7277 45.3408V46.1078C14.7277 46.7044 15.3726 47.1731 16.1765 47.1731H17.3981V51.3093H16.9407C16.733 51.3101 16.534 51.3929 16.3871 51.5398C16.2403 51.6867 16.1574 51.8856 16.1567 52.0934V58.2067C16.1567 58.6385 16.5061 58.9851 16.935 58.9851H17.3952V64.09H19.7531V58.9936H20.2133C20.421 58.9929 20.62 58.91 20.7669 58.7632C20.9138 58.6163 20.9966 58.4173 20.9974 58.2096V52.0877C20.9966 51.88 20.9138 51.681 20.7669 51.5341C20.62 51.3872 20.421 51.3044 20.2133 51.3036H19.7531V47.1674H20.9746C21.7871 47.1674 22.4263 46.6959 22.4263 46.1021V45.3351C31.8321 43.4574 38.8233 35.273 38.8347 25.4524V-4.0918L35.1871 -4.08896ZM35.1871 25.4553C35.1081 29.8096 33.3233 33.959 30.2165 37.011C27.1097 40.063 22.9291 41.7737 18.5741 41.7752C14.219 41.7767 10.0373 40.0688 6.92842 37.019C3.81955 33.9691 2.03186 29.8209 1.94987 25.4666V-0.452744H35.1871V25.4553Z" fill="#FAFAFA"/>
<path d="M5.63379 1.84766H10.8523V3.00102H5.63379V1.84766ZM5.63379 6.03498H10.8523V7.18834H5.63379V6.03498ZM5.63379 10.2252H10.8523V11.3785H5.63379V10.2252Z" fill="#FAFAFA"/>
</g>
<defs>
<clipPath id="clip0_168_2620">
<rect width="35.01" height="60" fill="white" transform="translate(0.744141)"/>
</clipPath>
</defs>
</svg>
