<svg width="68" height="61" viewBox="0 0 68 61" fill="none" xmlns="http://www.w3.org/2000/svg">
<path d="M47.0797 5.5C41.8088 5.5 37.1543 8.13239 34.3539 12.1534C31.5535 8.13239 26.9006 5.5 21.6281 5.5C13.0667 5.5 6.12817 12.4401 6.12817 21C6.12817 40.5071 34.3524 55.4985 34.3539 55.5C34.3539 55.4985 62.5812 40.5071 62.5812 21C62.5812 12.4401 55.6412 5.5 47.0797 5.5Z" fill="#FAFAFA"/>
<path d="M32.7079 48.0095C32.2192 48.0095 31.8017 47.6402 31.7207 47.1332L28.7996 28.7982L27.3334 32.9745C27.1896 33.3878 26.8154 33.6618 26.3965 33.6618H8.1282C7.57664 33.6618 7.12842 33.1929 7.12842 32.6141C7.12842 32.0338 7.57664 31.5648 8.1282 31.5648H25.6997L28.2243 24.3624C28.3807 23.9155 28.8108 23.6297 29.2562 23.681C29.7072 23.7249 30.073 24.0825 30.1484 24.5514L32.6549 40.2737L36.5046 13.3924C36.5786 12.8781 36.9989 12.5 37.4932 12.5C37.4988 12.5 37.503 12.5 37.5085 12.5C38.0098 12.5073 38.4273 12.903 38.486 13.4261L40.7522 33.5534L41.1767 32.2697C41.315 31.8477 41.6948 31.5648 42.1207 31.5648H59.748C60.2996 31.5648 60.7478 32.0338 60.7478 32.6141C60.7478 33.1929 60.2996 33.6618 59.748 33.6618H42.8314L41.2144 38.5548C41.0622 39.0164 40.628 39.3065 40.1616 39.2538C39.6994 39.201 39.3322 38.82 39.2777 38.3335L37.3745 21.4316L33.6951 47.1171C33.6225 47.6271 33.2064 48.0051 32.7163 48.0095C32.7121 48.0095 32.7093 48.0095 32.7079 48.0095Z" fill="#1B5196"/>
</svg>
