<svg  viewBox="0 0 61 60" xmlns="http://www.w3.org/2000/svg">
<path d="M52.3596 9.66164L52.4192 9.44067C53.1955 6.54917 51.4816 3.58207 48.5915 2.80577C47.1494 2.42198 45.684 2.65313 44.4818 3.34366C43.2781 4.03419 42.3404 5.18555 41.9566 6.63494L40.7718 11.0005C40.3793 12.4339 39.4417 13.6522 38.1536 14.395L26.6763 21.0285C26.6341 21.0546 26.608 21.0881 26.6007 21.1302C26.3957 21.9923 26.1995 22.9125 26.1137 23.3138C26.089 23.4155 26.1733 23.5188 26.2838 23.5188L27.7506 23.4591C27.9047 23.4504 27.9818 23.638 27.8786 23.7397L26.4117 25.1978C26.31 25.301 26.3783 25.4711 26.5237 25.4799L29.4137 25.6674C29.5329 25.6761 29.61 25.804 29.5504 25.9145L28.4164 28.0036C28.3481 28.1228 28.4499 28.2681 28.5865 28.2507L30.5825 27.9774C30.6072 27.9774 30.6247 27.9701 30.6421 27.9614L42.1529 21.3178C43.4409 20.5764 44.9673 20.3714 46.408 20.7465L50.7823 21.8978C53.6738 22.6741 56.6409 20.9602 57.4172 18.0701C57.7996 16.628 57.5699 15.1626 56.8793 13.9589C56.1888 12.7567 55.0374 11.819 53.5881 11.4352L53.3656 11.3756C52.9993 11.2738 52.7013 11.0354 52.5225 10.7272C52.3175 10.4118 52.2579 10.028 52.3596 9.66164Z" fill="#FAFAFA"/>
<path d="M26.4289 27.9023L23.8369 29.1888C23.709 29.2484 23.5636 29.1379 23.6072 28.9926L24.1437 26.998C24.1873 26.8527 24.0244 26.7334 23.8965 26.8105L22.6608 27.5941C22.5663 27.6551 22.4471 27.6115 22.4137 27.5097C22.3018 27.1594 22.0633 26.4267 21.8337 25.6766C21.79 25.5399 21.6025 25.5138 21.5269 25.6417L14.4239 37.9462C13.681 39.2342 12.4613 40.1719 11.0294 40.5644L6.64636 41.7579C3.75631 42.5342 2.04235 45.5013 2.81865 48.3914C3.20244 49.8335 4.1401 50.9848 5.34235 51.6841C6.5446 52.3833 8.00271 52.613 9.45209 52.2205L9.67306 52.1609C10.0409 52.0592 10.4246 52.1188 10.7314 52.2976C11.0381 52.4764 11.2765 52.7657 11.3798 53.1422L11.4394 53.3632C12.2142 56.2532 15.1828 57.9672 18.0728 57.1923C19.5135 56.8085 20.6648 55.8709 21.3641 54.6672C22.0546 53.4649 22.293 51.9996 21.902 50.5574L20.7419 46.1918C20.3668 44.7599 20.5718 43.2247 21.3132 41.9367L28.1865 30.0334C28.2796 29.8721 28.0833 29.7093 27.9379 29.8197L26.9915 30.5539C26.8811 30.6382 26.7284 30.5626 26.7284 30.426L26.6674 28.0549C26.6601 27.927 26.5322 27.8499 26.4289 27.9023Z" fill="#FAFAFA"/>
<path d="M21.5866 21.2845L17.8257 15.9885C17.7748 15.9216 17.6716 15.9129 17.612 15.9725L16.0769 17.5077C16.0173 17.5673 16.026 17.669 16.0943 17.7199L21.3903 21.4807C21.5182 21.5665 21.6709 21.4124 21.5866 21.2845Z" fill="#FAFAFA"/>
<path d="M23.4358 19.5534L24.5188 13.1496C24.5362 13.0653 24.4679 12.9883 24.3821 12.9883H22.2175C22.1317 12.9883 22.0634 13.0653 22.0809 13.1496L23.1639 19.5534C23.1886 19.7075 23.411 19.7075 23.4358 19.5534Z" fill="#FAFAFA"/>
<path d="M13.2551 24.4221L19.6589 23.3405C19.813 23.3144 19.813 23.0919 19.6589 23.0672L13.2551 21.9842C13.1693 21.9667 13.0938 22.0351 13.0938 22.1208V24.2869C13.0938 24.3712 13.1693 24.4308 13.2551 24.4221Z" fill="#FAFAFA"/>
</svg>
