<svg width="60" height="61" viewBox="0 0 60 61" fill="none" xmlns="http://www.w3.org/2000/svg">
<path d="M41.8063 6.04862C42.158 5.69732 42.6348 5.5 43.1319 5.5C43.629 5.5 44.1058 5.69732 44.4576 6.04862L54.4625 16.0536C54.7939 16.4092 54.9743 16.8795 54.9657 17.3655C54.9571 17.8515 54.7602 18.3152 54.4165 18.6589C54.0728 19.0026 53.6091 19.1995 53.1231 19.2081C52.6372 19.2166 52.1668 19.0362 51.8112 18.7049L50.6356 17.5293L46.396 21.7564L52.5741 27.9344C52.7532 28.1076 52.896 28.3146 52.9942 28.5435C53.0924 28.7725 53.144 29.0186 53.1461 29.2677C53.1481 29.5168 53.1005 29.7638 53.0061 29.9943C52.9117 30.2248 52.7723 30.4342 52.5961 30.6102C52.4198 30.7863 52.2103 30.9255 51.9797 31.0197C51.7491 31.1139 51.5021 31.1613 51.253 31.159C51.0039 31.1567 50.7578 31.1048 50.529 31.0064C50.3002 30.908 50.0932 30.765 49.9203 30.5857L46.2434 26.9089L29.1325 44.0224C27.3737 45.7807 24.9887 46.7685 22.5017 46.7687H16.3837L8.17965 54.9728C7.826 55.3147 7.35223 55.504 6.86036 55.4999C6.3685 55.4959 5.8979 55.2988 5.54992 54.9512C5.20194 54.6035 5.00443 54.1331 4.99993 53.6413C4.99542 53.1494 5.18428 52.6754 5.52584 52.3215L13.7299 44.1174V37.9969C13.7297 36.7651 13.9721 35.5452 14.4433 34.4071C14.9145 33.269 15.6053 32.2348 16.4762 31.3636L17.3317 30.5107L21.1586 34.3376C21.5122 34.6795 21.986 34.8688 22.4778 34.8647C22.9697 34.8607 23.4403 34.6636 23.7883 34.316C24.1363 33.9683 24.3338 33.4979 24.3383 33.0061C24.3428 32.5142 24.1539 32.0402 23.8124 31.6863L19.983 27.8594L22.3341 25.5082L26.161 29.3351C26.3328 29.5194 26.5399 29.6673 26.77 29.7698C27.0001 29.8723 27.2485 29.9275 27.5004 29.9319C27.7523 29.9363 28.0025 29.89 28.236 29.7957C28.4696 29.7013 28.6818 29.5609 28.86 29.3827C29.0381 29.2046 29.1785 28.9924 29.2729 28.7588C29.3672 28.5252 29.4136 28.2751 29.4091 28.0232C29.4047 27.7713 29.3495 27.5229 29.247 27.2928C29.1445 27.0627 28.9966 26.8556 28.8123 26.6838L24.9854 22.8569L27.3366 20.5058L31.1635 24.3327C31.3352 24.517 31.5423 24.6648 31.7725 24.7673C32.0026 24.8699 32.251 24.925 32.5029 24.9294C32.7547 24.9339 33.0049 24.8875 33.2385 24.7932C33.4721 24.6988 33.6843 24.5584 33.8624 24.3803C34.0406 24.2021 34.181 23.9899 34.2753 23.7564C34.3697 23.5228 34.416 23.2726 34.4116 23.0207C34.4071 22.7688 34.352 22.5204 34.2495 22.2903C34.1469 22.0602 33.9991 21.8531 33.8148 21.6813L29.9879 17.8545L33.5897 14.2527L29.9129 10.5759C29.5815 10.2202 29.4011 9.7499 29.4097 9.2639C29.4183 8.77791 29.6151 8.31422 29.9588 7.97052C30.3026 7.62681 30.7662 7.42994 31.2522 7.42136C31.7382 7.41279 32.2086 7.59318 32.5642 7.92455L38.7422 14.1026L42.9793 9.87551L41.8038 8.69993C41.4525 8.34819 41.2551 7.8714 41.2551 7.37428C41.2551 6.87715 41.455 6.40036 41.8063 6.04862ZM47.9793 14.878L45.6281 12.5268L41.3935 16.7539L43.7422 19.1051L47.9793 14.878Z" fill="#FAFAFA"/>
</svg>
