<svg viewBox="0 0 48 48"  xmlns="http://www.w3.org/2000/svg">
<path d="M19.2178 22.9244C20.4978 25.44 22.56 27.4933 25.0756 28.7822L27.0311 26.8267C27.2711 26.5867 27.6267 26.5067 27.9378 26.6133C28.9333 26.9422 30.0089 27.12 31.1111 27.12C31.6 27.12 32 27.52 32 28.0089V31.1111C32 31.6 31.6 32 31.1111 32C22.7644 32 16 25.2356 16 16.8889C16 16.4 16.4 16 16.8889 16H20C20.4889 16 20.8889 16.4 20.8889 16.8889C20.8889 18 21.0667 19.0667 21.3956 20.0622C21.4933 20.3733 21.4222 20.72 21.1733 20.9689L19.2178 22.9244Z" fill="#F9F9F4"/>
</svg>
