<svg width="60" height="61" viewBox="0 0 60 61" fill="none" xmlns="http://www.w3.org/2000/svg">
<path d="M40.2351 6.56242C39.1259 7.0915 38.3162 7.79806 37.9502 8.6122C37.5842 9.42635 37.562 10.4313 38.3162 11.9198C38.8486 12.9491 39.9024 14.1826 40.945 15.5469C41.9877 16.9001 43.0303 18.4197 43.4296 20.2277C43.9509 22.6124 43.108 25.1081 42.4424 27.3043C42.0986 28.4135 41.7991 29.4451 41.666 30.288C41.5329 31.131 41.5994 31.7522 41.788 32.1182C42.4646 33.3827 43.3742 33.9262 44.561 34.1037C45.7478 34.2811 47.2341 33.9928 48.7205 33.3161C51.7042 31.9851 54.6325 29.1123 55.5309 26.5168C56.2408 24.487 56.03 19.5289 54.6103 15.0699C53.2016 10.6132 50.6394 6.69108 47.3783 5.76601C45.1932 5.25911 42.1319 5.69059 40.2351 6.56242ZM13.548 5.76823C10.2858 6.69441 7.72914 10.6165 6.31048 15.081C4.89182 19.5289 4.68884 24.487 5.3954 26.5168C6.29828 29.1123 9.22544 31.9851 12.2047 33.3161C13.6922 33.9928 15.1785 34.2811 16.3653 34.1037C17.5521 33.9262 18.4617 33.3827 19.1383 32.1182C19.3269 31.7522 19.3934 31.131 19.2603 30.288C19.1272 29.4451 18.8277 28.4135 18.4839 27.3043C17.8184 25.1081 16.9754 22.6124 17.4967 20.2277C17.896 18.4197 18.9386 16.9001 19.9813 15.5469C21.0239 14.1826 22.0777 12.9491 22.6101 11.9198C23.3643 10.4313 23.3421 9.42635 22.9761 8.6122C22.6101 7.79806 21.8004 7.09261 20.6912 6.56352C18.3619 5.78709 15.9327 5.10494 13.548 5.76823ZM20.1033 18.9521C19.7705 19.6065 19.5487 20.2388 19.4045 20.8599C20.8021 21.5587 22.0444 22.3906 22.5435 23.1227C25.3165 27.149 26.2926 35.0465 26.4257 41.8569C26.5477 48.6674 25.9266 55.2782 25.9266 55.2782L27.9009 55.5C27.9009 55.5 28.5443 48.7783 28.4111 41.8126C28.2891 34.8579 27.4905 26.7941 24.1851 21.9913C23.2645 20.6603 21.7116 19.6953 20.1033 18.9521ZM40.823 18.9521C39.2147 19.6953 37.6618 20.6603 36.7412 21.9913C33.4358 26.7941 32.6372 34.8579 32.5152 41.8126C32.3821 48.7783 33.0254 55.5 33.0254 55.5L34.9998 55.2782C34.9998 55.2782 34.3786 48.6674 34.5006 41.8569C34.6337 35.0465 35.6098 27.149 38.3828 23.1227C38.8819 22.3906 40.1242 21.5587 41.5218 20.8599C41.3776 20.1833 41.1003 19.4845 40.823 18.9521Z" fill="#FAFAFA"/>
</svg>
