<svg   viewBox="0 0 65 60"  xmlns="http://www.w3.org/2000/svg">
<mask id="mask0_168_2632" style="mask-type:luminance" maskUnits="userSpaceOnUse" x="5" y="5" width="54" height="50">
<path d="M5.75391 5H58.9568V55H5.75391V5Z" fill="white"/>
</mask>
<g mask="url(#mask0_168_2632)">
<path d="M10.5815 9.23755C10.644 8.83163 11.0249 8.55361 11.4322 8.61616L14.6962 9.11939L14.1902 5.85955C14.1263 5.45224 14.4057 5.07135 14.813 5.00879C15.2189 4.94623 15.5998 5.22426 15.6638 5.63018L16.2893 9.65598L18.6414 12.0039C18.273 12.3389 17.9338 12.7073 17.6322 13.1035L15.2342 10.7083L11.2042 10.0869C10.7969 10.0244 10.5189 9.64485 10.5815 9.23755ZM58.2641 48.1749L54.2383 47.5535L51.9516 45.271C51.6249 45.6463 51.2635 45.991 50.8742 46.301L53.1832 48.6073L53.8046 52.6317C53.8616 52.9987 54.1799 53.2628 54.5414 53.2628C54.5789 53.2628 54.6178 53.26 54.6554 53.2531C55.0627 53.1905 55.3421 52.811 55.2781 52.4037L54.7749 49.1438L58.0361 49.6471C58.4435 49.7096 58.8243 49.4316 58.8869 49.0243C58.9495 48.6184 58.6714 48.2375 58.2641 48.1749ZM52.4645 12.4765L54.2342 10.7097L58.2641 10.0869C58.6714 10.0244 58.9495 9.64485 58.8869 9.23755C58.8243 8.83163 58.4435 8.55222 58.0361 8.61616L54.7749 9.11939L55.2781 5.85816C55.3421 5.45224 55.0627 5.07135 54.6554 5.00879C54.2481 4.94623 53.8685 5.22565 53.8046 5.63157L53.1832 9.6532L51.4164 11.4173C51.7973 11.737 52.149 12.0915 52.4645 12.4765ZM12.397 45.5685L6.30961 51.6489C5.56867 52.3884 5.56867 53.5923 6.30961 54.3332C7.05194 55.0727 8.25717 55.0727 8.99811 54.3332L15.0841 48.2514C14.5836 47.8677 14.1054 47.4507 13.6522 46.9975C13.1991 46.5443 12.7792 46.0675 12.397 45.5685ZM51.0341 35.857C50.093 34.6629 48.7557 33.8261 47.2877 33.4924C46.8248 35.4414 45.0704 36.8927 42.9811 36.8927C42.5696 36.8927 42.236 36.5591 42.236 36.149C42.236 35.7375 42.5696 35.4039 42.9811 35.4039C44.5047 35.4039 45.76 34.2389 45.9031 32.7529C45.9129 32.6598 45.917 32.5652 45.917 32.4693V32.4443C45.9059 31.1362 45.0218 29.9865 43.7582 29.6418C43.362 29.5334 43.1284 29.1233 43.2369 28.7257C43.3439 28.3295 43.754 28.096 44.1516 28.2058C45.9129 28.684 47.1876 30.2048 47.3808 31.9897C49.1227 32.3317 50.731 33.2506 51.9126 34.5879C54.5928 33.9998 56.5682 31.5852 56.5682 28.8077C56.5682 25.9774 54.5497 23.535 51.7695 22.9998C51.5123 22.9497 51.2996 22.7676 51.2092 22.5216C51.1203 22.2755 51.1675 22.0003 51.333 21.7973C52.2921 20.6241 52.819 19.1408 52.819 17.6186C52.819 13.9668 49.8441 10.9961 46.1881 10.9961C44.7813 10.9961 43.4371 11.4312 42.2999 12.2541C40.5817 13.4969 39.5558 15.5042 39.5558 17.6186C39.5558 18.0301 39.2222 18.3637 38.8107 18.3637C38.3992 18.3637 38.0642 18.0301 38.0642 17.6186C38.0642 15.1998 39.1596 12.8977 41.0155 11.3644C40.18 8.57307 37.6319 6.66165 34.6695 6.66165C31.8101 6.66165 29.305 8.47298 28.3945 11.1295C30.7675 12.6072 32.2188 15.1915 32.2188 18.012C32.2188 18.4235 31.8837 18.7571 31.4723 18.7571C31.0608 18.7571 30.7258 18.4235 30.7258 18.012C30.7258 15.5404 29.3634 13.2898 27.167 12.1401C26.2134 11.6425 25.1805 11.3895 24.0949 11.3895C20.4374 11.3895 17.4626 14.3602 17.4626 18.012C17.4626 19.0296 17.6864 20.0041 18.1284 20.909C18.2258 21.1078 18.2285 21.3386 18.1382 21.5401C18.0478 21.7417 17.8713 21.8932 17.6586 21.953C15.0813 22.6675 13.2046 24.8764 12.864 27.4815C13.1143 27.1882 13.377 26.9032 13.6522 26.6294C16.3741 23.9131 19.9968 22.4159 23.853 22.4159C27.7106 22.4159 31.3319 23.9131 34.0509 26.6294C36.7714 29.3457 38.27 32.9614 38.27 36.8134C38.27 40.6641 36.7714 44.2812 34.0509 46.9975C32.8624 48.1833 31.5028 49.1369 30.0251 49.8361C31.2179 50.8968 32.7748 51.5071 34.4304 51.5071C37.5443 51.5071 40.1897 49.3871 40.8876 46.4025C39.143 45.1778 38.3422 44.2659 38.3422 41.8693C38.3422 41.4579 38.6759 41.1242 39.0874 41.1242C39.5002 41.1242 39.8325 41.4579 39.8325 41.8693C39.8325 43.942 40.5164 44.3813 42.1178 45.4447C42.1554 45.4697 42.1929 45.4948 42.2318 45.5212C43.3022 46.2107 44.5408 46.5749 45.8239 46.5749C49.4813 46.5749 52.4562 43.6028 52.4562 39.951C52.4562 38.4524 51.9641 37.0359 51.0341 35.857ZM32.9944 45.9424C31.8059 47.1282 30.4422 48.0359 28.9853 48.6629C28.5127 48.8658 28.0317 49.0396 27.5438 49.1842C26.3413 49.54 25.0971 49.7166 23.853 49.7166C21.6302 49.7166 19.4088 49.1508 17.4264 48.0178C16.9885 47.7676 16.5632 47.491 16.1517 47.1852C15.6471 46.8126 15.1647 46.3984 14.7087 45.9424C14.2556 45.4892 13.8399 45.0096 13.4632 44.505C13.1588 44.0963 12.8793 43.6709 12.6277 43.233C11.5142 41.2994 10.922 39.103 10.922 36.8134C10.922 34.9938 11.296 33.2311 12.0077 31.6144C12.2816 30.9944 12.6027 30.3966 12.9753 29.8253C13.4688 29.0593 14.0498 28.342 14.7087 27.6831C19.7521 22.6495 27.9538 22.6495 32.9944 27.6831C35.5147 30.1992 36.7756 33.5063 36.7756 36.8121C36.7756 40.1192 35.5147 43.4263 32.9944 45.9424ZM31.9393 44.8901C36.4002 40.4361 36.4002 33.1908 31.9393 28.7368C30.8258 27.6247 29.5358 26.7893 28.1582 26.2332C26.782 25.6758 25.3168 25.3977 23.853 25.3977C20.9226 25.3977 17.9936 26.5098 15.7625 28.7368C14.8269 29.671 14.0721 30.7386 13.5188 31.898C13.5077 31.9216 13.4966 31.9438 13.4868 31.9675C12.782 33.4646 12.4123 35.1105 12.4123 36.8134C12.4123 39.8648 13.6022 42.7326 15.7625 44.8901C20.2248 49.3426 27.4812 49.3426 31.9393 44.8901ZM23.853 29.81C24.4299 29.81 24.9818 29.9615 25.4683 30.2423L26.5874 28.8689C25.7769 28.3406 24.8302 28.0543 23.853 28.0543C22.8757 28.0543 21.9277 28.3406 21.1186 28.8689L22.2363 30.2423C22.7228 29.9615 23.2761 29.81 23.853 29.81ZM26.7083 35.7319L28.8505 33.1004V33.0448C28.8505 31.9063 28.4585 30.8067 27.7565 29.9296L24.8692 33.473L26.7083 35.7319ZM17.3792 42.6659L19.5936 44.4633L22.8368 40.4834L20.9963 38.2258L17.3792 42.6659ZM18.8555 33.0448C18.8555 33.0643 18.8555 33.0851 18.8569 33.1032L28.1123 44.4633L30.324 42.6659L19.9495 29.9296C19.2475 30.8081 18.8555 31.9063 18.8555 33.0448Z" fill="#FAFAFA"/>
</g>
</svg>
