<svg width="64" height="61" viewBox="0 0 64 61" fill="none" xmlns="http://www.w3.org/2000/svg">
<mask id="mask0_1075_2391" style="mask-type:luminance" maskUnits="userSpaceOnUse" x="5" y="5" width="54" height="51">
<path d="M5.07831 5.5H58.2812V55.5H5.07831V5.5Z" fill="white"/>
</mask>
<g mask="url(#mask0_1075_2391)">
<path d="M9.90586 9.73755C9.96842 9.33163 10.3493 9.05361 10.7566 9.11616L14.0206 9.61939L13.5146 6.35955C13.4507 5.95224 13.7301 5.57135 14.1374 5.50879C14.5433 5.44623 14.9242 5.72426 14.9882 6.13018L15.6137 10.156L17.9658 12.5039C17.5974 12.8389 17.2582 13.2073 16.9566 13.6035L14.5586 11.2083L10.5286 10.5869C10.1213 10.5244 9.84331 10.1449 9.90586 9.73755ZM57.5885 48.6749L53.5627 48.0535L51.276 45.771C50.9493 46.1463 50.5879 46.491 50.1986 46.801L52.5076 49.1073L53.129 53.1317C53.186 53.4987 53.5043 53.7628 53.8658 53.7628C53.9033 53.7628 53.9422 53.76 53.9798 53.7531C54.3871 53.6905 54.6665 53.311 54.6025 52.9037L54.0993 49.6438L57.3605 50.1471C57.7679 50.2096 58.1487 49.9316 58.2113 49.5243C58.2739 49.1184 57.9958 48.7375 57.5885 48.6749ZM51.7889 12.9765L53.5586 11.2097L57.5885 10.5869C57.9958 10.5244 58.2739 10.1449 58.2113 9.73755C58.1487 9.33163 57.7679 9.05222 57.3605 9.11616L54.0993 9.61939L54.6025 6.35816C54.6665 5.95224 54.3871 5.57135 53.9798 5.50879C53.5725 5.44623 53.193 5.72565 53.129 6.13157L52.5076 10.1532L50.7408 11.9173C51.1217 12.237 51.4734 12.5915 51.7889 12.9765ZM11.7214 46.0685L5.63401 52.1489C4.89307 52.8884 4.89307 54.0923 5.63401 54.8332C6.37634 55.5727 7.58158 55.5727 8.32251 54.8332L14.4085 48.7514C13.908 48.3677 13.4298 47.9507 12.9766 47.4975C12.5235 47.0443 12.1037 46.5675 11.7214 46.0685ZM50.3585 36.357C49.4174 35.1629 48.0801 34.3261 46.6121 33.9924C46.1492 35.9414 44.3949 37.3927 42.3055 37.3927C41.894 37.3927 41.5604 37.0591 41.5604 36.649C41.5604 36.2375 41.894 35.9039 42.3055 35.9039C43.8291 35.9039 45.0844 34.7389 45.2275 33.2529C45.2373 33.1598 45.2414 33.0652 45.2414 32.9693V32.9443C45.2303 31.6362 44.3462 30.4865 43.0826 30.1418C42.6864 30.0334 42.4529 29.6233 42.5613 29.2257C42.6683 28.8295 43.0784 28.596 43.476 28.7058C45.2373 29.184 46.512 30.7048 46.7052 32.4897C48.4471 32.8317 50.0554 33.7506 51.237 35.0879C53.9172 34.4998 55.8926 32.0852 55.8926 29.3077C55.8926 26.4774 53.8741 24.035 51.0939 23.4998C50.8367 23.4497 50.624 23.2676 50.5336 23.0216C50.4447 22.7755 50.4919 22.5003 50.6574 22.2973C51.6166 21.1241 52.1434 19.6408 52.1434 18.1186C52.1434 14.4668 49.1685 11.4961 45.5125 11.4961C44.1057 11.4961 42.7615 11.9312 41.6243 12.7541C39.9061 13.9969 38.8802 16.0042 38.8802 18.1186C38.8802 18.5301 38.5466 18.8637 38.1351 18.8637C37.7236 18.8637 37.3886 18.5301 37.3886 18.1186C37.3886 15.6998 38.484 13.3977 40.3399 11.8644C39.5044 9.07307 36.9563 7.16165 33.9939 7.16165C31.1345 7.16165 28.6295 8.97298 27.7189 11.6295C30.0919 13.1072 31.5432 15.6915 31.5432 18.512C31.5432 18.9235 31.2081 19.2571 30.7967 19.2571C30.3852 19.2571 30.0502 18.9235 30.0502 18.512C30.0502 16.0404 28.6878 13.7898 26.4914 12.6401C25.5378 12.1425 24.505 11.8895 23.4193 11.8895C19.7618 11.8895 16.787 14.8602 16.787 18.512C16.787 19.5296 17.0108 20.5041 17.4528 21.409C17.5502 21.6078 17.5529 21.8386 17.4626 22.0401C17.3722 22.2417 17.1957 22.3932 16.983 22.453C14.4057 23.1675 12.529 25.3764 12.1884 27.9815C12.4387 27.6882 12.7014 27.4032 12.9766 27.1294C15.6985 24.4131 19.3212 22.9159 23.1774 22.9159C27.035 22.9159 30.6563 24.4131 33.3753 27.1294C36.0958 29.8457 37.5944 33.4614 37.5944 37.3134C37.5944 41.1641 36.0958 44.7812 33.3753 47.4975C32.1868 48.6833 30.8272 49.6369 29.3495 50.3361C30.5423 51.3968 32.0992 52.0071 33.7548 52.0071C36.8687 52.0071 39.5141 49.8871 40.212 46.9025C38.4674 45.6778 37.6666 44.7659 37.6666 42.3693C37.6666 41.9579 38.0003 41.6242 38.4118 41.6242C38.8246 41.6242 39.1569 41.9579 39.1569 42.3693C39.1569 44.442 39.8408 44.8813 41.4422 45.9447C41.4798 45.9697 41.5173 45.9948 41.5562 46.0212C42.6266 46.7107 43.8652 47.0749 45.1483 47.0749C48.8057 47.0749 51.7806 44.1028 51.7806 40.451C51.7806 38.9524 51.2885 37.5359 50.3585 36.357ZM32.3188 46.4424C31.1303 47.6282 29.7666 48.5359 28.3097 49.1629C27.8371 49.3658 27.3561 49.5396 26.8682 49.6842C25.6657 50.04 24.4215 50.2166 23.1774 50.2166C20.9546 50.2166 18.7332 49.6508 16.7508 48.5178C16.3129 48.2676 15.8876 47.991 15.4761 47.6852C14.9715 47.3126 14.4891 46.8984 14.0331 46.4424C13.58 45.9892 13.1643 45.5096 12.7876 45.005C12.4832 44.5963 12.2037 44.1709 11.9521 43.733C10.8386 41.7994 10.2464 39.603 10.2464 37.3134C10.2464 35.4938 10.6204 33.7311 11.3321 32.1144C11.606 31.4944 11.9271 30.8966 12.2997 30.3253C12.7932 29.5593 13.3742 28.842 14.0331 28.1831C19.0765 23.1495 27.2782 23.1495 32.3188 28.1831C34.8391 30.6992 36.1 34.0063 36.1 37.3121C36.1 40.6192 34.8391 43.9263 32.3188 46.4424ZM31.2637 45.3901C35.7246 40.9361 35.7246 33.6908 31.2637 29.2368C30.1502 28.1247 28.8602 27.2893 27.4826 26.7332C26.1064 26.1758 24.6412 25.8977 23.1774 25.8977C20.247 25.8977 17.318 27.0098 15.0869 29.2368C14.1513 30.171 13.3965 31.2386 12.8432 32.398C12.8321 32.4216 12.821 32.4438 12.8112 32.4675C12.1064 33.9646 11.7367 35.6105 11.7367 37.3134C11.7367 40.3648 12.9266 43.2326 15.0869 45.3901C19.5492 49.8426 26.8056 49.8426 31.2637 45.3901ZM23.1774 30.31C23.7543 30.31 24.3062 30.4615 24.7927 30.7423L25.9118 29.3689C25.1013 28.8406 24.1546 28.5543 23.1774 28.5543C22.2001 28.5543 21.2521 28.8406 20.443 29.3689L21.5607 30.7423C22.0472 30.4615 22.6005 30.31 23.1774 30.31ZM26.0327 36.2319L28.1749 33.6004V33.5448C28.1749 32.4063 27.7829 31.3067 27.0809 30.4296L24.1936 33.973L26.0327 36.2319ZM16.7036 43.1659L18.918 44.9633L22.1612 40.9834L20.3207 38.7258L16.7036 43.1659ZM18.1799 33.5448C18.1799 33.5643 18.1799 33.5851 18.1813 33.6032L27.4367 44.9633L29.6484 43.1659L19.2739 30.4296C18.5719 31.3081 18.1799 32.4063 18.1799 33.5448Z" fill="#FAFAFA"/>
</g>
</svg>
