<svg width="60" height="60" viewBox="0 0 60 60" fill="none" xmlns="http://www.w3.org/2000/svg">
<path d="M43.2306 17.0194C41.5264 18.0944 40.1639 19.3069 39.1111 20.7056V5H36.3333V26.1736C35.7425 25.5095 35.0711 24.9216 34.3347 24.4236C31.6681 22.6153 28.3347 22.0319 25.3722 22.3347C24.8512 21.6921 24.1933 21.1739 23.4465 20.8181C22.6997 20.4622 21.8828 20.2776 21.0556 20.2778C11.0833 20.2778 3 28.3611 3 38.3333V42.5H3.02639C3.2002 44.7683 4.22396 46.8873 5.89289 48.4332C7.56182 49.9792 9.75286 50.838 12.0278 50.838C14.3027 50.838 16.4937 49.9792 18.1627 48.4332C19.8316 46.8873 20.8554 44.7683 21.0292 42.5H21.0556V34.1667C21.0556 32.6319 22.3736 31.4458 23.7194 30.7097C24.7139 30.1667 25.5186 29.3326 26.0255 28.3192C26.5324 27.3059 26.7174 26.1617 26.5556 25.0403C28.7347 24.9833 30.9958 25.5153 32.7764 26.7222C34.8111 28.1028 36.3333 30.4417 36.3333 34.1667V55H39.1111V28.6806C39.3292 26.5389 39.8333 24.8014 40.6972 23.3278C41.5639 21.8458 42.8403 20.55 44.7139 19.3694C48.0208 17.2819 53.5278 15.5292 56.1194 14.8708L55.4361 12.1792C54.0417 12.5319 51.7653 13.2069 49.3847 14.1042C49.7487 13.1458 49.9004 12.1199 49.8292 11.0972C49.6278 8.27222 47.6972 5.93472 45.1069 5.07083L44.2278 7.70694C45.8028 8.23194 46.9403 9.64167 47.0583 11.2944C47.1722 12.8889 46.3417 15.0583 43.2306 17.0194Z" fill="#FAFAFA"/>
</svg>
