<svg width="60" height="61" viewBox="0 0 60 61" fill="none" xmlns="http://www.w3.org/2000/svg">
<path d="M29.0867 45.7282C28.8132 45.4551 28.4426 45.3017 28.0561 45.3017C27.6696 45.3017 27.299 45.4551 27.0255 45.7282L20.1622 52.5866L19.3082 51.7326L28.5113 42.542C28.7848 42.2686 28.9386 41.8978 28.9387 41.5111C28.9389 41.1244 28.7854 40.7535 28.5121 40.48C28.2388 40.2064 27.868 40.0527 27.4813 40.0525C27.0946 40.0524 26.7237 40.2058 26.4501 40.4791L17.2495 49.6714L16.3972 48.8191L27.101 38.1245C27.3562 37.8479 27.4947 37.4833 27.4873 37.1069C27.48 36.7306 27.3274 36.3716 27.0615 36.1052C26.7956 35.8388 26.437 35.6855 26.0606 35.6774C25.6843 35.6692 25.3194 35.807 25.0423 36.0617L14.3369 46.7555L13.4846 45.9015L21.8851 37.5076C22.1401 37.2308 22.2783 36.8661 22.2706 36.4898C22.2629 36.1134 22.1101 35.7546 21.844 35.4884C21.5778 35.2222 21.2191 35.0692 20.8428 35.0613C20.4664 35.0535 20.1017 35.1915 19.8247 35.4465L9.01735 46.2331C9.00762 44.6932 9.00237 43.1533 9.0016 41.6134C9.0016 39.257 6.02428 38.908 5.87587 39.0722C5.73078 39.243 4.24585 55.6062 4.24585 55.6062H21.2856L22.2349 54.6568L22.2225 54.6461L29.0883 47.786C29.3617 47.5128 29.5154 47.1422 29.5156 46.7556C29.5157 46.3691 29.3623 45.9983 29.0892 45.7249L29.0867 45.7282Z" fill="#FAFAFA"/>
<path d="M36.7534 5.60862C28.1373 5.60862 20.1986 12.0723 18.5438 19.1902C18.1731 20.7771 17.7586 24.9094 17.7586 24.9094L13.7996 34.8868C13.7013 35.1195 13.6621 35.3729 13.6856 35.6244C13.7091 35.8759 13.7946 36.1177 13.9344 36.3281C14.0741 36.5385 14.2639 36.711 14.4866 36.8302C14.7093 36.9493 14.9581 37.0114 15.2107 37.011H16.5622L18.9757 34.5991C19.3151 34.2592 19.7403 34.0179 20.2061 33.9007C20.6719 33.7836 21.1607 33.7951 21.6205 33.934C22.0802 34.0729 22.4936 34.334 22.8167 34.6894C23.1397 35.0448 23.3601 35.4813 23.4545 35.9522L24.1933 35.2143C24.6881 34.7332 25.351 34.464 26.0411 34.4636C26.7313 34.4632 27.3944 34.7318 27.8898 35.2123C28.3852 35.6928 28.6738 36.3474 28.6945 37.0372C28.7152 37.7271 28.4663 38.3978 28.0005 38.9071C28.4716 39.0017 28.9082 39.2222 29.2639 39.5453C29.6195 39.8683 29.8809 40.2818 30.0202 40.7416C30.1595 41.2015 30.1714 41.6905 30.0548 42.1566C29.9381 42.6227 29.6972 43.0484 29.3578 43.3884L28.5867 44.1578C29.0808 44.2582 29.5518 44.4978 29.934 44.88C30.4322 45.3783 30.7121 46.0541 30.7121 46.7588C30.7121 47.4634 30.4322 48.1392 29.934 48.6375L28.2219 50.3471V55.6078H48.491V39.5008C52.9035 36.031 55.7465 30.6368 55.7465 24.5852C55.7465 14.102 47.2474 5.60779 36.7534 5.60779V5.60862ZM22.4356 28.6992C22.1574 28.6995 21.8819 28.6449 21.6248 28.5387C21.3676 28.4325 21.134 28.2767 20.9371 28.0802C20.5394 27.6833 20.3157 27.1447 20.3151 26.5829C20.3146 26.0211 20.5372 25.482 20.9341 25.0844C21.331 24.6867 21.8696 24.463 22.4314 24.4625C22.9932 24.4619 23.5323 24.6846 23.9299 25.0815C24.3276 25.4783 24.5513 26.0169 24.5519 26.5788C24.5524 27.1406 24.3298 27.6796 23.9329 28.0773C23.536 28.4749 22.9974 28.6986 22.4356 28.6992ZM32.3484 33.6348C32.8773 33.6348 33.3151 34.0685 33.3151 34.5958C33.3151 35.1297 32.8773 35.56 32.3484 35.56C32.2186 35.5654 32.0891 35.5445 31.9676 35.4986C31.8461 35.4526 31.7352 35.3826 31.6414 35.2927C31.5477 35.2027 31.4731 35.0948 31.4222 34.9753C31.3712 34.8559 31.345 34.7273 31.345 34.5974C31.345 34.4676 31.3712 34.339 31.4222 34.2195C31.4731 34.1001 31.5477 33.9921 31.6414 33.9022C31.7352 33.8123 31.8461 33.7423 31.9676 33.6963C32.0891 33.6504 32.2186 33.6295 32.3484 33.6348ZM31.773 39.6616C31.6462 39.6614 31.5208 39.6362 31.4038 39.5875C31.2868 39.5388 31.1805 39.4675 31.091 39.3778C31.0016 39.288 30.9307 39.1815 30.8824 39.0643C30.8341 38.9471 30.8093 38.8216 30.8095 38.6949C30.8097 38.5681 30.8349 38.4427 30.8836 38.3257C30.9323 38.2087 31.0036 38.1024 31.0934 38.0129C31.1831 37.9235 31.2896 37.8526 31.4068 37.8043C31.524 37.756 31.6495 37.7312 31.7763 37.7315C32.0322 37.7319 32.2775 37.834 32.4582 38.0153C32.6389 38.1966 32.7401 38.4422 32.7397 38.6982C32.7392 38.9541 32.6371 39.1994 32.4558 39.3801C32.2746 39.5608 32.0289 39.6621 31.773 39.6616ZM33.8324 43.8121C33.4493 43.78 33.0945 43.5971 32.8461 43.3036C32.5976 43.0101 32.4759 42.63 32.5075 42.2468C32.5419 41.8649 32.726 41.5122 33.0196 41.2656C33.3132 41.0191 33.6925 40.8988 34.0745 40.931C34.868 40.999 35.4592 41.7004 35.3878 42.4922C35.3726 42.681 35.3202 42.865 35.2337 43.0335C35.1472 43.2021 35.0284 43.3519 34.8839 43.4745C34.7394 43.597 34.5721 43.6898 34.3917 43.7476C34.2113 43.8054 34.0212 43.8279 33.8324 43.8121ZM35.222 38.0308C35.0326 38.0308 34.845 37.9934 34.67 37.9209C34.4949 37.8484 34.3359 37.7422 34.2019 37.6082C34.068 37.4743 33.9617 37.3152 33.8892 37.1402C33.8167 36.9652 33.7794 36.7776 33.7794 36.5881C33.7794 36.3987 33.8167 36.2111 33.8892 36.036C33.9617 35.861 34.068 35.702 34.2019 35.568C34.3359 35.4341 34.4949 35.3278 34.67 35.2553C34.845 35.1828 35.0326 35.1455 35.222 35.1455C36.0138 35.1455 36.6589 35.7905 36.6589 36.5873C36.6589 37.3841 36.0138 38.0308 35.222 38.0308ZM37.2724 41.0562C36.7368 41.0562 36.3024 40.6267 36.3024 40.0903C36.3127 39.8408 36.4191 39.605 36.5992 39.4321C36.7794 39.2593 37.0194 39.1627 37.2691 39.1627C37.5188 39.1627 37.7588 39.2593 37.939 39.4321C38.1191 39.605 38.2255 39.8408 38.2358 40.0903C38.2358 40.6259 37.8055 41.0562 37.2724 41.0562ZM39.4281 35.4506H39.0906V33.7285L39.4239 33.7252C40.4581 33.7217 41.449 33.31 42.1811 32.5796C42.9132 31.8492 43.3273 30.8592 43.3332 29.8251C43.3275 28.7912 42.9137 27.8014 42.1819 27.071C41.4501 26.3406 40.4595 25.9287 39.4256 25.925L39.0906 25.9233V24.203H39.4281C42.5331 24.203 45.0569 26.7234 45.0569 29.8251C45.0569 32.9268 42.5331 35.4506 39.4281 35.4506Z" fill="#FAFAFA"/>
</svg>
