<svg width="60" height="60" viewBox="0 0 60 60" fill="none" xmlns="http://www.w3.org/2000/svg">
<path d="M10 45C11.675 49.625 15.175 55 30 55C35.9 55 42.675 54.825 47.5 50C50 47.5 55 42.5 55 27.5C55 12.5 50 10 45 10C41.55 10 37.5 10 35 15V15.075C34.55 15.8909 33.8604 16.5491 33.0243 16.9604C32.1882 17.3717 31.246 17.5165 30.325 17.375C27.5 17.025 27.5 15.925 27.5 15V5H22.5V15C22.4724 15.9924 22.6476 16.98 23.0147 17.9024C23.3819 18.8249 23.9333 19.6627 24.6353 20.3647C25.3373 21.0667 26.1752 21.6182 27.0976 21.9853C28.02 22.3524 29.0076 22.5276 30 22.5C32.5 22.5 32.5 26.95 32.5 30C32.5 34.725 31.25 38.15 27.5 40C21.725 42.875 15.975 42.5 14.025 38.675C13.8242 38.0724 13.4737 37.5307 13.0062 37.1007C12.5388 36.6707 11.9697 36.3664 11.3525 36.2165C10.7353 36.0666 10.0902 36.0759 9.47752 36.2435C8.86489 36.4112 8.30488 36.7317 7.85002 37.175C6.79144 38.1621 5.9814 39.3856 5.48607 40.7455C4.99075 42.1055 4.8242 43.5634 5.00002 45V55H10V45Z" fill="#FAFAFA"/>
</svg>
