<svg viewBox="0 0 61 60"  xmlns="http://www.w3.org/2000/svg">
<path d="M48.038 50.4346H36.1681C36.3963 49.9781 36.3963 49.5216 36.3963 49.065C43.2444 46.3258 47.8098 39.706 47.8098 32.1732C47.8098 27.6078 45.9836 23.2707 43.0161 19.8467L44.3857 18.4771C44.614 18.2488 44.8423 18.0205 44.8423 17.564L46.4402 12.7704C46.6684 11.8573 46.4402 10.9442 45.9836 10.4877L41.19 5.69405C40.5052 5.00925 39.5921 4.78098 38.9073 5.23752L34.3419 6.60713C34.1137 6.60713 33.6571 6.8354 33.4289 7.06366L18.8197 21.6728C17.9066 22.5859 17.9066 23.9555 18.8197 24.8686L15.6239 28.0643C14.7109 28.9774 14.7109 30.347 15.6239 31.2601L20.4176 36.0537C21.3306 36.9668 22.7003 36.9668 23.6133 36.0537L26.8091 32.858C27.7222 33.7711 29.0918 33.7711 30.0048 32.858L40.0486 23.0424C42.3313 25.5534 43.4727 28.7491 43.4727 32.1732C43.4727 37.4233 40.2769 42.217 35.4833 44.4997C33.4289 41.3039 29.32 40.1626 26.1243 42.217C25.2112 42.9018 24.2981 43.5866 23.8416 44.7279C22.9285 44.2714 22.0154 44.0431 21.3306 43.3583C22.2437 43.1301 22.9285 42.217 22.9285 41.3039C22.9285 39.9343 22.0154 39.0212 20.6458 39.0212H11.5151C10.1455 39.0212 9.23242 39.9343 9.23242 41.3039C9.23242 42.6735 10.1455 43.5866 11.5151 43.5866H14.4826C16.7653 46.0975 19.7328 48.152 22.9285 49.2933C22.9285 49.7498 23.1568 50.2064 23.1568 50.4346H11.5151C10.1455 50.4346 9.23242 51.3477 9.23242 52.7173C9.23242 54.0869 10.1455 55 11.5151 55H48.038C49.4076 55 50.3207 54.0869 50.3207 52.7173C50.3207 51.576 49.4076 50.4346 48.038 50.4346ZM22.0154 31.2601L20.4176 29.6622L22.0154 28.0643L23.6133 29.6622L22.0154 31.2601ZM29.7766 50.4346C28.407 50.4346 27.4939 49.5216 27.4939 48.152C27.4939 46.7823 28.407 45.8693 29.7766 45.8693C31.1462 45.8693 32.0592 46.7823 32.0592 48.152C32.0592 49.5216 31.1462 50.4346 29.7766 50.4346Z" fill="#FAFAFA"/>
</svg>
