<svg viewBox="0 0 579 586" xmlns="http://www.w3.org/2000/svg">
<mask id="mask0_142_4334" style="mask-type:luminance" maskUnits="userSpaceOnUse" x="-1" y="-2" width="582" height="588">
<path d="M2.5 0.486077H0.986077V2V582.529V584.043H2.5H577.5H579.014V582.529V2V0.486077H577.5H2.5Z" fill="white" stroke="white" stroke-width="3.02785"/>
</mask>
<g mask="url(#mask0_142_4334)">
<path d="M565.241 45.1465L565.233 45.1354C553.297 27.9066 535.52 19.2207 524.778 15.7895C522.019 12.7844 518.081 9.86064 514.295 7.52446C510.395 5.1173 506.488 3.23128 503.995 2.51687C496.682 0.327822 489.242 4.00053 487.018 11.4132L487.018 11.4138C484.826 18.7301 488.488 26.168 495.89 28.401C498.038 29.1129 501.945 29.7778 506.243 30.1084C510.45 30.432 515.186 30.4477 519.217 29.8217C527.691 32.4723 542.793 38.9224 552.882 53.4255C561.81 66.8133 565.064 84.1036 560.538 105.447L560.536 105.458L560.534 105.47L522.445 299.852L522.417 299.996V300.143C522.417 300.122 522.416 300.126 522.41 300.161C522.397 300.226 522.365 300.4 522.281 300.719C522.168 301.146 521.992 301.723 521.748 302.433C521.262 303.851 520.52 305.756 519.512 307.974C517.495 312.409 514.431 318.048 510.251 323.516C500.618 335.714 488.47 343.38 473.11 345.939L473.359 347.432L473.11 345.939C469.149 346.599 465.334 347.231 461.541 347.231H460.885C440.299 347.231 423.68 339.532 411.504 324.165C407.004 318.379 403.947 312.586 402.016 308.159C401.051 305.947 400.371 304.083 399.934 302.743C399.716 302.072 399.56 301.538 399.462 301.162C399.412 300.973 399.379 300.833 399.359 300.741C399.357 300.728 399.354 300.716 399.352 300.706V300.653L399.324 300.508L373.711 169.834L373.71 169.829L370.428 152.755L370.427 152.748L361.239 106.147C361.239 106.144 361.238 106.14 361.238 106.137C357.348 84.7283 359.978 67.4413 368.88 54.0797C378.977 39.5784 394.078 33.1288 402.544 30.4783C406.575 31.1042 411.313 31.0885 415.522 30.765C419.821 30.4344 423.731 29.7695 425.879 29.0576C433.281 26.8246 436.943 19.3867 434.751 12.0703L434.751 12.0698C432.527 4.65734 425.088 0.984643 417.775 3.17318C415.262 3.8919 411.508 5.78816 407.701 8.18875C403.973 10.5395 400.057 13.4604 397.033 16.4324C386.312 19.8398 369.134 27.8884 356.542 45.7828L356.535 45.7929L356.528 45.8031C345.099 62.6194 341.128 84.0627 346.45 109.353C346.45 109.354 346.45 109.355 346.45 109.355L353.671 144.808L353.672 144.815L356.952 160.566L356.955 160.58L385.177 302.988C385.196 303.153 385.23 303.301 385.246 303.373C385.285 303.545 385.339 303.759 385.407 304.007C385.543 304.505 385.746 305.18 386.02 306.006C386.567 307.658 387.403 309.937 388.569 312.646C390.901 318.062 394.565 325.225 399.897 332.557L399.917 332.585L399.939 332.611C410.451 345.76 428.789 361.537 459.935 362.063C452.629 477.406 356.441 568.54 239.575 568.54C116.94 568.54 17.8102 469.391 17.8102 348.089C17.8102 316.011 24.7496 285.82 36.7752 258.132C42.4348 260.505 48.704 262.255 55.0414 262.255C79.5131 262.255 99.2397 242.538 99.2397 218.057C99.2397 193.576 79.5131 173.859 55.0414 173.859C30.5612 173.859 10.8344 193.576 10.8344 218.057C10.8344 229.939 15.9538 241.147 23.6694 249.228C23.1988 250.278 22.8107 251.313 22.4404 252.301L22.429 252.331C21.9329 253.654 21.4666 254.894 20.8511 256.125L20.8322 256.163L20.8154 256.202C8.24439 285.302 2.29922 316.375 2.29922 348.089C2.29922 379.799 8.24328 410.86 20.8118 439.958C32.7073 468.381 49.8991 493.504 71.7065 514.653C93.5095 536.454 118.614 553.632 146.376 565.535C175.476 578.098 206.548 584.043 238.262 584.043C269.973 584.043 301.034 578.099 330.132 565.539C358.554 553.635 383.678 536.452 404.827 514.635C426.629 492.84 443.807 467.726 455.71 439.963L455.714 439.954C466.123 415.232 472.693 388.567 474.152 361.229C498.207 357.607 513.274 344.45 521.852 332.572C527.526 325.232 531.197 318.058 533.452 312.628C534.582 309.91 535.358 307.624 535.855 305.964C536.103 305.135 536.283 304.458 536.402 303.958C536.461 303.709 536.507 303.496 536.54 303.326C536.554 303.25 536.579 303.118 536.594 302.977L574.662 108.699C574.663 108.695 574.664 108.691 574.664 108.688C579.976 83.437 576.686 61.9861 565.241 45.1465ZM37.5067 218.057V218.01L37.5037 217.962C36.9073 208.42 45.3074 199.874 55.6979 199.874C65.9905 199.874 73.8805 208.355 73.8805 218.057C73.8805 228.35 65.3987 236.248 55.6979 236.248C46.021 236.248 37.5067 227.726 37.5067 218.057Z" fill="#FAFAFA" stroke="#FAFAFA" stroke-width="3.02785"/>
</g>
<path d="M148.073 460.721H118.839C111.962 460.721 106.373 455.129 106.373 448.267H85.7657C85.7657 466.622 100.466 481.308 118.839 481.308H148.073C166.287 481.308 181.146 466.622 181.146 448.267C181.146 439.49 177.632 431.508 172.043 425.44C177.632 419.539 181.146 411.557 181.146 402.78C181.146 384.425 166.287 369.58 148.073 369.58H118.839C100.466 369.58 85.7657 384.425 85.7657 402.78H106.373C106.373 395.91 111.962 390.326 118.839 390.326H148.073C154.942 390.326 160.539 395.91 160.539 402.78C160.539 409.642 154.942 415.226 148.073 415.226H133.372V435.821H148.073C154.942 435.821 160.539 441.405 160.539 448.267C160.539 455.129 154.942 460.721 148.073 460.721Z" fill="#FAFAFA"/>
<path d="M223.324 481.308H252.558C270.772 481.308 285.632 466.622 285.632 448.267C285.632 430.07 270.772 415.226 252.558 415.226H223.324C218.848 415.226 214.69 416.028 210.858 417.625V402.78C210.858 395.909 216.447 390.326 223.324 390.326H252.558C259.427 390.326 265.024 395.909 265.024 402.78H285.632C285.632 384.425 270.772 369.58 252.558 369.58H223.324C204.951 369.58 190.251 384.425 190.251 402.78V448.267C190.251 466.622 204.951 481.308 223.324 481.308ZM223.324 435.821H252.558C259.427 435.821 265.024 441.404 265.024 448.267C265.024 455.129 259.427 460.721 252.558 460.721H223.324C216.447 460.721 210.858 455.129 210.858 448.267C210.858 441.404 216.447 435.821 223.324 435.821Z" fill="#FAFAFA"/>
<path d="M350.651 481.308C381.49 481.308 406.415 456.408 406.415 425.44C406.415 394.639 381.49 369.739 350.651 369.739C319.66 369.739 294.736 394.639 294.736 425.44C294.736 456.408 319.66 481.308 350.651 481.308ZM350.651 390.326C369.986 390.326 385.808 406.132 385.808 425.44C385.808 444.915 369.986 460.721 350.651 460.721C331.164 460.721 315.343 444.915 315.343 425.44C315.343 406.132 331.164 390.326 350.651 390.326Z" fill="#FAFAFA"/>
<path d="M146.45 327.159H158.199C177.415 327.159 193.054 311.642 193.054 292.345C193.054 273.142 177.415 257.625 158.199 257.625H133.606V327.159H146.45ZM146.45 270.456H158.199C170.346 270.456 180.203 280.31 180.203 292.345C180.203 304.48 170.346 314.328 158.199 314.328H146.45V270.456Z" fill="#FAFAFA"/>
<path d="M233.571 327.159C252.795 327.159 268.327 311.642 268.327 292.345C268.327 273.141 252.795 257.625 233.571 257.625C214.255 257.625 198.723 273.141 198.723 292.345C198.723 311.642 214.255 327.159 233.571 327.159ZM233.571 270.456C245.619 270.456 255.483 280.31 255.483 292.345C255.483 304.48 245.619 314.328 233.571 314.328C221.424 314.328 211.567 304.48 211.567 292.345C211.567 280.31 221.424 270.456 233.571 270.456Z" fill="#FAFAFA"/>
<path d="M333.443 317.013L324.283 307.862C315.713 316.516 301.873 316.516 293.311 307.862C284.648 299.308 284.648 285.482 293.311 276.928C301.873 268.268 315.713 268.268 324.283 276.928L333.443 267.77C319.796 254.143 297.791 254.143 284.151 267.77C270.51 281.404 270.51 303.386 284.151 317.013C297.791 330.64 319.796 330.64 333.443 317.013Z" fill="#FAFAFA"/>
</svg>
