<svg viewBox="0 0 48 32" xmlns="http://www.w3.org/2000/svg">
<path d="M2.66667 32H45.3333C46.8 32 48 30.8 48 29.3333C48 27.8667 46.8 26.6667 45.3333 26.6667H2.66667C1.2 26.6667 0 27.8667 0 29.3333C0 30.8 1.2 32 2.66667 32ZM2.66667 18.6667H45.3333C46.8 18.6667 48 17.4667 48 16C48 14.5333 46.8 13.3333 45.3333 13.3333H2.66667C1.2 13.3333 0 14.5333 0 16C0 17.4667 1.2 18.6667 2.66667 18.6667ZM0 2.66667C0 4.13333 1.2 5.33333 2.66667 5.33333H45.3333C46.8 5.33333 48 4.13333 48 2.66667C48 1.2 46.8 0 45.3333 0H2.66667C1.2 0 0 1.2 0 2.66667Z" fill="#FAFAFA"/>
</svg>
