<svg  viewBox="0 0 40 41"  xmlns="http://www.w3.org/2000/svg">
<path d="M26.6667 16.9311C26.6667 18.6992 25.9643 20.3949 24.7141 21.6451C23.4638 22.8954 21.7682 23.5977 20 23.5977C18.2319 23.5977 16.5362 22.8954 15.286 21.6451C14.0358 20.3949 13.3334 18.6992 13.3334 16.9311C13.3334 15.163 14.0358 13.4673 15.286 12.217C16.5362 10.9668 18.2319 10.2644 20 10.2644C21.7682 10.2644 23.4638 10.9668 24.7141 12.217C25.9643 13.4673 26.6667 15.163 26.6667 16.9311Z" fill="#FAFAFA"/>
<path fill-rule="evenodd" clip-rule="evenodd" d="M19.32 36.9178C10.4309 36.5611 3.33337 29.2411 3.33337 20.2644C3.33337 11.0594 10.795 3.59778 20 3.59778C29.205 3.59778 36.6667 11.0594 36.6667 20.2644C36.6667 29.4694 29.205 36.9311 20 36.9311H19.7717C19.6206 36.9311 19.47 36.9267 19.32 36.9178ZM9.30504 30.7811C9.18043 30.4233 9.13801 30.0419 9.18094 29.6654C9.22387 29.2889 9.35105 28.9269 9.55302 28.6063C9.755 28.2857 10.0266 28.0147 10.3476 27.8134C10.6687 27.6121 11.031 27.4857 11.4075 27.4436C17.9042 26.7244 22.1359 26.7894 28.6009 27.4586C28.978 27.4979 29.3411 27.6227 29.6627 27.8235C29.9842 28.0243 30.2557 28.2959 30.4565 28.6175C30.6572 28.9391 30.782 29.3023 30.8211 29.6794C30.8603 30.0565 30.8129 30.4376 30.6825 30.7936C33.4535 27.9903 35.0052 24.2061 35 20.2644C35 11.9803 28.2842 5.26444 20 5.26444C11.7159 5.26444 5.00004 11.9803 5.00004 20.2644C5.00004 24.3611 6.64254 28.0744 9.30504 30.7811Z" fill="#FAFAFA"/>
</svg>
