<svg  viewBox="0 0 24 24"  xmlns="http://www.w3.org/2000/svg">
<path d="M5.54315 10.5471C5.54315 11.5858 5.74774 12.6143 6.14524 13.574C6.54275 14.5337 7.12538 15.4056 7.85987 16.1401C8.59436 16.8746 9.46633 17.4573 10.426 17.8548C11.3857 18.2523 12.4142 18.4569 13.4529 18.4569C14.4917 18.4569 15.5202 18.2523 16.4799 17.8548C17.4396 17.4573 18.3115 16.8746 19.046 16.1401C19.7805 15.4056 20.3631 14.5337 20.7606 13.574C21.1581 12.6143 21.3627 11.5858 21.3627 10.5471C21.3627 8.44925 20.5294 6.43736 19.046 4.95399C17.5626 3.47061 15.5507 2.63726 13.4529 2.63726C11.3551 2.63726 9.34325 3.47061 7.85987 4.95399C6.3765 6.43736 5.54315 8.44925 5.54315 10.5471ZM6.98536 18.8787L2.26585 23.5982C2.14415 23.724 1.99861 23.8244 1.83773 23.8933C1.67684 23.9623 1.50383 23.9986 1.32879 24C1.15375 24.0014 0.98018 23.9679 0.818215 23.9015C0.656249 23.8351 0.509129 23.7371 0.38544 23.6132C0.26175 23.4894 0.163966 23.3421 0.0977964 23.18C0.0316247 23.018 -0.00160699 22.8444 3.52487e-05 22.6693C0.00167939 22.4943 0.038167 22.3213 0.107368 22.1605C0.17657 21.9997 0.277102 21.8544 0.403096 21.7328L5.12261 17.0133C3.47757 14.8941 2.70199 12.2276 2.95375 9.55669C3.20551 6.88576 4.46568 4.41117 6.47774 2.63667C8.4898 0.862167 11.1025 -0.0788508 13.7839 0.00517917C16.4654 0.0892091 19.014 1.19197 20.911 3.08897C22.808 4.98597 23.9108 7.53461 23.9948 10.2161C24.0788 12.8975 23.1378 15.5102 21.3633 17.5223C19.5888 19.5343 17.1142 20.7945 14.4433 21.0463C11.7724 21.298 9.1059 20.5224 6.98668 18.8774L6.98536 18.8787Z" fill="#222121"/>
</svg>
