<svg  viewBox="0 0 45 45"  xmlns="http://www.w3.org/2000/svg">
<path d="M33.8516 35.5993L35.2578 34.2025C41.7641 34.415 41.8641 34.1868 42.15 33.5181L43.9375 29.1665L44.0703 28.754L43.925 28.3931C43.8484 28.2025 43.6125 27.6337 39.55 23.7603V21.7228C44.2375 17.2072 44.1375 16.9759 43.8703 16.315L42.0906 11.9181C41.8234 11.2587 41.7219 11.0009 35.2625 11.1775L33.8563 9.72434C34.0032 7.58391 33.9294 5.43403 33.6359 3.30872L33.4547 2.89778L28.8078 0.86653C28.1234 0.55403 27.8828 0.44153 23.4953 5.21966L21.5234 5.18997C17.0063 0.368093 16.7922 0.455593 16.1156 0.72903L11.7953 2.47591C11.1188 2.74934 10.8797 2.84622 11.1422 9.40872L9.74687 10.7993C3.24375 10.5868 3.14375 10.8181 2.86094 11.4837L1.07031 15.8368L0.929688 16.254L1.07656 16.6165C1.15313 16.804 1.37969 17.3665 5.45156 21.2447V23.2759C0.764063 27.7915 0.865625 28.0228 1.13438 28.6853L2.9125 33.0868C3.18438 33.7603 3.28125 33.9993 9.73906 33.8306L11.1453 35.2915C10.9991 37.4287 11.0708 39.5752 11.3594 41.6978L11.5406 42.1118L16.2172 44.1556C16.8969 44.44 17.1328 44.5415 21.5078 39.7806L23.4797 39.8056C28.0031 44.6337 28.2344 44.54 28.8953 44.2728L33.2063 42.5306C33.8875 42.2603 34.125 42.165 33.8516 35.5993ZM15.3234 25.4056C14.7782 23.9807 14.666 22.4265 15.0008 20.938C15.3356 19.4495 16.1025 18.0931 17.2054 17.0388C18.3082 15.9846 19.6978 15.2796 21.1999 15.0122C22.702 14.7448 24.2495 14.927 25.6484 15.5359C27.0473 16.1448 28.2352 17.1533 29.0631 18.4348C29.891 19.7163 30.3219 21.2138 30.3019 22.7393C30.2819 24.2649 29.8118 25.7505 28.9505 27.0098C28.0893 28.2692 26.8753 29.2461 25.4609 29.8181C23.5311 30.5727 21.381 30.5321 19.481 29.7052C17.5811 28.8782 16.0862 27.3322 15.3234 25.4056Z" fill="#222121"/>
</svg>
