<svg width="40" height="40" viewBox="0 0 40 40" fill="none" xmlns="http://www.w3.org/2000/svg">
<path d="M19.9997 3.33301C10.7997 3.33301 3.33301 10.7997 3.33301 19.9997C3.33301 29.1997 10.7997 36.6663 19.9997 36.6663C29.1997 36.6663 36.6663 29.1997 36.6663 19.9997C36.6663 10.7997 29.1997 3.33301 19.9997 3.33301ZM19.9997 21.6663C19.083 21.6663 18.333 20.9163 18.333 19.9997V13.333C18.333 12.4163 19.083 11.6663 19.9997 11.6663C20.9163 11.6663 21.6663 12.4163 21.6663 13.333V19.9997C21.6663 20.9163 20.9163 21.6663 19.9997 21.6663ZM21.6663 28.333H18.333V24.9997H21.6663V28.333Z" fill="#F9F9F9"/>
</svg>
