<svg width="61" height="60" viewBox="0 0 61 60" fill="none" xmlns="http://www.w3.org/2000/svg">
<path d="M23.7227 5C26.7402 5 29.1914 7.45117 29.1914 10.4688V49.5312C29.1914 52.5488 26.7402 55 23.7227 55C20.9004 55 18.5762 52.8613 18.2832 50.1074C17.7754 50.2441 17.2383 50.3125 16.6914 50.3125C13.2441 50.3125 10.4414 47.5098 10.4414 44.0625C10.4414 43.3398 10.5684 42.6367 10.793 41.9922C7.84375 40.8789 5.75391 38.0273 5.75391 34.6875C5.75391 31.5723 7.58008 28.877 10.2266 27.627C9.37695 26.5625 8.87891 25.2148 8.87891 23.75C8.87891 20.752 10.9883 18.252 13.8008 17.6367C13.6445 17.0996 13.5664 16.5234 13.5664 15.9375C13.5664 13.0176 15.5781 10.5566 18.2832 9.87305C18.5762 7.13867 20.9004 5 23.7227 5ZM37.7852 5C40.6074 5 42.9219 7.13867 43.2246 9.87305C45.9395 10.5566 47.9414 13.0078 47.9414 15.9375C47.9414 16.5234 47.8633 17.0996 47.707 17.6367C50.5195 18.2422 52.6289 20.752 52.6289 23.75C52.6289 25.2148 52.1309 26.5625 51.2812 27.627C53.9277 28.877 55.7539 31.5723 55.7539 34.6875C55.7539 38.0273 53.6641 40.8789 50.7148 41.9922C50.9395 42.6367 51.0664 43.3398 51.0664 44.0625C51.0664 47.5098 48.2637 50.3125 44.8164 50.3125C44.2695 50.3125 43.7324 50.2441 43.2246 50.1074C42.9316 52.8613 40.6074 55 37.7852 55C34.7676 55 32.3164 52.5488 32.3164 49.5312V10.4688C32.3164 7.45117 34.7676 5 37.7852 5Z" fill="#FAFAFA"/>
</svg>
