<svg width="61" height="60" viewBox="0 0 61 60" fill="none" xmlns="http://www.w3.org/2000/svg">
<path d="M30.8168 5C31.2961 5 31.7557 5.19039 32.0946 5.52929C32.4335 5.86819 32.6239 6.32784 32.6239 6.80712V25.7566L34.431 27.0468V18.445C34.431 15.0114 37.214 12.2285 40.6475 12.2285C42.5414 12.2285 44.3449 13.2043 45.8629 14.3681C47.4206 15.568 48.9241 17.1619 50.2578 18.81C52.9178 22.0917 55.1261 25.8433 55.9683 27.7733C56.6044 29.2371 57.3887 31.9658 57.9778 35.0415C58.5741 38.1389 59.0006 41.7532 58.8452 45.0132C58.7006 48.1467 58.0067 51.4827 55.8201 53.4344C53.3985 55.6029 49.9578 55.4439 45.9135 53.4199L39.4259 50.1779C37.9251 49.4275 36.6628 48.274 35.7806 46.8467C34.8984 45.4193 34.4311 43.7745 34.431 42.0965V31.4887L30.8168 28.9045L27.2026 31.4887V27.4589C26.8411 27.4589 26.4725 27.5673 26.1544 27.795L17.1189 34.25C16.9173 34.3842 16.7448 34.5575 16.6115 34.7597C16.4783 34.9618 16.387 35.1887 16.3431 35.4269C16.2993 35.665 16.3037 35.9095 16.3562 36.1459C16.4087 36.3823 16.5081 36.6057 16.6486 36.8029C16.7891 37.0001 16.9678 37.167 17.1741 37.2938C17.3804 37.4206 17.6101 37.5046 17.8495 37.5409C18.0889 37.5772 18.3331 37.565 18.5677 37.5051C18.8023 37.4452 19.0225 37.3387 19.2151 37.192L27.2026 31.4887V42.0965C27.2025 43.7745 26.7352 45.4193 25.853 46.8467C24.9708 48.274 23.7085 49.4275 22.2077 50.1779L15.7201 53.4199C11.6722 55.4439 8.23868 55.5993 5.81352 53.4344C3.62691 51.4827 2.92936 48.1467 2.7848 45.0132C2.633 41.7532 3.05948 38.1389 3.65221 35.0415C4.24495 31.9622 5.02562 29.2371 5.66895 27.7697C6.50746 25.8433 8.71575 22.0917 11.3758 18.81C12.7131 17.1619 14.213 15.568 15.7707 14.3681C17.2887 13.2043 19.0922 12.2285 20.9861 12.2285C24.4196 12.2285 27.2026 15.0114 27.2026 18.445V27.0468L29.0097 25.7566V6.80712C29.0097 6.32784 29.2001 5.86819 29.539 5.52929C29.8779 5.19039 30.3375 5 30.8168 5ZM42.4185 37.192C42.6111 37.3387 42.8313 37.4452 43.0659 37.5051C43.3005 37.565 43.5447 37.5772 43.7841 37.5409C44.0235 37.5046 44.2532 37.4206 44.4595 37.2938C44.6658 37.167 44.8445 37.0001 44.985 36.8029C45.1255 36.6057 45.2249 36.3823 45.2774 36.1459C45.3299 35.9095 45.3343 35.665 45.2905 35.4269C45.2466 35.1887 45.1553 34.9618 45.0221 34.7597C44.8888 34.5575 44.7163 34.3842 44.5148 34.25L35.4792 27.795C35.1732 27.5767 34.8069 27.4592 34.431 27.4589V31.4887L42.4185 37.192Z" fill="#FAFAFA"/>
</svg>
