<svg width="36" height="36" viewBox="0 0 36 36" fill="none" xmlns="http://www.w3.org/2000/svg">
<path d="M7.50345 23.8359L6 30L12.1641 28.4966L25.9958 14.6649L21.3351 10.0042L7.50345 23.8359ZM8.25517 28.4966L7.65379 27.7448L8.25517 24.7379L11.2621 27.7448L8.25517 28.4966ZM22.3876 12.56L10.2096 24.5876L9.30758 23.6855L21.4855 11.658L22.3876 12.56ZM29.0027 6.99728C27.3489 5.34349 25.0938 6.24555 25.0938 6.24555L22.8386 8.50072L27.4993 13.1614L29.7544 10.9062C29.7544 10.7559 30.6565 8.65107 29.0027 6.99728ZM26.1462 8.35038L25.3945 7.59865C26.2965 6.69659 27.0482 7.44831 27.0482 7.44831L26.1462 8.35038Z" fill="#222121"/>
</svg>
