<svg width="68" height="60" viewBox="0 0 68 60" fill="none" xmlns="http://www.w3.org/2000/svg">
<path d="M46.9515 5C41.6806 5 37.0261 7.63239 34.2258 11.6534C31.4254 7.63239 26.7725 5 21.5 5C12.9385 5 6 11.9401 6 20.5C6 40.0071 34.2242 54.9985 34.2258 55C34.2258 54.9985 62.4531 40.0071 62.4531 20.5C62.4531 11.9401 55.513 5 46.9515 5Z" fill="#FAFAFA"/>
<path d="M32.5795 47.5095C32.0908 47.5095 31.6733 47.1402 31.5923 46.6332L28.6712 28.2982L27.205 32.4745C27.0612 32.8878 26.687 33.1618 26.2681 33.1618H7.99978C7.44822 33.1618 7 32.6929 7 32.1141C7 31.5338 7.44822 31.0648 7.99978 31.0648H25.5713L28.0959 23.8624C28.2523 23.4155 28.6823 23.1297 29.1278 23.181C29.5788 23.2249 29.9446 23.5825 30.02 24.0514L32.5265 39.7737L36.3762 12.8924C36.4502 12.3781 36.8705 12 37.3648 12C37.3704 12 37.3745 12 37.3801 12C37.8814 12.0073 38.2989 12.403 38.3576 12.9261L40.6238 33.0534L41.0483 31.7697C41.1865 31.3477 41.5663 31.0648 41.9922 31.0648H59.6196C60.1712 31.0648 60.6194 31.5338 60.6194 32.1141C60.6194 32.6929 60.1712 33.1618 59.6196 33.1618H42.703L41.086 38.0548C40.9338 38.5164 40.4995 38.8065 40.0332 38.7538C39.571 38.701 39.2037 38.32 39.1493 37.8335L37.2461 20.9316L33.5667 46.6171C33.4941 47.1271 33.078 47.5051 32.5879 47.5095C32.5837 47.5095 32.5809 47.5095 32.5795 47.5095Z" fill="#000912"/>
</svg>
