<svg width="61" height="60" viewBox="0 0 61 60" fill="none" xmlns="http://www.w3.org/2000/svg">
<path d="M31.2539 22.25C29.2648 22.25 27.3571 23.0402 25.9506 24.4467C24.5441 25.8532 23.7539 27.7609 23.7539 29.75C23.7539 31.7391 24.5441 33.6468 25.9506 35.0533C27.3571 36.4598 29.2648 37.25 31.2539 37.25C33.243 37.25 35.1507 36.4598 36.5572 35.0533C37.9637 33.6468 38.7539 31.7391 38.7539 29.75C38.7539 27.7609 37.9637 25.8532 36.5572 24.4467C35.1507 23.0402 33.243 22.25 31.2539 22.25ZM31.2539 42.25C27.9387 42.25 24.7593 40.933 22.4151 38.5888C20.0709 36.2446 18.7539 33.0652 18.7539 29.75C18.7539 26.4348 20.0709 23.2554 22.4151 20.9112C24.7593 18.567 27.9387 17.25 31.2539 17.25C34.5691 17.25 37.7485 18.567 40.0927 20.9112C42.4369 23.2554 43.7539 26.4348 43.7539 29.75C43.7539 33.0652 42.4369 36.2446 40.0927 38.5888C37.7485 40.933 34.5691 42.25 31.2539 42.25ZM31.2539 11C18.7539 11 8.07891 18.775 3.75391 29.75C8.07891 40.725 18.7539 48.5 31.2539 48.5C43.7539 48.5 54.4289 40.725 58.7539 29.75C54.4289 18.775 43.7539 11 31.2539 11Z" fill="#FAFAFA"/>
</svg>
