<svg width="45" height="60" viewBox="0 0 45 60" fill="none" xmlns="http://www.w3.org/2000/svg">
<path d="M24.24 5.00165C24.0036 5.00548 23.7635 5.01637 23.5217 5.03158C16.2644 5.4871 11.5104 9.33338 8.72901 15.0615C5.99203 20.6982 5.324 28.1957 6.67885 35.7092L6.88835 35.9187L6.72003 36.6032C6.3094 38.3036 6.57996 40.35 7.23242 42.1066C7.88488 43.8629 8.97072 45.3091 9.69788 45.7915L10.3001 46.1919L10.2553 46.9102C10.0931 49.5401 11.0798 51.5744 12.4626 52.9784C13.8454 54.3822 15.6575 55.0671 16.8435 54.9948C18.0706 54.9202 18.7116 54.5404 19.3875 53.7976C20.0636 53.0552 20.6917 51.8757 21.4303 50.412C22.9076 47.4847 24.8943 43.4857 29.5824 39.9854C37.1668 34.3221 39.4941 25.2617 37.9626 17.7591C37.1967 14.0079 35.4644 10.6795 33.0054 8.38366C30.8541 6.37481 28.1712 5.12687 24.9396 5.00919C24.7088 5.00081 24.4763 4.99782 24.24 5.00165ZM23.4169 11.4851C23.5702 11.4818 23.7236 11.4818 23.877 11.4851C27.0276 11.5425 30.0658 12.949 32.1751 15.7275C32.2606 15.8403 32.323 15.9688 32.3589 16.1056C32.3947 16.2425 32.4032 16.3852 32.3839 16.5253C32.3646 16.6655 32.3179 16.8006 32.2465 16.9227C32.175 17.0448 32.0802 17.1517 31.9674 17.2372C31.8547 17.3227 31.7262 17.3851 31.5893 17.421C31.4524 17.4568 31.3098 17.4653 31.1696 17.446C31.0294 17.4268 30.8944 17.38 30.7722 17.3086C30.6501 17.2371 30.5432 17.1423 30.4577 17.0295C27.387 12.9843 22.1894 12.5104 17.9659 15.5406C15.7781 17.1101 13.8644 19.6651 12.7807 23.2436C14.3287 21.6038 16.1223 20.0046 18.1082 18.9898C19.294 18.384 20.5762 17.9894 21.8979 17.9836C22.3385 17.9817 22.783 18.0233 23.2298 18.1145C25.0169 18.4792 26.7423 19.6357 28.2804 21.6685C28.3657 21.7815 28.4278 21.9101 28.4633 22.0472C28.4988 22.1842 28.507 22.3269 28.4874 22.467C28.4678 22.6072 28.4207 22.7421 28.3489 22.8641C28.2772 22.9861 28.1821 23.0928 28.0691 23.178C27.9561 23.2633 27.8274 23.3254 27.6904 23.3609C27.5534 23.3965 27.4107 23.4046 27.2705 23.385C27.1303 23.3654 26.9954 23.3183 26.8734 23.2466C26.7514 23.1748 26.6447 23.0797 26.5595 22.9667C25.2442 21.2284 23.9924 20.4679 22.7995 20.2244C21.6069 19.9809 20.3786 20.2496 19.0883 20.9092C16.5096 22.2268 13.8949 25.1233 11.9651 27.4561C11.746 29.6979 11.8041 32.2201 12.2196 35.0282C13.7553 35.0883 15.0111 35.4793 15.9273 36.1919C17.0363 37.0543 17.5865 38.3228 17.6668 39.5739C17.8275 42.0756 16.3954 44.6739 14.0004 45.6867C13.7372 45.7969 13.4411 45.7985 13.1768 45.6909C12.9125 45.5833 12.7016 45.3754 12.5903 45.1126C12.479 44.8499 12.4763 44.5538 12.5829 44.2891C12.6894 44.0244 12.8965 43.8127 13.1588 43.7003C14.5291 43.1206 15.6122 41.2138 15.5158 39.7122C15.4675 38.9615 15.1993 38.3577 14.6029 37.8939C14.0065 37.4302 12.9968 37.0774 11.3442 37.1682C11.08 37.1829 10.8196 37.1 10.6126 36.935C10.4056 36.7701 10.2666 36.5347 10.222 36.2739C8.29934 25.0534 11.685 17.3942 16.709 13.7897C18.7698 12.3112 21.1131 11.5388 23.4168 11.4852L23.4169 11.4851Z" fill="#FAFAFA"/>
</svg>
