<svg width="48" height="48" viewBox="0 0 48 48" fill="none" xmlns="http://www.w3.org/2000/svg">
<path d="M24 21C24.7956 21 25.5587 21.3161 26.1213 21.8787C26.6839 22.4413 27 23.2044 27 24C27 24.7956 26.6839 25.5587 26.1213 26.1213C25.5587 26.6839 24.7956 27 24 27C23.2044 27 22.4413 26.6839 21.8787 26.1213C21.3161 25.5587 21 24.7956 21 24C21 23.2044 21.3161 22.4413 21.8787 21.8787C22.4413 21.3161 23.2044 21 24 21ZM24 16.5C29 16.5 33.27 19.61 35 24C33.27 28.39 29 31.5 24 31.5C19 31.5 14.73 28.39 13 24C14.73 19.61 19 16.5 24 16.5ZM15.18 24C15.9883 25.6503 17.2433 27.0407 18.8025 28.0133C20.3617 28.9858 22.1624 29.5013 24 29.5013C25.8376 29.5013 27.6383 28.9858 29.1975 28.0133C30.7567 27.0407 32.0117 25.6503 32.82 24C32.0117 22.3497 30.7567 20.9593 29.1975 19.9867C27.6383 19.0142 25.8376 18.4987 24 18.4987C22.1624 18.4987 20.3617 19.0142 18.8025 19.9867C17.2433 20.9593 15.9883 22.3497 15.18 24Z" fill="#222121"/>
</svg>
