<svg width="48" height="48" viewBox="0 0 48 48" fill="none" xmlns="http://www.w3.org/2000/svg">
<path d="M15.5431 24.5471C15.5431 25.5858 15.7477 26.6143 16.1452 27.574C16.5427 28.5337 17.1254 29.4056 17.8599 30.1401C18.5944 30.8746 19.4663 31.4573 20.426 31.8548C21.3857 32.2523 22.4142 32.4569 23.4529 32.4569C24.4917 32.4569 25.5202 32.2523 26.4799 31.8548C27.4396 31.4573 28.3115 30.8746 29.046 30.1401C29.7805 29.4056 30.3631 28.5337 30.7606 27.574C31.1581 26.6143 31.3627 25.5858 31.3627 24.5471C31.3627 22.4493 30.5294 20.4374 29.046 18.954C27.5626 17.4706 25.5507 16.6373 23.4529 16.6373C21.3551 16.6373 19.3432 17.4706 17.8599 18.954C16.3765 20.4374 15.5431 22.4492 15.5431 24.5471ZM16.9854 32.8787L12.2659 37.5982C12.1442 37.724 11.9986 37.8244 11.8377 37.8933C11.6768 37.9623 11.5038 37.9986 11.3288 38C11.1537 38.0014 10.9802 37.9679 10.8182 37.9015C10.6562 37.8351 10.5091 37.7371 10.3854 37.6132C10.2618 37.4894 10.164 37.3421 10.0978 37.18C10.0316 37.018 9.99839 36.8444 10 36.6693C10.0017 36.4943 10.0382 36.3213 10.1074 36.1605C10.1766 35.9997 10.2771 35.8544 10.4031 35.7328L15.1226 31.0133C13.4776 28.8941 12.702 26.2276 12.9537 23.5567C13.2055 20.8858 14.4657 18.4112 16.4777 16.6367C18.4898 14.8622 21.1025 13.9211 23.7839 14.0052C26.4654 14.0892 29.014 15.192 30.911 17.089C32.808 18.986 33.9108 21.5346 33.9948 24.2161C34.0788 26.8975 33.1378 29.5102 31.3633 31.5223C29.5888 33.5343 27.1142 34.7945 24.4433 35.0463C21.7724 35.298 19.1059 34.5224 16.9867 32.8774L16.9854 32.8787Z" fill="#222121"/>
</svg>
