<svg width="61" height="60" viewBox="0 0 61 60" fill="none" xmlns="http://www.w3.org/2000/svg">
<path d="M10.7437 45C12.4187 49.625 15.9187 55 30.7437 55C36.6437 55 43.4187 54.825 48.2437 50C50.7437 47.5 55.7437 42.5 55.7437 27.5C55.7437 12.5 50.7437 10 45.7437 10C42.2937 10 38.2437 10 35.7437 15V15.075C35.2938 15.8909 34.6041 16.5491 33.768 16.9604C32.9319 17.3717 31.9897 17.5165 31.0687 17.375C28.2437 17.025 28.2437 15.925 28.2437 15V5H23.2437V15C23.2161 15.9924 23.3913 16.98 23.7584 17.9024C24.1256 18.8249 24.677 19.6627 25.379 20.3647C26.081 21.0667 26.9189 21.6182 27.8413 21.9853C28.7637 22.3524 29.7513 22.5276 30.7437 22.5C33.2437 22.5 33.2437 26.95 33.2437 30C33.2437 34.725 31.9937 38.15 28.2437 40C22.4687 42.875 16.7187 42.5 14.7687 38.675C14.5679 38.0724 14.2174 37.5307 13.7499 37.1007C13.2825 36.6707 12.7135 36.3664 12.0963 36.2165C11.479 36.0666 10.8339 36.0759 10.2212 36.2435C9.6086 36.4112 9.04859 36.7317 8.59373 37.175C7.53515 38.1621 6.72511 39.3856 6.22979 40.7455C5.73446 42.1055 5.56791 43.5634 5.74373 45V55H10.7437V45Z" fill="#FAFAFA"/>
</svg>
