<svg width="40" height="40" viewBox="0 0 40 40" fill="none" xmlns="http://www.w3.org/2000/svg">
<g clip-path="url(#clip0_168_2669)">
<path d="M36.6664 21.1111C36.5201 21.1119 36.3752 21.0839 36.2398 21.0286C36.1044 20.9733 35.9813 20.8918 35.8775 20.7889L19.9997 4.89997L4.12193 20.7889C3.90937 20.9709 3.63595 21.066 3.35631 21.0552C3.07667 21.0444 2.81141 20.9285 2.61352 20.7306C2.41564 20.5327 2.29972 20.2674 2.28891 19.9878C2.27811 19.7082 2.37323 19.4347 2.55526 19.2222L19.2219 2.55552C19.4301 2.34858 19.7117 2.23242 20.0053 2.23242C20.2988 2.23242 20.5804 2.34858 20.7886 2.55552L37.4553 19.2222C37.6082 19.3782 37.7117 19.5758 37.7529 19.7903C37.7941 20.0047 37.7712 20.2266 37.6871 20.4282C37.6029 20.6297 37.4612 20.802 37.2796 20.9235C37.0981 21.0449 36.8848 21.1102 36.6664 21.1111Z" fill="#FAFAFA"/>
<path d="M20.0003 8.65527L6.66699 22.0331V35.5553C6.66699 36.1446 6.90112 36.7099 7.31787 37.1266C7.73461 37.5434 8.29984 37.7775 8.88921 37.7775H16.667V26.6664H23.3337V37.7775H31.1114C31.7008 37.7775 32.266 37.5434 32.6828 37.1266C33.0995 36.7099 33.3337 36.1446 33.3337 35.5553V21.9553L20.0003 8.65527Z" fill="#FAFAFA"/>
</g>
<defs>
<clipPath id="clip0_168_2669">
<rect width="40" height="40" fill="white"/>
</clipPath>
</defs>
</svg>
