<svg width="60" height="60" viewBox="0 0 60 60" fill="none" xmlns="http://www.w3.org/2000/svg">
<path d="M41.8064 5.54862C42.1581 5.19732 42.6349 5 43.1321 5C43.6292 5 44.106 5.19732 44.4577 5.54862L54.4627 15.5536C54.794 15.9092 54.9744 16.3795 54.9658 16.8655C54.9573 17.3515 54.7604 17.8152 54.4167 18.1589C54.073 18.5026 53.6093 18.6995 53.1233 18.7081C52.6373 18.7166 52.167 18.5362 51.8113 18.2049L50.6358 17.0293L46.3962 21.2564L52.5742 27.4344C52.7533 27.6076 52.8961 27.8146 52.9943 28.0435C53.0925 28.2725 53.1442 28.5186 53.1462 28.7677C53.1483 29.0168 53.1007 29.2638 53.0062 29.4943C52.9118 29.7248 52.7724 29.9342 52.5962 30.1102C52.42 30.2863 52.2105 30.4255 51.9799 30.5197C51.7493 30.6139 51.5023 30.6613 51.2532 30.659C51.0041 30.6567 50.758 30.6048 50.5291 30.5064C50.3003 30.408 50.0934 30.265 49.9204 30.0857L46.2436 26.4089L29.1326 43.5224C27.3739 45.2807 24.9888 46.2685 22.5019 46.2687H16.3839L8.1798 54.4728C7.82616 54.8147 7.35238 55.004 6.86052 54.9999C6.36865 54.9959 5.89805 54.7988 5.55007 54.4512C5.20209 54.1035 5.00458 53.6331 5.00008 53.1413C4.99557 52.6494 5.18444 52.1754 5.52599 51.8215L13.73 43.6174V37.4969C13.7298 36.2651 13.9722 35.0452 14.4435 33.9071C14.9147 32.769 15.6055 31.7348 16.4764 30.8636L17.3318 30.0107L21.1587 33.8376C21.5124 34.1795 21.9861 34.3688 22.478 34.3647C22.9699 34.3607 23.4405 34.1636 23.7884 33.816C24.1364 33.4683 24.3339 32.9979 24.3384 32.5061C24.3429 32.0142 24.1541 31.5402 23.8125 31.1863L19.9831 27.3594L22.3343 25.0082L26.1612 28.8351C26.3329 29.0194 26.54 29.1673 26.7701 29.2698C27.0002 29.3723 27.2487 29.4275 27.5005 29.4319C27.7524 29.4363 28.0026 29.39 28.2362 29.2957C28.4698 29.2013 28.682 29.0609 28.8601 28.8827C29.0382 28.7046 29.1787 28.4924 29.273 28.2588C29.3674 28.0252 29.4137 27.7751 29.4093 27.5232C29.4048 27.2713 29.3497 27.0229 29.2472 26.7928C29.1446 26.5627 28.9968 26.3556 28.8125 26.1838L24.9856 22.3569L27.3368 20.0058L31.1637 23.8327C31.3354 24.017 31.5425 24.1648 31.7726 24.2673C32.0027 24.3699 32.2511 24.425 32.503 24.4294C32.7549 24.4339 33.0051 24.3875 33.2387 24.2932C33.4723 24.1988 33.6844 24.0584 33.8626 23.8803C34.0407 23.7021 34.1811 23.4899 34.2755 23.2564C34.3698 23.0228 34.4162 22.7726 34.4117 22.5207C34.4073 22.2688 34.3522 22.0204 34.2496 21.7903C34.1471 21.5602 33.9993 21.3531 33.815 21.1813L29.9881 17.3545L33.5898 13.7527L29.913 10.0759C29.5817 9.72024 29.4013 9.2499 29.4098 8.7639C29.4184 8.27791 29.6153 7.81422 29.959 7.47052C30.3027 7.12681 30.7664 6.92994 31.2524 6.92136C31.7384 6.91279 32.2087 7.09318 32.5643 7.42455L38.7424 13.6026L42.9795 9.37551L41.8039 8.19993C41.4526 7.84819 41.2553 7.3714 41.2553 6.87428C41.2553 6.37715 41.4551 5.90036 41.8064 5.54862ZM47.9795 14.378L45.6283 12.0268L41.3937 16.2539L43.7424 18.6051L47.9795 14.378Z" fill="#FAFAFA"/>
</svg>
