<svg width="61" height="60" viewBox="0 0 61 60" fill="none" xmlns="http://www.w3.org/2000/svg">
<path d="M40.9889 6.06242C39.8797 6.5915 39.07 7.29806 38.704 8.1122C38.338 8.92635 38.3158 9.93128 39.07 11.4198C39.6024 12.4491 40.6562 13.6826 41.6988 15.0469C42.7415 16.4001 43.7841 17.9197 44.1834 19.7277C44.7047 22.1124 43.8617 24.6081 43.1962 26.8043C42.8524 27.9135 42.5529 28.9451 42.4198 29.788C42.2867 30.631 42.3532 31.2522 42.5418 31.6182C43.2184 32.8827 44.1279 33.4262 45.3148 33.6037C46.5016 33.7811 47.9879 33.4928 49.4743 32.8161C52.458 31.4851 55.3862 28.6123 56.2847 26.0168C56.9946 23.987 56.7838 19.0289 55.3641 14.5699C53.9554 10.1132 51.3932 6.19108 48.1321 5.26601C45.947 4.75911 42.8856 5.19059 40.9889 6.06242ZM14.3017 5.26823C11.0396 6.19441 8.48292 10.1165 7.06427 14.581C5.64561 19.0289 5.44263 23.987 6.14918 26.0168C7.05206 28.6123 9.97922 31.4851 12.9585 32.8161C14.4459 33.4928 15.9323 33.7811 17.1191 33.6037C18.3059 33.4262 19.2155 32.8827 19.8921 31.6182C20.0806 31.2522 20.1472 30.631 20.0141 29.788C19.881 28.9451 19.5815 27.9135 19.2377 26.8043C18.5721 24.6081 17.7292 22.1124 18.2505 19.7277C18.6498 17.9197 19.6924 16.4001 20.7351 15.0469C21.7777 13.6826 22.8314 12.4491 23.3639 11.4198C24.1181 9.93128 24.0959 8.92635 23.7299 8.1122C23.3639 7.29806 22.5541 6.59261 21.4449 6.06352C19.1156 5.28709 16.6865 4.60494 14.3017 5.26823ZM20.8571 18.4521C20.5243 19.1065 20.3025 19.7388 20.1583 20.3599C21.5559 21.0587 22.7982 21.8906 23.2973 22.6227C26.0703 26.649 27.0464 34.5465 27.1795 41.3569C27.3015 48.1674 26.6803 54.7782 26.6803 54.7782L28.6547 55C28.6547 55 29.298 48.2783 29.1649 41.3126C29.0429 34.3579 28.2443 26.2941 24.9389 21.4913C24.0183 20.1603 22.4654 19.1953 20.8571 18.4521ZM41.5768 18.4521C39.9685 19.1953 38.4156 20.1603 37.495 21.4913C34.1896 26.2941 33.391 34.3579 33.2689 41.3126C33.1358 48.2783 33.7792 55 33.7792 55L35.7535 54.7782C35.7535 54.7782 35.1324 48.1674 35.2544 41.3569C35.3875 34.5465 36.3636 26.649 39.1366 22.6227C39.6357 21.8906 40.878 21.0587 42.2756 20.3599C42.1314 19.6833 41.8541 18.9845 41.5768 18.4521Z" fill="#FAFAFA"/>
</svg>
