<svg width="60" height="60" viewBox="0 0 60 60" fill="none" xmlns="http://www.w3.org/2000/svg">
<path d="M47.8266 35.0008C48.2985 35.6801 48.9751 36.1909 49.7578 36.4586C50.5405 36.7262 51.3882 36.7368 52.1773 36.4886C52.9664 36.2405 53.6555 35.7467 54.1441 35.0792C54.6328 34.4118 54.8953 33.6057 54.8934 32.7785C54.8953 31.9513 54.6328 31.1452 54.1441 30.4777C53.6555 29.8103 52.9664 29.3165 52.1773 29.0683C51.3882 28.8202 50.5405 28.8307 49.7578 29.0984C48.9751 29.3661 48.2985 29.8768 47.8266 30.5562H46.0043C46.0043 27.0672 44.8932 23.8894 42.8931 21.2449L45.871 18.267C47.1155 18.4892 48.3822 18.1337 49.3377 17.2225C50.8267 15.6892 50.8267 13.2224 49.3377 11.6668C47.8044 10.1779 45.3376 10.1779 43.782 11.6668C42.8709 12.6224 42.5153 13.8891 42.7376 15.1336L39.7597 18.1115C37.7152 16.5781 35.3152 15.5558 32.6707 15.178V12.0669C33.35 11.595 33.8608 10.9183 34.1285 10.1356C34.3961 9.35295 34.4067 8.50522 34.1585 7.71614C33.9104 6.92705 33.4166 6.23792 32.7491 5.7493C32.0817 5.26068 31.2755 4.99815 30.4484 5.00001C29.6212 4.99815 28.8151 5.26068 28.1476 5.7493C27.4802 6.23792 26.9864 6.92705 26.7382 7.71614C26.4901 8.50522 26.5006 9.35295 26.7683 10.1356C27.0359 10.9183 27.5467 11.595 28.2261 12.0669V15.178C26.226 15.4669 24.3593 16.1114 22.6704 17.0892L20.2037 13.5558C20.6259 12.4002 20.5148 11.0668 19.7592 10.0001C19.4663 9.5809 19.0936 9.22356 18.6623 8.94857C18.2311 8.67358 17.7499 8.48635 17.2462 8.39759C16.7426 8.30883 16.2263 8.32028 15.7271 8.4313C15.2279 8.54231 14.7554 8.75071 14.3369 9.04456C12.5813 10.2668 12.1368 12.6891 13.3813 14.4447C14.1368 15.5336 15.3369 16.1114 16.5591 16.1114L19.1814 19.8448C18.2258 20.8004 17.4703 21.8671 16.8258 23.0449C16.1253 22.7712 15.3607 22.7053 14.6236 22.8551C13.8865 23.0048 13.2083 23.364 12.6701 23.8894C11.1812 25.445 11.1812 27.8895 12.6701 29.4451C13.3146 30.0451 14.0924 30.4007 14.8924 30.5562C14.8924 31.7562 15.048 32.9118 15.2924 34.023L12.3812 34.8008C11.4479 34.023 10.159 33.6896 8.87005 34.023C7.87399 34.2941 7.02643 34.9498 6.51381 35.8458C6.0012 36.7418 5.86553 37.8048 6.13665 38.8009C6.40776 39.7969 7.06346 40.6445 7.95949 41.1571C8.85552 41.6697 9.91848 41.8054 10.9145 41.5343C12.1812 41.1787 13.1368 40.2453 13.5368 39.0898L16.8925 38.1786C17.8925 39.9342 19.2259 41.4898 20.7815 42.7787L18.337 47.2233C17.1147 47.4011 16.0036 48.09 15.3591 49.2678C15.1169 49.7172 14.9655 50.2099 14.9138 50.7178C14.862 51.2258 14.9107 51.7389 15.0572 52.228C15.2037 52.717 15.4451 53.1725 15.7677 53.5682C16.0902 53.964 16.4875 54.2924 16.9369 54.5346C17.3863 54.7768 17.8791 54.9281 18.387 54.9799C18.8949 55.0317 19.408 54.983 19.8971 54.8365C20.3862 54.69 20.8416 54.4485 21.2374 54.126C21.6331 53.8035 21.9615 53.4062 22.2037 52.9568C22.826 51.8012 22.8037 50.4678 22.2482 49.3789L24.626 45.001C26.426 45.7121 28.3817 46.1122 30.4484 46.1122H30.8484C30.5595 46.6899 30.4484 47.3566 30.4484 48.0678C30.6262 50.2234 32.4929 51.8234 34.6263 51.6679C36.7596 51.5123 38.3819 49.6234 38.2263 47.49C38.1375 46.3788 37.5819 45.401 36.7819 44.7566C37.8263 44.2899 38.8264 43.6899 39.7597 43.001L44.9599 48.2011C44.7376 49.4456 45.0932 50.7123 46.0043 51.6679C47.5599 53.1568 50.0044 53.1568 51.56 51.6679C53.1156 50.1789 53.0489 47.6677 51.56 46.1122C50.6044 45.201 49.3377 44.8455 48.0933 45.0677L42.8931 39.8676C43.982 38.4231 44.8265 36.7786 45.3599 35.0008H47.8266ZM27.115 30.5562C25.2705 30.5562 23.7815 29.0673 23.7815 27.2228C23.7815 25.3783 25.2705 23.8894 27.115 23.8894C28.9594 23.8894 30.4484 25.3783 30.4484 27.2228C30.4484 29.0673 28.9594 30.5562 27.115 30.5562ZM34.8929 37.223C33.6707 37.223 32.6707 36.223 32.6707 35.0008C32.6707 33.7785 33.6707 32.7785 34.8929 32.7785C36.1152 32.7785 37.1152 33.7785 37.1152 35.0008C37.1152 36.223 36.1152 37.223 34.8929 37.223Z" fill="#FAFAFA"/>
</svg>
