<svg width="60" height="60" viewBox="0 0 60 60" fill="none" xmlns="http://www.w3.org/2000/svg">
<path d="M31.5019 5.00132C31.3335 4.9925 31.1657 5.02808 31.0154 5.10451C30.8651 5.18094 30.7375 5.29553 30.6454 5.4368C28.1673 9.18287 28.0951 12.6258 28.0951 12.6763C28.0962 12.9627 28.1613 13.2453 28.2855 13.5034C28.4097 13.7615 28.59 13.9886 28.8131 14.1682C29.0363 14.3478 29.2967 14.4753 29.5754 14.5415C29.8541 14.6076 30.144 14.6107 30.4241 14.5506C30.8612 14.4459 31.2497 14.1957 31.526 13.8412C31.8023 13.4867 31.9499 13.0488 31.9446 12.5993C31.9538 12.3361 32.017 12.0775 32.1301 11.8396C32.2433 11.6017 32.4041 11.3896 32.6026 11.2164C32.8011 11.0432 33.033 10.9125 33.284 10.8326C33.535 10.7526 33.7998 10.725 34.0619 10.7516C34.5449 10.8076 34.9898 11.0414 35.31 11.4074C35.6302 11.7734 35.8028 12.2454 35.7941 12.7317C35.7855 14.2631 35.1689 15.7284 34.0799 16.8052C32.9909 17.882 31.5188 18.4821 29.9874 18.4735C28.4559 18.4648 26.9906 17.8482 25.9138 16.7592C24.837 15.6703 24.2369 14.1981 24.2456 12.6667C24.2456 12.5151 24.2672 10.0731 25.5544 6.8924C25.6196 6.72964 25.6391 6.55216 25.6108 6.37913C25.5824 6.2061 25.5074 6.0441 25.3937 5.91061C25.2801 5.77712 25.1321 5.67723 24.9658 5.62171C24.7995 5.56619 24.6211 5.55716 24.4501 5.59559C18.7789 6.89828 13.7378 10.1339 10.1916 14.7473C6.64539 19.3607 4.81512 25.0643 5.01476 30.8798C5.47911 44.127 16.3612 54.7805 29.6157 54.9971C36.1541 55.0972 42.4719 52.6338 47.2168 48.1341C51.9617 43.6344 54.7565 37.456 55.003 30.9214C55.2496 24.3869 52.9282 18.0155 48.5359 13.171C44.1436 8.3266 38.0293 5.39412 31.5019 5.00132ZM18.4713 29.9775C18.4713 29.4065 18.6406 28.8483 18.9578 28.3735C19.2751 27.8987 19.726 27.5287 20.2536 27.3102C20.7811 27.0916 21.3616 27.0345 21.9217 27.1459C22.4817 27.2573 22.9962 27.5322 23.3999 27.936C23.8037 28.3398 24.0787 28.8542 24.1901 29.4143C24.3015 29.9743 24.2443 30.5548 24.0258 31.0824C23.8073 31.61 23.4372 32.0609 22.9624 32.3781C22.4876 32.6954 21.9294 32.8647 21.3584 32.8647C20.5927 32.8647 19.8583 32.5605 19.3169 32.0191C18.7755 31.4776 18.4713 30.7433 18.4713 29.9775ZM37.7839 43.1549C35.4546 44.607 32.7647 45.3768 30.0199 45.3768C27.275 45.3768 24.5852 44.607 22.2558 43.1549C21.8238 42.8825 21.5178 42.4496 21.405 41.9514C21.2922 41.4533 21.3819 40.9308 21.6544 40.4988C21.9268 40.0668 22.3597 39.7607 22.8579 39.6479C23.356 39.5351 23.8785 39.6248 24.3105 39.8973C26.0248 40.9612 28.0023 41.525 30.0199 41.525C32.0375 41.525 34.0149 40.9612 35.7292 39.8973C35.9431 39.7624 36.1815 39.6709 36.4307 39.6281C36.68 39.5853 36.9352 39.5921 37.1818 39.6479C37.4285 39.7038 37.6617 39.8077 37.8682 39.9537C38.0747 40.0996 38.2505 40.2849 38.3854 40.4988C38.5203 40.7127 38.6117 40.9511 38.6545 41.2003C38.6973 41.4496 38.6906 41.7048 38.6347 41.9514C38.5789 42.1981 38.475 42.4313 38.329 42.6378C38.183 42.8443 37.9978 43.02 37.7839 43.1549ZM38.6813 32.8647C38.1103 32.8647 37.5521 32.6954 37.0773 32.3781C36.6025 32.0609 36.2324 31.61 36.0139 31.0824C35.7954 30.5548 35.7382 29.9743 35.8496 29.4143C35.961 28.8542 36.236 28.3398 36.6398 27.936C37.0435 27.5322 37.558 27.2573 38.118 27.1459C38.6781 27.0345 39.2586 27.0916 39.7862 27.3102C40.3137 27.5287 40.7646 27.8987 41.0819 28.3735C41.3991 28.8483 41.5684 29.4065 41.5684 29.9775C41.5684 30.7433 41.2643 31.4776 40.7228 32.0191C40.1814 32.5605 39.447 32.8647 38.6813 32.8647Z" fill="#FAFAFA"/>
</svg>
