<svg width="48" height="48" viewBox="0 0 48 48" fill="none" xmlns="http://www.w3.org/2000/svg">
<path d="M15.6 21H32.4M15.6 27H32.4M15 24C15 25.1819 15.2328 26.3522 15.6851 27.4442C16.1374 28.5361 16.8003 29.5282 17.636 30.364C18.4718 31.1997 19.4639 31.8626 20.5558 32.3149C21.6478 32.7672 22.8181 33 24 33C25.1819 33 26.3522 32.7672 27.4442 32.3149C28.5361 31.8626 29.5282 31.1997 30.364 30.364C31.1997 29.5282 31.8626 28.5361 32.3149 27.4442C32.7672 26.3522 33 25.1819 33 24C33 21.6131 32.0518 19.3239 30.364 17.636C28.6761 15.9482 26.3869 15 24 15C21.6131 15 19.3239 15.9482 17.636 17.636C15.9482 19.3239 15 21.6131 15 24Z" stroke="#F9F9F4" stroke-width="2" stroke-linecap="round" stroke-linejoin="round"/>
<path d="M23.4997 15C21.815 17.6996 20.9219 20.8179 20.9219 24C20.9219 27.1821 21.815 30.3004 23.4997 33M24.4997 15C26.1843 17.6996 27.0775 20.8179 27.0775 24C27.0775 27.1821 26.1843 30.3004 24.4997 33" stroke="#F9F9F4" stroke-width="2" stroke-linecap="round" stroke-linejoin="round"/>
</svg>
